<?xml version="1.0" encoding="utf-8"?>
<!-- Generator: Adobe Illustrator 16.0.0, SVG Export Plug-In . SVG Version: 6.00 Build 0)  -->
<!DOCTYPE svg PUBLIC "-//W3C//DTD SVG 1.1//EN" "http://www.w3.org/Graphics/SVG/1.1/DTD/svg11.dtd">
<svg version="1.1" id="Capa_1" xmlns="http://www.w3.org/2000/svg" xmlns:xlink="http://www.w3.org/1999/xlink" x="0px" y="0px"
	 width="200px" height="63px" viewBox="0 0 200 63" enable-background="new 0 0 200 63" xml:space="preserve">
<g>
	<g>
		<path d="M27.508,20.948c0.406-7.117-3.746-11.028-10.425-11.028c-11.146,0-11.552,8.719-11.552,17.296
			c0,12.913,1.309,17.864,12.77,17.864c2.708,0,7.357-0.756,9.207-1.131V26.697H16.992v5.233h3.702v7.539
			c-1.039,0.377-2.256,0.659-3.385,0.659c-3.881,0-4.873-1.883-4.873-12.536c0-6.598,0-12.583,4.242-12.583
			c3.61,0,4.106,2.78,4.06,5.938H27.508z"/>
		<path d="M36.559,21.506h-0.091v-3.304h-6.046v25.664h6.363V29.891c0-2.542,0.089-6.201,5.685-5.794v-6.403
			C39.897,17.694,37.731,18.557,36.559,21.506z"/>
		<path d="M61.148,43.97c-0.136-1.68-0.226-3.408-0.226-5.088V18.284H54.56v17.802c0,2.288-0.361,3.965-2.392,3.965
			c-2.03,0-2.39-1.677-2.39-3.965V18.284h-6.364v20.598c0,3.563,2.663,5.596,5.687,5.596c2.392,0,4.106-0.814,5.371-3.102h0.089
			v2.594H61.148z"/>
		<path d="M75.11,17.855c-2.436,0-4.197,0.859-5.371,3.332H69.65v-2.826h-6.047v35.132h6.362V41.433h0.092
			c1.308,2.171,2.887,2.929,5.19,2.929c6.406,0,6.226-7.926,6.226-13.076C81.472,26.035,81.698,17.855,75.11,17.855z M75.247,30.88
			c0,6.412-0.408,9.086-2.709,9.086c-2.166,0-2.573-2.675-2.573-9.086c0-5.099-0.045-8.633,2.573-8.633
			C75.29,22.248,75.247,25.782,75.247,30.88z"/>
		<path d="M92.342,18c-8.504,0-9.418,5.992-9.418,12.999c0,8.025,1.098,13.662,9.418,13.662c8.321,0,9.418-5.637,9.418-13.662
			C101.761,23.992,100.847,18,92.342,18z M92.342,40.09c-2.376,0-2.971-1.676-2.971-9.497c0-5.332,0.229-8.023,2.971-8.023
			c2.743,0,2.973,2.691,2.973,8.023C95.315,38.414,94.72,40.09,92.342,40.09z"/>
		<path d="M126.337,9.719h-12.49v34.17h6.934V31.721h5.144c8.128,0,9.231-6.683,9.231-10.898
			C135.155,14.037,132.674,9.719,126.337,9.719z M124.638,26.014h-3.857v-10.59h3.491c3.122,0,3.856,2.57,3.856,5.604
			C128.128,23.495,126.704,26.014,124.638,26.014z"/>
		<path d="M154.463,39.101V26.332c0-4.662-1.061-8.563-9.312-8.563c-2.491,0-4.612,0.456-6.088,1.672
			c-1.522,1.166-2.396,3.142-2.396,6.233h6.362c0-2.027,0.185-3.902,2.443-3.902c2.352,0,2.629,1.571,2.629,3.75v1.976
			c-6.041-0.1-11.987,0.253-11.987,8.717c0,4.457,1.659,8.157,6.177,8.157c2.813,0,4.704-1.267,6.087-3.901h0.093l0.276,3.395h6.04
			C154.648,42.293,154.463,40.671,154.463,39.101z M144.874,39.963c-2.121,0-2.397-2.23-2.397-4.054
			c0-4.561,2.397-4.257,5.625-4.407C148.102,34.287,148.7,39.963,144.874,39.963z"/>
		<path d="M168.763,17.697c-1.194,0-2.249,0.204-3.169,0.712c-0.873,0.458-1.653,1.219-2.297,2.388h-0.092v-2.591h-6.475v25.673
			h6.475V26.186c0-2.287,0.368-4.066,2.435-4.066c2.065,0,2.435,1.779,2.435,4.066v17.693h6.476v-20.59
			C174.55,19.73,171.839,17.697,168.763,17.697z"/>
		<path d="M194.307,39.084V26.313c0-4.662-1.06-8.563-9.313-8.563c-2.491,0-4.611,0.457-6.085,1.672
			c-1.523,1.165-2.398,3.141-2.398,6.232h6.362c0-2.026,0.183-3.902,2.443-3.902c2.352,0,2.629,1.571,2.629,3.75v1.977
			c-6.04-0.102-11.988,0.254-11.988,8.716c0,4.46,1.659,8.158,6.178,8.158c2.812,0,4.703-1.267,6.086-3.901h0.094l0.274,3.396h6.042
			C194.49,42.277,194.307,40.655,194.307,39.084z M184.716,39.945c-2.12,0-2.397-2.23-2.397-4.054c0-4.561,2.397-4.257,5.627-4.408
			C187.945,34.271,188.544,39.945,184.716,39.945z"/>
	</g>
	<rect x="5.455" y="48.766" fill="#DA242B" width="54.545" height="2.702"/>
	<rect x="73.088" y="48.766" fill="#DA242B" width="121.543" height="2.702"/>
</g>
</svg>
