<?xml version="1.0" encoding="utf-8"?>
<!-- Generator: Adobe Illustrator 16.0.0, SVG Export Plug-In . SVG Version: 6.00 Build 0)  -->
<!DOCTYPE svg PUBLIC "-//W3C//DTD SVG 1.1//EN" "http://www.w3.org/Graphics/SVG/1.1/DTD/svg11.dtd">
<svg version="1.1" id="Capa_1" xmlns="http://www.w3.org/2000/svg" xmlns:xlink="http://www.w3.org/1999/xlink" x="0px" y="0px"
	 width="180px" height="57px" viewBox="0 0 180 57" enable-background="new 0 0 180 57" xml:space="preserve">
<g>
	<g>
		<path fill="#FFFFFF" d="M11.68,34.416c-3.69,0-6.261-0.941-7.712-2.822c-1.451-1.881-2.185-5.209-2.2-9.984v-7.451
			C1.783,9.86,2.615,6.76,4.263,4.855C5.911,2.952,8.596,2,12.315,2c3.25,0,5.661,0.773,7.235,2.32
			c1.572,1.546,2.305,3.867,2.2,6.96v0.937h-6.51v-0.937c0.031-1.517-0.23-2.655-0.782-3.414c-0.552-0.759-1.395-1.138-2.529-1.138
			c-1.346,0-2.284,0.517-2.813,1.55c-0.53,1.034-0.794,2.875-0.794,5.522v7.451c0,3.435,0.253,5.7,0.76,6.794
			c0.506,1.092,1.546,1.639,3.118,1.639c0.62,0,1.618-0.163,2.994-0.491v-7.25h-3.017v-4.686h9.572v15.906
			c-3.463,0.82-6.827,1.235-10.093,1.251H11.68z"/>
		<path fill="#FFFFFF" d="M25.135,9.637h2.625h2.647v3.116c0.199-0.441,0.413-0.842,0.64-1.202c0.982-1.439,2.647-2.241,4.996-2.404
			v5.397c-0.356-0.081-0.755-0.114-1.196-0.098c-1.594,0-2.704,0.451-3.33,1.35c-0.626,0.9-0.911,2.454-0.854,4.662v13.273H27.91
			h-2.775V9.637z"/>
		<path fill="#FFFFFF" d="M43.039,26.143c0,1.187,0.162,2.044,0.489,2.574c0.326,0.528,0.851,0.794,1.578,0.794
			c0.979,0,1.657-0.409,2.035-1.228c0.378-0.818,0.537-2.228,0.478-4.232V9.597h2.869h2.891v23.618h-2.69h-2.713v-2.334
			c-1.527,1.877-3.291,2.823-5.292,2.839c-1.809,0-3.162-0.57-4.058-1.709c-0.897-1.138-1.345-2.846-1.345-5.122V9.597h2.868h2.891
			V26.143z"/>
		<path fill="#FFFFFF" d="M55.765,9.647h2.936h2.958v2l0.091-0.119c1.123-1.586,2.814-2.381,5.075-2.381
			c1.79,0,3.129,0.611,4.017,1.833c0.888,1.222,1.332,3.056,1.332,5.5v8.286c0,3.206-0.41,5.468-1.23,6.785
			c-0.819,1.318-2.238,1.976-4.255,1.976c-2.185,0.016-3.862-0.736-5.03-2.261v10.999h-2.935h-2.959V9.647z M64.004,29.336
			c0.97,0,1.612-0.36,1.922-1.084c0.311-0.722,0.467-2.209,0.467-4.464v-5.856c0-1.714-0.174-2.908-0.523-3.583
			c-0.35-0.675-0.964-1.012-1.844-1.012c-0.835,0-1.438,0.413-1.809,1.238c-0.373,0.826-0.558,2.174-0.558,4.047v5.429
			c0.03,2.143,0.197,3.559,0.501,4.25C62.463,28.991,63.078,29.336,64.004,29.336z"/>
		<path fill="#FFFFFF" d="M75.901,31.621c-1.313-1.407-1.968-3.695-1.968-6.862v-6.622c0-3.167,0.656-5.453,1.968-6.861
			c1.312-1.407,3.451-2.112,6.417-2.112s5.108,0.705,6.428,2.112c1.319,1.408,1.979,3.694,1.979,6.861v6.622
			c0,3.167-0.661,5.455-1.979,6.862c-1.32,1.407-3.462,2.11-6.428,2.11S77.212,33.028,75.901,31.621z M84.262,28.885
			c0.318-0.751,0.477-2.294,0.477-4.63v-6.621c0-1.744-0.182-2.971-0.547-3.683s-0.99-1.068-1.875-1.068
			c-0.886,0-1.506,0.356-1.863,1.068c-0.357,0.712-0.536,1.939-0.536,3.683v6.621c0,2.336,0.154,3.879,0.465,4.63
			c0.311,0.753,0.955,1.129,1.934,1.129S83.943,29.638,84.262,28.885z"/>
		<path fill="#FFFFFF" d="M102.178,2h3.322h6.552c3.538,0,6.06,0.72,7.567,2.159c1.507,1.439,2.262,3.845,2.262,7.218
			c0,3.824-0.762,6.399-2.285,7.726c-1.522,1.326-4.476,1.99-8.858,1.99h-1.893v12.639h-3.321h-3.346V2z M108.845,16.326h1.893
			c1.784,0,2.975-0.323,3.576-0.967c0.6-0.644,0.898-1.941,0.898-3.891c0-1.813-0.311-3.051-0.934-3.71s-1.804-0.989-3.541-0.989
			h-1.893V16.326z"/>
		<path fill="#FFFFFF" d="M165.563,33.938c-1.717,0-3.064-0.557-4.037-1.669c-0.973-1.114-1.46-2.656-1.46-4.626V26.19
			c0-2.824,0.66-4.813,1.977-5.967c1.319-1.154,3.597-1.731,6.831-1.731h1.816v-2.905c0-0.888-0.158-1.557-0.472-2.01
			c-0.313-0.451-0.784-0.678-1.414-0.678c-0.781,0-1.356,0.242-1.725,0.727c-0.369,0.484-0.529,1.21-0.482,2.179v0.702h-5.958
			v-0.702c-0.03-2.308,0.596-3.995,1.875-5.06c1.28-1.065,3.323-1.598,6.13-1.598c2.713,0,4.725,0.593,6.037,1.779
			c1.312,1.186,1.966,3.022,1.966,5.508v16.995h-5.774v-1.96l-0.252,0.313C169.502,33.219,167.816,33.938,165.563,33.938z
			 M170.689,22.196h-0.782c-1.411,0-2.407,0.314-2.99,0.944c-0.581,0.63-0.874,1.719-0.874,3.268v1.454
			c0,0.742,0.187,1.323,0.554,1.742c0.366,0.42,0.873,0.63,1.518,0.63c0.857,0,1.502-0.399,1.931-1.198
			c0.43-0.799,0.645-1.989,0.645-3.571V22.196z"/>
		<path fill="#FFFFFF" d="M128.646,34.019c-1.717,0-3.062-0.555-4.037-1.667c-0.973-1.11-1.46-2.648-1.46-4.613V26.29
			c0-2.817,0.66-4.802,1.979-5.953c1.316-1.151,3.594-1.727,6.828-1.727h1.818v-2.898c0-0.885-0.157-1.554-0.472-2.005
			c-0.315-0.45-0.786-0.676-1.415-0.676c-0.782,0-1.355,0.242-1.725,0.725c-0.367,0.483-0.53,1.208-0.483,2.174v0.7h-5.955v-0.7
			c-0.03-2.302,0.593-3.985,1.875-5.048c1.277-1.063,3.32-1.593,6.128-1.593c2.714,0,4.727,0.591,6.036,1.775
			c1.311,1.184,1.965,3.015,1.965,5.495V33.51h-5.771v-1.956l-0.252,0.315C132.586,33.302,130.898,34.019,128.646,34.019z
			 M133.774,22.305h-0.782c-1.41,0-2.406,0.314-2.989,0.941c-0.584,0.628-0.874,1.715-0.874,3.261v1.449
			c0,0.74,0.184,1.32,0.551,1.739c0.369,0.417,0.876,0.627,1.518,0.627c0.86,0,1.502-0.397,1.933-1.195
			c0.429-0.797,0.645-1.984,0.645-3.562V22.305z"/>
		<path fill="#FFFFFF" d="M142.177,9.662h2.865h2.886v2.256c1.243-1.847,3.027-2.771,5.351-2.771c1.646,0,2.873,0.527,3.688,1.581
			c0.814,1.054,1.223,2.645,1.223,4.769v18.242h-2.866h-2.888V16.232c0-0.98-0.157-1.691-0.477-2.133
			c-0.32-0.441-0.832-0.662-1.543-0.662c-0.963,0-1.633,0.417-2.01,1.25c-0.38,0.833-0.537,2.272-0.479,4.315v14.736h-2.865h-2.886
			V9.662z"/>
		<rect x="2.753" y="37.33" fill="#FFFFFF" width="49.114" height="3.021"/>
		<rect x="65.358" y="37.33" fill="#FFFFFF" width="111.827" height="3.021"/>
	</g>
	<g>
		<path fill-rule="evenodd" clip-rule="evenodd" fill="#FFFFFF" d="M8.902,53.084c-0.676-0.424-1.174-1.886-1.174-3.623
			c0-0.063,0-0.127,0.002-0.189l0,0l0.001,0.001l0,0c-1.881-0.296-3.241-1.105-3.276-2.063l0,0L4.449,47.22l0,0
			c-0.46,0.572-0.723,1.234-0.723,1.938c0,2.074,2.276,3.773,5.164,3.924l0,0L8.902,53.084L8.902,53.084L8.902,53.084z M2.856,49.31
			c0-2.32,2.888-4.201,6.45-4.201c3.562,0,6.45,1.881,6.45,4.201s-2.888,4.202-6.45,4.202C5.744,53.512,2.856,51.63,2.856,49.31
			L2.856,49.31L2.856,49.31L2.856,49.31z M9.307,45.714c0.688,0,1.272,1.044,1.489,2.499l0,0l0.001-0.002l0,0
			c1.338-0.209,2.275-0.688,2.275-1.248c0-0.75-1.686-1.357-3.765-1.357c-2.079,0-3.765,0.607-3.765,1.357
			c0,0.56,0.937,1.039,2.275,1.248l0,0l0.001,0.002l0,0C8.034,46.758,8.619,45.714,9.307,45.714L9.307,45.714L9.307,45.714
			L9.307,45.714z M9.723,53.082c2.887-0.15,5.164-1.85,5.164-3.924c0-0.704-0.263-1.366-0.723-1.938l0,0l-0.005-0.011l0,0
			c-0.035,0.958-1.395,1.768-3.276,2.063l0,0l0.001-0.001l0,0c0.001,0.063,0.002,0.126,0.002,0.189c0,1.737-0.499,3.199-1.174,3.623
			l0,0L9.723,53.082L9.723,53.082L9.723,53.082z M9.307,48.321c0.308,0,0.607-0.014,0.894-0.039l0,0l0,0.001l0,0
			c-0.143-0.934-0.489-1.592-0.894-1.592c-0.405,0-0.751,0.658-0.894,1.592l0,0l-0.001-0.001l0,0
			C8.699,48.308,8.999,48.321,9.307,48.321L9.307,48.321L9.307,48.321L9.307,48.321z M9.307,51.776c0.518,0,0.94-1.077,0.962-2.429
			l0,0l0.003,0.001l0,0c-0.313,0.029-0.635,0.044-0.965,0.044c-0.331,0-0.654-0.015-0.966-0.044l0,0l0.003-0.001l0,0
			C8.366,50.699,8.789,51.776,9.307,51.776L9.307,51.776L9.307,51.776L9.307,51.776z"/>
		<path fill-rule="evenodd" clip-rule="evenodd" fill="#FFFFFF" d="M35.769,49.31c0-1.773,1.438-3.212,3.211-3.212
			s3.212,1.438,3.212,3.212s-1.438,3.212-3.212,3.212S35.769,51.083,35.769,49.31L35.769,49.31L35.769,49.31L35.769,49.31z
			 M38.98,51.344c0.99,0,1.793-0.911,1.793-2.034s-0.804-2.034-1.793-2.034c-0.991,0-1.793,0.911-1.793,2.034
			S37.99,51.344,38.98,51.344L38.98,51.344L38.98,51.344L38.98,51.344z"/>
		<polygon fill-rule="evenodd" clip-rule="evenodd" fill="#FFFFFF" points="45.836,47.437 45.836,52.375 44.483,52.375 
			44.483,47.437 44.487,47.437 42.595,47.437 42.595,46.319 47.724,46.319 47.724,47.437 45.841,47.437 45.836,47.437 
			45.836,47.437 		"/>
		<path fill-rule="evenodd" clip-rule="evenodd" fill="#FFFFFF" d="M49.36,51.013l-0.001,0.002l-0.519,1.36H47.26l2.499-6.056H50.6
			h0.842l2.498,6.056H52.36l-0.519-1.36l-0.002-0.002H50.6H49.36L49.36,51.013L49.36,51.013z M50.6,49.99h0.852l0,0.001
			l-0.845-2.217h-0.011l-0.845,2.217l-0.001-0.001H50.6L50.6,49.99L50.6,49.99z"/>
		<polygon fill-rule="evenodd" clip-rule="evenodd" fill="#FFFFFF" points="20.893,47.437 20.893,52.375 19.54,52.375 19.54,47.437 
			19.544,47.437 17.652,47.437 17.652,46.319 22.781,46.319 22.781,47.437 20.898,47.437 20.893,47.437 20.893,47.437 		"/>
		<path fill-rule="evenodd" clip-rule="evenodd" fill="#FFFFFF" d="M23.127,49.31c0-1.773,1.438-3.212,3.212-3.212
			c1.773,0,3.211,1.438,3.211,3.212s-1.438,3.212-3.211,3.212C24.565,52.521,23.127,51.083,23.127,49.31L23.127,49.31L23.127,49.31
			L23.127,49.31z M26.339,51.344c0.99,0,1.793-0.911,1.793-2.034s-0.803-2.034-1.793-2.034s-1.793,0.911-1.793,2.034
			S25.349,51.344,26.339,51.344L26.339,51.344L26.339,51.344L26.339,51.344z"/>
		<polygon fill-rule="evenodd" clip-rule="evenodd" fill="#FFFFFF" points="32.659,52.375 33.345,52.375 33.345,50.104 
			33.345,50.076 35.706,46.319 34.126,46.319 32.659,48.865 31.193,46.319 29.613,46.319 31.974,50.076 31.974,50.104 
			31.974,52.375 32.659,52.375 32.659,52.375 		"/>
	</g>
	<g>
		<g>
			<path fill-rule="evenodd" clip-rule="evenodd" fill="#FFFFFF" d="M85.133,52.043c0.136,0,0.201,0.007,0.247-0.101
				c0.055-0.129,0.491-1.438,0.491-1.438h0.993c0.431,0,1.026-0.008,1.026-0.008s0.076,0.136,0.252,0.697s0.229,0.862,0.493,0.862
				h0.915c0.127,0,0.166-0.051,0.166-0.15s-0.1-0.332-0.1-0.332s-0.427-1.24-0.523-1.523c-0.097-0.284-0.431-1.24-0.633-1.8
				c-0.202-0.559-0.536-1.59-0.592-1.767c-0.057-0.176-0.062-0.258-0.255-0.278c-0.194-0.021-0.682-0.053-0.935-0.032
				c-0.038,0.003-0.118,0.007-0.156,0.132c-0.039,0.125-0.417,1.282-0.577,1.759c-0.161,0.478-0.633,1.855-0.694,2.042
				c-0.061,0.187-0.479,1.439-0.548,1.654s-0.079,0.276,0.059,0.276C84.898,52.036,84.998,52.043,85.133,52.043z M86.865,47.411
				c0,0,0.131,0.325,0.452,1.324c0.321,0.998,0.359,1.142,0.359,1.142s-0.29,0.004-0.786,0.004s-0.824-0.014-0.824-0.014
				s0.075-0.254,0.386-1.211C86.763,47.698,86.865,47.411,86.865,47.411z"/>
			<path fill-rule="evenodd" clip-rule="evenodd" fill="#FFFFFF" d="M99.545,52.043c0.137,0,0.201,0.007,0.247-0.101
				c0.054-0.129,0.49-1.438,0.49-1.438h0.993c0.432,0,1.026-0.008,1.026-0.008s0.076,0.136,0.252,0.697
				c0.177,0.562,0.229,0.862,0.493,0.862h0.914c0.127,0,0.166-0.051,0.166-0.15s-0.1-0.332-0.1-0.332s-0.427-1.24-0.523-1.523
				c-0.097-0.284-0.432-1.24-0.633-1.8c-0.202-0.559-0.536-1.59-0.593-1.767c-0.056-0.176-0.062-0.258-0.255-0.278
				c-0.194-0.021-0.682-0.053-0.935-0.032c-0.038,0.003-0.117,0.007-0.156,0.132c-0.038,0.125-0.416,1.282-0.576,1.759
				c-0.16,0.478-0.633,1.855-0.694,2.042s-0.479,1.439-0.549,1.654c-0.068,0.215-0.078,0.276,0.059,0.276
				C99.31,52.036,99.409,52.043,99.545,52.043z M101.277,47.411c0,0,0.13,0.325,0.451,1.324c0.321,0.998,0.359,1.142,0.359,1.142
				s-0.29,0.004-0.787,0.004c-0.496,0-0.824-0.014-0.824-0.014s0.075-0.254,0.387-1.211
				C101.175,47.698,101.277,47.411,101.277,47.411z"/>
			<path fill-rule="evenodd" clip-rule="evenodd" fill="#FFFFFF" d="M90.675,46.527c0-0.243,0.063-0.345,0.282-0.345
				c0.218,0,0.439,0.005,0.597,0.005c0.157,0,0.441-0.007,0.441,0.158s0.023,2.242,0.023,2.667s0.015,2.389,0.015,2.658
				s-0.029,0.39-0.239,0.39s-0.526,0.014-0.738,0.012c-0.213-0.002-0.353-0.026-0.353-0.325c0-0.3-0.012-2.946-0.012-3.416
				S90.675,46.771,90.675,46.527z"/>
			<path fill-rule="evenodd" clip-rule="evenodd" fill="#FFFFFF" d="M95.895,49.32c-0.272,0-0.9,0.004-0.9,0.004
				c0.003,0.702,0.013,2.121,0.013,2.347c0,0.27-0.027,0.389-0.228,0.389s-0.502,0.015-0.705,0.013
				c-0.203-0.003-0.337-0.026-0.337-0.325c0-0.3-0.011-2.947-0.011-3.417c0-0.469-0.016-1.559-0.016-1.803
				c0-0.243,0.059-0.345,0.268-0.345c0.21,0,0.421,0.005,0.571,0.005c0.149,0,0.421-0.007,0.421,0.158
				c0,0.138,0.016,1.602,0.025,2.333c0,0,0.293,0.008,0.905,0.008c0.613,0,1.022-0.008,1.022-0.008
				c0.001-0.731,0.017-2.195,0.017-2.333c0-0.165,0.271-0.158,0.422-0.158s0.361-0.005,0.57-0.005s0.269,0.102,0.269,0.345
				c0,0.244-0.017,1.334-0.017,1.803c0,0.47-0.011,3.117-0.011,3.417c0,0.299-0.134,0.322-0.336,0.325
				c-0.203,0.002-0.505-0.013-0.705-0.013s-0.229-0.119-0.229-0.389c0-0.226,0.01-1.645,0.013-2.347
				C96.917,49.324,96.168,49.32,95.895,49.32z"/>
			<path fill-rule="evenodd" clip-rule="evenodd" fill="#FFFFFF" d="M105.346,51.832c0.011,0.183,0.002,0.22,0.088,0.239
				c0.086,0.019,0.417,0.052,0.65,0.063c0.232,0.01,0.542,0.056,0.542-0.277c0-0.334-0.007-1.463-0.007-1.569
				s-0.009-1.257-0.009-1.354s0-1.273,0-1.358c0-0.086,0-0.544,0-0.601s0.018-0.073,0.082-0.073s0.711,0.015,0.954,0.015
				c0.244,0,0.34,0,0.402,0s0.13,0.017,0.142-0.079c0.013-0.096,0.027-0.294,0.029-0.392s-0.002-0.169-0.169-0.18
				c-0.166-0.01-1.288-0.031-1.527-0.035s-1.165-0.004-1.34-0.002c-0.176,0.002-1.298,0.019-1.384,0.019
				c-0.083,0-0.125,0.099-0.125,0.307s0.017,0.338,0.129,0.338s0.986,0.002,1.22,0.006c0.118,0.002,0.167,0,0.202,0
				s0.079-0.003,0.079,0.031c0,0.037,0.019,0.858,0.019,1.174c0,0.314-0.011,1.154-0.011,1.489c0,0.336,0.019,1.44,0.019,1.58
				S105.336,51.648,105.346,51.832z"/>
			<path fill-rule="evenodd" clip-rule="evenodd" fill="#FFFFFF" d="M110.118,52.199c-0.55,0-1.28-0.199-1.427-0.246
				c-0.146-0.047-0.148-0.144-0.148-0.219s0-0.118,0-0.237s0.015-0.256,0.086-0.256c0.236,0,0.494,0.372,1.589,0.372
				c0.623,0,0.72-0.359,0.72-0.588c0-1.252-2.44-1.51-2.44-3.272c0-1.295,0.965-1.528,1.738-1.528c0.624,0,1.087,0.147,1.246,0.224
				s0.181,0.13,0.181,0.216s0,0.371,0,0.433s-0.035,0.106-0.085,0.106c-0.163,0-0.4-0.4-1.275-0.4c-0.579,0-0.825,0.287-0.825,0.625
				c0,1.005,2.521,1.45,2.521,3.209C111.998,51.876,110.943,52.199,110.118,52.199z"/>
			<path fill-rule="evenodd" clip-rule="evenodd" fill="#FFFFFF" d="M112.967,46.518c0-0.115,0.021-0.198,0.192-0.198
				s0.289-0.015,0.441-0.015s0.281,0.002,0.402,0.004c0.123,0.002,0.241,0.021,0.241,0.483c0,0.463-0.011,1.663-0.011,1.887
				c0,0.223,0.003,0.957,0.003,1.283c0,0.595-0.101,1.703,1.118,1.703c0.23,0,1.111,0.002,1.111-1.177
				c0-0.461-0.02-2.197-0.024-2.91c-0.003-0.378-0.016-0.959-0.016-1.074c0-0.116,0.022-0.168,0.104-0.168s0.281,0.006,0.412,0.006
				c0.132,0,0.211,0.002,0.211,0.091c0,0.09,0.024,0.694,0.024,2.346s0,1.392,0,1.755c0,0.364,0.036,1.702-1.769,1.702
				c-1.804,0-2.42-0.957-2.42-1.93S112.967,46.632,112.967,46.518z"/>
			<path fill-rule="evenodd" clip-rule="evenodd" fill="#FFFFFF" d="M79.192,49.232c0,0.992,0.022,2.424,0.022,2.562
				s0.005,0.205,0.344,0.224c0.338,0.02,1.652,0.005,2.043,0.005c1.601,0,2.415-1.147,2.415-2.801c0-2.734-1.522-3.077-2.611-3.077
				h-1.958c-0.167,0-0.263,0.008-0.263,0.191S79.192,48.24,79.192,49.232z M81.216,51.419c0.729,0,1.491-0.118,1.491-2.362
				s-0.848-2.261-1.558-2.261h-0.458c-0.076,0-0.202-0.012-0.202,0.134v4.47C80.489,51.399,80.886,51.419,81.216,51.419z"/>
		</g>
		<path fill-rule="evenodd" clip-rule="evenodd" fill="#FFFFFF" d="M62.116,44.907v9.05h15.241v-9.05H62.116z M65.788,52.222
			l0.947-1.48l-3.632-3.595l0.861-0.044l3.48,3.48c0,0,8.533-0.755,8.533-1.656c0-0.543-3.811-1.02-5.675-1.172
			c-1.669-0.139-3.513-0.129-3.513-0.129l2.583,2.586l-1.841,0.186l-3.294-3.295c0,0,2.152-0.133,6.066,0.222
			s6.083,0.954,6.083,1.583C76.383,50.583,65.788,52.222,65.788,52.222z"/>
	</g>
	<g>
		<path fill-rule="evenodd" clip-rule="evenodd" fill="#FFFFFF" d="M138.153,47.409c-1.192-1.625-2.944-2.402-4.823-2.637
			c-0.343-0.019-0.794-0.108-1.011,0.198c-0.055,0.108,0.035,0.217,0.126,0.289c1.12,0.344,2.222,0.723,3.125,1.554
			c0.325,0.396,0.704,0.813,0.542,1.336c-0.344,0.523-1.03,0.397-1.607,0.488l-3.252,0.09l-3.178-0.055
			c-0.344-0.035-0.705-0.107-0.922-0.396c-0.145-0.289,0-0.614,0.127-0.85c0.831-1.228,2.186-1.716,3.449-2.131
			c0.091-0.054,0.181-0.162,0.145-0.271c-0.071-0.198-0.289-0.253-0.487-0.253c-1.102,0.055-2.096,0.343-3.017,0.813
			c-1.517,0.795-3.052,2.312-2.854,4.172c0.38,2.313,2.817,3.721,4.895,4.101c0.47,0.035,1.029,0.216,1.463-0.036
			c0.055-0.055,0.108-0.145,0.072-0.235c-0.036-0.072-0.108-0.126-0.181-0.163c-1.083-0.324-2.131-0.722-3.016-1.517
			c-0.344-0.379-0.687-0.776-0.597-1.3c0.055-0.146,0.181-0.271,0.308-0.344c0.65-0.234,1.408-0.162,2.113-0.217l2.582-0.072
			l2.222,0.036c0.614,0.091,1.391-0.126,1.752,0.451c0.127,0.289-0.018,0.597-0.162,0.85c-0.831,1.21-2.149,1.68-3.396,2.095
			c-0.127,0.036-0.199,0.163-0.181,0.289c0.234,0.379,0.794,0.181,1.174,0.163c2.041-0.308,4.227-1.481,5.057-3.559
			C138.983,49.342,138.749,48.186,138.153,47.409L138.153,47.409z M127.84,48.854l1.77,0.073l3.902-0.036
			c0.92-0.055,1.914-0.037,2.78-0.308c0.091-0.054,0.217-0.162,0.325-0.054c0.072,0.036,0.145,0.09,0.217,0.144
			c-0.054,0.109-0.198,0.091-0.307,0.127l-1.246,0.127l-2.492,0.054l-3.595,0.036c-0.849,0-1.661-0.019-2.492-0.108
			c-0.09-0.036-0.217-0.018-0.253-0.126c0.091-0.072,0.217-0.163,0.343-0.181C127.1,48.782,127.479,48.8,127.84,48.854
			L127.84,48.854z M138.46,49.504v0.019l-0.055-0.055c-0.071-0.866-0.397-1.661-1.065-2.275c-0.018,0-0.072-0.018-0.072,0.036
			c0.452,0.668,0.776,1.409,0.74,2.275c-0.108,1.969-2.167,3.378-3.864,3.884c-0.361,0.09-0.74,0.217-1.138,0.234
			c0.343-0.127,0.686-0.199,1.029-0.343c1.408-0.452,3.07-1.518,3.504-3.089c0.036-0.181,0.072-0.415-0.072-0.56
			c-0.253-0.271-0.633-0.271-1.012-0.271h-2.872l-3.413,0.054l-2.781,0.018c-0.542,0.108-1.354-0.145-1.644,0.471
			c-0.055,0.758,0.415,1.317,0.885,1.878c1.048,1.047,2.366,1.499,3.702,1.86l-0.036,0.036c-2.059-0.325-4.461-1.464-4.966-3.703
			c-0.181-0.957,0.126-1.859,0.649-2.601c0-0.018-0.018-0.036-0.036-0.054c-0.181,0.072-0.289,0.271-0.415,0.415
			c-0.361,0.596-0.632,1.229-0.669,1.933h-0.036c-0.144-1.571,1.066-2.854,2.33-3.63c0.939-0.561,1.969-0.939,3.089-0.994
			c0.018,0,0.018,0.019,0.018,0.019c-0.902,0.253-1.77,0.542-2.564,1.047c-0.921,0.542-1.77,1.464-1.986,2.493
			c0,0.145,0.036,0.271,0.145,0.361c0.324,0.271,0.813,0.234,1.228,0.252l2.005,0.019l5.653-0.054
			c0.759-0.037,1.553-0.037,2.294-0.145c0.198-0.055,0.451-0.182,0.506-0.416c0.018-0.487-0.271-0.885-0.506-1.264
			c-1.048-1.392-2.564-1.951-4.1-2.313c-0.019-0.054,0.018-0.018,0.036-0.036c1.336,0.055,2.51,0.506,3.575,1.229
			C137.665,47.012,138.55,48.149,138.46,49.504L138.46,49.504z"/>
		<path fill-rule="evenodd" clip-rule="evenodd" fill="#FFFFFF" d="M154.333,51.733c0,0.068-0.046,0.114-0.114,0.114h-2.5
			c-0.067,0-0.136-0.046-0.136-0.114v-4.954c0-0.067,0.068-0.113,0.136-0.113h2.5c0.068,0,0.114,0.046,0.114,0.113V51.733
			L154.333,51.733z M149.174,46.666h-2.522c-0.067,0-0.113,0.046-0.113,0.113v0.955c0,0.272-0.228,0.5-0.5,0.5h-2.522
			c-0.272,0-0.5-0.228-0.5-0.5l0,0v-0.955c0-0.067-0.046-0.113-0.113-0.113h-2.5c-0.068,0-0.137,0.046-0.137,0.113v4.954
			c0,0.068,0.068,0.114,0.137,0.114h2.5c0.067,0,0.113-0.046,0.113-0.114v-1.136l0,0c0-0.272,0.228-0.5,0.5-0.5h2.522
			c0.272,0,0.5,0.228,0.5,0.5v1.136c0,0.068,0.046,0.114,0.113,0.114h2.522c0.068,0,0.114-0.046,0.114-0.114v-4.954
			C149.288,46.712,149.242,46.666,149.174,46.666L149.174,46.666z M165.854,46.666h-2.5c-0.068,0-0.137,0.046-0.137,0.113v1.614
			c-0.227,0.25-0.772-0.046-0.772-0.046s-0.522-0.341-1.727-1c-1.046-0.613-1.364-0.682-1.432-0.682l0,0h-2.5
			c-0.068,0-0.137,0.046-0.137,0.113v4.954c0,0.068,0.068,0.114,0.137,0.114h2.5c0.067,0,0.136-0.046,0.136-0.114v-2.09
			c0.318-0.433,0.772-0.205,0.772-0.205s0.546,0.272,1.705,1c0.999,0.636,1.249,0.863,1.317,1.091v0.204
			c0,0.068,0.068,0.114,0.137,0.114h2.5c0.067,0,0.113-0.046,0.113-0.114v-4.954C165.968,46.712,165.922,46.666,165.854,46.666
			L165.854,46.666z M174.74,46.529h-4.392c-1.299,0-2.358,0.822-2.358,2.099v1.233c0,1.298,1.06,2.099,2.358,2.099h4.392
			c1.299,0,2.358-0.801,2.358-2.099v-1.233C177.099,47.352,176.039,46.529,174.74,46.529L174.74,46.529z M174.61,49.559
			c0,0.648-0.476,1.06-1.06,1.06h-1.99c-0.606,0-1.082-0.411-1.082-1.06v-0.627c0-0.649,0.476-1.061,1.082-1.061h1.99
			c0.584,0,1.06,0.411,1.06,1.061V49.559L174.61,49.559z"/>
	</g>
</g>
</svg>
