<?xml version="1.0" encoding="utf-8"?>
<!-- Generator: Adobe Illustrator 16.0.0, SVG Export Plug-In . SVG Version: 6.00 Build 0)  -->
<!DOCTYPE svg PUBLIC "-//W3C//DTD SVG 1.1//EN" "http://www.w3.org/Graphics/SVG/1.1/DTD/svg11.dtd">
<svg version="1.1" id="Capa_1" xmlns="http://www.w3.org/2000/svg" xmlns:xlink="http://www.w3.org/1999/xlink" x="0px" y="0px"
	 width="130px" height="34px" viewBox="0 0 130 34" enable-background="new 0 0 130 34" xml:space="preserve">
<g>
	<path fill="#FFFFFF" d="M8.131,28.222c-2.717,0-4.61-0.693-5.679-2.079c-1.068-1.385-1.608-3.835-1.62-7.352v-5.486
		c0.011-3.165,0.623-5.448,1.837-6.85c1.213-1.402,3.191-2.103,5.93-2.103c2.393,0,4.168,0.569,5.328,1.709
		c1.157,1.138,1.697,2.847,1.62,5.125v0.689h-4.793v-0.689c0.022-1.117-0.17-1.955-0.576-2.513C9.771,8.113,9.15,7.834,8.315,7.834
		c-0.991,0-1.682,0.381-2.071,1.142c-0.39,0.761-0.584,2.117-0.584,4.066v5.486c0,2.529,0.186,4.197,0.559,5.003
		c0.373,0.804,1.138,1.206,2.296,1.206c0.457,0,1.191-0.119,2.205-0.361v-5.338H8.498v-3.45h7.048V27.3
		c-2.55,0.604-5.027,0.909-7.432,0.922H8.131z"/>
	<path fill="#FFFFFF" d="M18.039,9.975h1.933h1.95v2.295c0.146-0.325,0.304-0.62,0.471-0.885c0.724-1.06,1.949-1.65,3.678-1.771
		v3.975c-0.262-0.06-0.556-0.084-0.88-0.072c-1.174,0-1.991,0.332-2.452,0.994c-0.461,0.663-0.67,1.807-0.628,3.433v9.775h-2.027
		h-2.044V9.975z"/>
	<path fill="#FFFFFF" d="M31.222,22.129c0,0.875,0.12,1.506,0.36,1.896c0.24,0.39,0.627,0.585,1.162,0.585
		c0.721,0,1.221-0.302,1.498-0.904c0.279-0.603,0.396-1.64,0.352-3.116V9.946h2.112h2.128v17.391h-1.981h-1.998v-1.719
		c-1.124,1.382-2.423,2.078-3.896,2.09c-1.332,0-2.328-0.42-2.988-1.258c-0.661-0.838-0.991-2.096-0.991-3.771V9.946h2.112h2.129
		V22.129z"/>
	<path fill="#FFFFFF" d="M40.593,9.983h2.162h2.179v1.473L45,11.368c0.827-1.168,2.072-1.753,3.737-1.753
		c1.318,0,2.305,0.45,2.958,1.35c0.654,0.9,0.98,2.25,0.98,4.05v6.102c0,2.36-0.301,4.026-0.905,4.996
		c-0.603,0.97-1.648,1.454-3.134,1.454c-1.608,0.011-2.843-0.542-3.703-1.664V34h-2.162h-2.179V9.983z M46.659,24.479
		c0.714,0,1.187-0.265,1.416-0.797c0.229-0.532,0.344-1.627,0.344-3.287v-4.312c0-1.263-0.128-2.142-0.385-2.639
		s-0.71-0.746-1.357-0.746c-0.615,0-1.059,0.304-1.333,0.913c-0.274,0.608-0.411,1.601-0.411,2.979v3.998
		c0.022,1.578,0.145,2.62,0.369,3.129S45.978,24.479,46.659,24.479z"/>
	<path fill="#FFFFFF" d="M55.42,26.163c-0.966-1.036-1.45-2.722-1.45-5.053v-4.876c0-2.332,0.483-4.016,1.45-5.052
		c0.965-1.036,2.541-1.555,4.725-1.555s3.761,0.519,4.733,1.555c0.972,1.037,1.458,2.72,1.458,5.052v4.876
		c0,2.331-0.487,4.017-1.458,5.053s-2.549,1.555-4.733,1.555S56.385,27.199,55.42,26.163z M61.577,24.148
		c0.234-0.553,0.351-1.689,0.351-3.41v-4.875c0-1.284-0.134-2.188-0.403-2.712s-0.729-0.786-1.38-0.786
		c-0.652,0-1.109,0.262-1.372,0.786s-0.394,1.428-0.394,2.712v4.875c0,1.721,0.113,2.857,0.342,3.41
		c0.229,0.555,0.703,0.831,1.424,0.831S61.342,24.703,61.577,24.148z"/>
	<path fill="#FFFFFF" d="M74.769,4.352h2.446h4.824c2.605,0,4.462,0.53,5.572,1.59c1.109,1.06,1.665,2.832,1.665,5.315
		c0,2.815-0.561,4.711-1.682,5.689c-1.121,0.976-3.296,1.464-6.523,1.464h-1.394v9.308h-2.445h-2.464V4.352z M79.678,14.9h1.394
		c1.313,0,2.19-0.238,2.633-0.712c0.442-0.474,0.662-1.429,0.662-2.865c0-1.335-0.229-2.246-0.688-2.732
		c-0.459-0.486-1.328-0.729-2.607-0.729h-1.394V14.9z"/>
	<path fill="#FFFFFF" d="M121.441,27.869c-1.264,0-2.256-0.41-2.973-1.229c-0.716-0.82-1.075-1.956-1.075-3.406v-1.069
		c0-2.079,0.486-3.544,1.456-4.394c0.971-0.85,2.648-1.274,5.029-1.274h1.338v-2.139c0-0.654-0.117-1.146-0.348-1.48
		c-0.23-0.333-0.578-0.499-1.041-0.499c-0.575,0-0.999,0.179-1.271,0.535c-0.271,0.356-0.39,0.891-0.354,1.604v0.517h-4.388v-0.517
		c-0.021-1.699,0.439-2.941,1.381-3.726c0.942-0.785,2.447-1.177,4.515-1.177c1.996,0,3.478,0.437,4.445,1.31
		c0.965,0.874,1.446,2.226,1.446,4.056v12.514h-4.251v-1.443l-0.187,0.229C124.343,27.34,123.102,27.869,121.441,27.869z
		 M125.217,19.223h-0.576c-1.039,0-1.772,0.231-2.202,0.695c-0.428,0.464-0.643,1.267-0.643,2.406v1.07
		c0,0.547,0.137,0.974,0.407,1.282c0.27,0.31,0.643,0.465,1.117,0.465c0.632,0,1.106-0.295,1.422-0.883
		c0.316-0.589,0.475-1.465,0.475-2.629V19.223z"/>
	<path fill="#FFFFFF" d="M94.258,27.929c-1.265,0-2.255-0.408-2.973-1.229c-0.717-0.817-1.075-1.949-1.075-3.396v-1.067
		c0-2.073,0.486-3.535,1.458-4.382c0.97-0.848,2.646-1.272,5.027-1.272h1.339v-2.134c0-0.652-0.115-1.145-0.347-1.476
		c-0.233-0.332-0.579-0.498-1.043-0.498c-0.575,0-0.997,0.178-1.27,0.534c-0.271,0.356-0.391,0.889-0.356,1.6v0.516h-4.384v-0.516
		c-0.022-1.695,0.436-2.934,1.381-3.717c0.94-0.783,2.444-1.174,4.512-1.174c1.998,0,3.48,0.436,4.444,1.307
		c0.966,0.873,1.447,2.22,1.447,4.046v12.484H98.17v-1.44l-0.186,0.232C97.16,27.4,95.917,27.929,94.258,27.929z M98.034,19.303
		h-0.575c-1.039,0-1.772,0.231-2.201,0.693c-0.431,0.464-0.645,1.264-0.645,2.401v1.066c0,0.546,0.136,0.973,0.405,1.281
		c0.272,0.307,0.646,0.462,1.118,0.462c0.634,0,1.105-0.293,1.424-0.881c0.315-0.587,0.474-1.461,0.474-2.623V19.303z"/>
	<path fill="#FFFFFF" d="M104.222,9.994h2.109h2.126v1.661c0.915-1.36,2.229-2.041,3.939-2.041c1.212,0,2.115,0.388,2.715,1.164
		c0.6,0.777,0.9,1.948,0.9,3.512v13.433h-2.11h-2.126V14.832c0-0.723-0.116-1.246-0.351-1.571c-0.235-0.325-0.612-0.487-1.136-0.487
		c-0.709,0-1.203,0.307-1.48,0.921c-0.28,0.614-0.396,1.673-0.352,3.177v10.851h-2.11h-2.125V9.994z"/>
	<rect x="1.558" y="30.367" fill="#FFFFFF" width="36.165" height="2.225"/>
	<rect x="47.657" y="30.367" fill="#FFFFFF" width="82.343" height="2.225"/>
</g>
</svg>
