<?xml version="1.0" encoding="UTF-8" standalone="no"?>
<svg
   xmlns:dc="http://purl.org/dc/elements/1.1/"
   xmlns:cc="http://creativecommons.org/ns#"
   xmlns:rdf="http://www.w3.org/1999/02/22-rdf-syntax-ns#"
   xmlns:svg="http://www.w3.org/2000/svg"
   xmlns="http://www.w3.org/2000/svg"
   viewBox="0 0 517.1875 322.61624"
   height="322.61624"
   width="517.1875"
   xml:space="preserve"
   version="1.1"
   id="svg2"><metadata
     id="metadata8"><rdf:RDF><cc:Work
         rdf:about=""><dc:format>image/svg+xml</dc:format><dc:type
           rdf:resource="http://purl.org/dc/dcmitype/StillImage" /></cc:Work></rdf:RDF></metadata><defs
     id="defs6"><clipPath
       id="clipPath16"
       clipPathUnits="userSpaceOnUse"><path
         id="path18"
         d="m 0,258.093 413.75,0 L 413.75,0 0,0 0,258.093 Z" /></clipPath></defs><g
     transform="matrix(1.25,0,0,-1.25,0,322.61625)"
     id="g10"><g
       id="g12"><g
         clip-path="url(#clipPath16)"
         id="g14"><g
           transform="translate(48.7134,230.4482)"
           id="g20"><path
             id="path22"
             style="fill:#2e2e2e;fill-opacity:1;fill-rule:nonzero;stroke:none"
             d="m 0,0 c 0.884,15.519 -8.167,24.047 -22.733,24.047 -24.304,0 -25.188,-19.012 -25.188,-37.716 0,-28.158 2.853,-38.95 27.845,-38.95 5.903,0 16.042,1.645 20.076,2.467 l 0,37.615 -22.93,0 0,-11.409 8.072,0 0,-16.443 c -2.267,-0.822 -4.921,-1.438 -7.382,-1.438 -8.462,0 -10.625,4.109 -10.625,27.337 0,14.387 0,27.437 9.25,27.437 7.87,0 8.954,-6.061 8.853,-12.947 L 0,0 Z" /></g><g
           transform="translate(68.4473,229.2314)"
           id="g24"><path
             id="path26"
             style="fill:#2e2e2e;fill-opacity:1;fill-rule:nonzero;stroke:none"
             d="m 0,0 -0.198,0 0,7.203 -13.185,0 0,-55.961 13.875,0 0,30.474 c 0,5.543 0.195,13.52 12.396,12.634 l 0,13.962 C 7.28,8.312 2.557,6.428 0,0" /></g><g
           transform="translate(122.0645,180.249)"
           id="g28"><path
             id="path30"
             style="fill:#2e2e2e;fill-opacity:1;fill-rule:nonzero;stroke:none"
             d="m 0,0 c -0.294,3.661 -0.492,7.432 -0.492,11.093 l 0,44.914 -13.873,0 0,-38.818 c 0,-4.988 -0.788,-8.647 -5.216,-8.647 -4.426,0 -5.212,3.659 -5.212,8.647 l 0,38.818 -13.878,0 0,-44.914 c 0,-7.766 5.807,-12.2 12.4,-12.2 5.216,0 8.954,1.773 11.71,6.764 l 0.196,0 0,-5.657 L 0,0 Z" /></g><g
           transform="translate(152.8066,208.79)"
           id="g32"><path
             id="path34"
             style="fill:#2e2e2e;fill-opacity:1;fill-rule:nonzero;stroke:none"
             d="m 0,0 c 0,-13.979 -0.889,-19.814 -5.906,-19.814 -4.723,0 -5.61,5.835 -5.61,19.814 0,11.117 -0.098,18.823 5.61,18.823 C 0.095,18.823 0,11.117 0,0 m -0.298,28.399 c -5.311,0 -9.151,-1.872 -11.71,-7.264 l -0.196,0 0,6.163 -13.185,0 0,-76.607 13.873,0 0,26.301 0.2,0 c 2.853,-4.733 6.295,-6.387 11.316,-6.387 13.969,0 13.575,17.284 13.575,28.512 0,11.449 0.492,29.282 -13.873,29.282" /></g><g
           transform="translate(190.085,188.709)"
           id="g36"><path
             id="path38"
             style="fill:#2e2e2e;fill-opacity:1;fill-rule:nonzero;stroke:none"
             d="m 0,0 c -5.182,0 -6.479,3.654 -6.479,20.707 0,11.628 0.499,17.496 6.479,17.496 5.982,0 6.482,-5.868 6.482,-17.496 C 6.482,3.654 5.185,0 0,0 m 0,48.169 c -18.543,0 -20.537,-13.066 -20.537,-28.346 0,-17.498 2.394,-29.789 20.537,-29.789 18.144,0 20.537,12.291 20.537,29.789 0,15.28 -1.993,28.346 -20.537,28.346" /></g><g
           transform="translate(260.5044,219.3994)"
           id="g40"><path
             id="path42"
             style="fill:#2e2e2e;fill-opacity:1;fill-rule:nonzero;stroke:none"
             d="m 0,0 -8.412,0 0,23.092 7.614,0 C 6.008,23.092 7.61,17.488 7.61,10.873 7.61,5.494 4.507,0 0,0 m 3.706,35.534 -27.235,0 0,-74.509 15.117,0 0,26.532 11.217,0 c 17.725,0 20.128,14.573 20.128,23.764 0,14.797 -5.408,24.213 -19.227,24.213" /></g><g
           transform="translate(304.6289,188.9844)"
           id="g44"><path
             id="path46"
             style="fill:#2e2e2e;fill-opacity:1;fill-rule:nonzero;stroke:none"
             d="m 0,0 c -4.622,0 -5.227,4.863 -5.227,8.841 0,9.944 5.227,9.281 12.266,9.612 C 7.039,12.377 8.345,0 0,0 m 20.911,1.88 0,27.845 c 0,10.164 -2.312,18.672 -20.306,18.672 -5.429,0 -10.054,-0.994 -13.272,-3.645 -3.32,-2.542 -5.227,-6.851 -5.227,-13.592 l 13.874,0 c 0,4.42 0.4,8.509 5.327,8.509 5.128,0 5.732,-3.427 5.732,-8.177 l 0,-4.308 C -6.134,27.402 -19.099,26.63 -19.099,8.178 c 0,-9.723 3.618,-17.79 13.469,-17.79 6.132,0 10.257,2.763 13.272,8.508 l 0.202,0 0.602,-7.402 13.171,0 c -0.303,3.425 -0.706,6.961 -0.706,10.386" /></g><g
           transform="translate(356.7207,237.5361)"
           id="g48"><path
             id="path50"
             style="fill:#2e2e2e;fill-opacity:1;fill-rule:nonzero;stroke:none"
             d="m 0,0 c -2.604,0 -4.906,-0.445 -6.908,-1.553 -1.906,-0.998 -3.607,-2.66 -5.01,-5.208 l -0.2,0 0,5.652 -14.117,0 0,-55.981 14.117,0 0,38.579 c 0,4.987 0.802,8.866 5.307,8.866 4.505,0 5.308,-3.879 5.308,-8.866 l 0,-38.579 14.12,0 0,44.897 C 12.617,-4.434 6.708,0 0,0" /></g><g
           transform="translate(391.5068,189.0244)"
           id="g52"><path
             id="path54"
             style="fill:#2e2e2e;fill-opacity:1;fill-rule:nonzero;stroke:none"
             d="M 0,0 C -4.622,0 -5.228,4.861 -5.228,8.836 -5.228,18.783 0,18.12 7.039,18.451 7.039,12.373 8.344,0 0,0 m 20.913,1.877 0,27.846 c 0,10.165 -2.311,18.672 -20.307,18.672 -5.43,0 -10.055,-0.996 -13.271,-3.647 -3.32,-2.54 -5.228,-6.85 -5.228,-13.59 l 13.872,0 c 0,4.42 0.401,8.509 5.329,8.509 5.127,0 5.731,-3.425 5.731,-8.177 l 0,-4.309 c -13.169,0.221 -26.14,-0.554 -26.14,-19.005 0,-9.724 3.62,-17.789 13.471,-17.789 6.132,0 10.256,2.761 13.271,8.506 l 0.203,0 0.601,-7.402 13.173,0 c -0.305,3.424 -0.705,6.961 -0.705,10.386" /></g><path
           id="path56"
           style="fill:#e24444;fill-opacity:1;fill-rule:nonzero;stroke:none"
           d="m 119.562,163.897 -118.937,0 0,5.893 118.937,0 0,-5.893 z" /><path
           id="path58"
           style="fill:#e24444;fill-opacity:1;fill-rule:nonzero;stroke:none"
           d="m 413.125,163.897 -265.023,0 0,5.893 265.023,0 0,-5.893 z" /><g
           transform="translate(62.7227,100.0654)"
           id="g60"><path
             id="path62"
             style="fill:#e24444;fill-opacity:1;fill-rule:evenodd;stroke:none"
             d="M 0,0 C 3.91,0 7.099,8.134 7.269,18.339 L 7.288,18.331 C 4.933,18.112 2.495,18 0,18 c -2.497,0 -4.933,0.112 -7.288,0.331 l 0.019,0.008 C -7.098,8.134 -3.91,0 0,0 m 0,26.09 c 2.326,0 4.588,0.098 6.751,0.288 L 6.749,26.376 C 5.67,33.42 3.057,38.392 0,38.392 c -3.057,0 -5.67,-4.972 -6.749,-12.016 l -0.003,0.002 C -4.588,26.188 -2.326,26.09 0,26.09 M 3.143,-9.854 c 21.8,1.134 38.993,13.963 38.993,29.623 0,5.318 -1.989,10.313 -5.463,14.632 l -0.041,0.084 C 36.368,27.254 26.105,21.138 11.902,18.904 l 0.005,0.008 c 0.01,-0.475 0.015,-0.95 0.015,-1.432 0,-13.114 -3.764,-24.152 -8.869,-27.352 l 0.09,0.018 z M 0,45.771 c 5.191,0 9.608,-7.877 11.244,-18.867 l 0.007,0.018 c 10.103,1.573 17.175,5.2 17.175,9.421 0,5.664 -12.728,10.252 -28.426,10.252 -15.698,0 -28.426,-4.588 -28.426,-10.252 0,-4.221 7.072,-7.848 17.175,-9.421 l 0.007,-0.018 C -9.609,37.894 -5.19,45.771 0,45.771 M -48.7,18.625 c 0,17.52 21.803,31.726 48.7,31.726 26.896,0 48.7,-14.206 48.7,-31.726 0,-17.52 -21.804,-31.727 -48.7,-31.727 -26.897,0 -48.7,14.207 -48.7,31.727 M -3.052,-9.872 c -5.107,3.2 -8.87,14.238 -8.87,27.352 0,0.482 0.005,0.957 0.016,1.432 l 0.005,-0.008 c -14.204,2.234 -24.47,8.35 -24.731,15.581 l -0.041,-0.084 c -3.476,-4.319 -5.461,-9.314 -5.461,-14.632 0,-15.66 17.188,-28.489 38.992,-29.623 l 0.09,-0.018 z" /></g><g
           transform="translate(286.772,103.334)"
           id="g64"><path
             id="path66"
             style="fill:#e24444;fill-opacity:1;fill-rule:evenodd;stroke:none"
             d="m 0,0 c 7.477,0 13.542,6.876 13.542,15.356 0,8.481 -6.065,15.357 -13.542,15.357 -7.478,0 -13.539,-6.876 -13.539,-15.357 C -13.539,6.876 -7.478,0 0,0 m -24.248,15.356 c 0,13.391 10.855,24.248 24.248,24.248 13.395,0 24.251,-10.857 24.251,-24.248 C 24.251,1.964 13.395,-8.892 0,-8.892 c -13.393,0 -24.248,10.856 -24.248,24.248" /></g><g
           transform="translate(338.5352,132.835)"
           id="g68"><path
             id="path70"
             style="fill:#e24444;fill-opacity:1;fill-rule:evenodd;stroke:none"
             d="m 0,0 0,-37.291 -10.213,0 0,37.291 0.031,0 -14.288,0 0,8.432 38.723,0 L 14.253,0 0.037,0 0,0 Z" /></g><g
           transform="translate(374.5068,113.5488)"
           id="g72"><path
             id="path74"
             style="fill:#d23833;fill-opacity:1;fill-rule:evenodd;stroke:none"
             d="m 0,0 6.432,0 -0.006,-0.003 -6.382,16.734 -0.086,0 L -6.424,-0.003 -6.43,0 0,0 Z m -9.36,-7.718 -0.008,-0.01 -3.92,-10.277 -11.934,0 18.864,45.723 6.358,0 6.359,0 18.862,-45.723 -11.933,0 -3.918,10.277 -0.012,0.01 -9.358,0 -9.36,0 z" /></g><g
           transform="translate(150.207,132.835)"
           id="g76"><path
             id="path78"
             style="fill:#e24444;fill-opacity:1;fill-rule:evenodd;stroke:none"
             d="m 0,0 0,-37.291 -10.218,0 0,37.291 0.035,0 -14.287,0 0,8.432 38.722,0 L 14.252,0 0.037,0 0,0 Z" /></g><g
           transform="translate(191.3242,103.334)"
           id="g80"><path
             id="path82"
             style="fill:#e24444;fill-opacity:1;fill-rule:evenodd;stroke:none"
             d="m 0,0 c 7.475,0 13.538,6.876 13.538,15.356 0,8.481 -6.063,15.357 -13.538,15.357 -7.477,0 -13.542,-6.876 -13.542,-15.357 C -13.542,6.876 -7.477,0 0,0 m -24.251,15.356 c 0,13.391 10.857,24.248 24.251,24.248 13.391,0 24.249,-10.857 24.249,-24.248 C 24.249,1.964 13.391,-8.892 0,-8.892 c -13.394,0 -24.251,10.856 -24.251,24.248" /></g><g
           transform="translate(239.0449,95.5439)"
           id="g84"><path
             id="path86"
             style="fill:#e24444;fill-opacity:1;fill-rule:evenodd;stroke:none"
             d="m 0,0 5.182,0 0,17.146 0,0.216 17.824,28.361 -11.93,0 L 0,26.503 l -11.069,19.22 -11.932,0 17.825,-28.361 0,-0.216 L -5.176,0 0,0 Z" /></g><g
           transform="translate(110.2905,33.8066)"
           id="g88"><path
             id="path90"
             style="fill:#e24444;fill-opacity:1;fill-rule:evenodd;stroke:none"
             d="m 0,0 0,-0.124 -0.373,0.373 c -0.498,5.971 -2.738,11.446 -7.341,15.677 -0.123,0 -0.498,0.123 -0.498,-0.249 C -5.101,11.072 -2.86,5.971 -3.111,0 c -0.745,-13.562 -14.928,-23.267 -26.623,-26.751 -2.49,-0.621 -5.101,-1.491 -7.838,-1.615 2.363,0.869 4.727,1.368 7.091,2.362 9.704,3.111 21.15,10.452 24.137,21.275 0.249,1.246 0.498,2.863 -0.498,3.859 -1.742,1.865 -4.355,1.865 -6.967,1.865 l -19.783,0 -23.514,-0.374 -19.16,-0.123 c -3.733,-0.747 -9.331,0.994 -11.321,-3.235 -0.374,-5.226 2.862,-9.082 6.095,-12.94 7.216,-7.216 16.298,-10.327 25.505,-12.814 l -0.249,-0.249 c -14.182,2.24 -30.73,10.078 -34.213,25.506 -1.243,6.593 0.87,12.814 4.477,17.915 0,0.124 -0.123,0.249 -0.247,0.372 -1.243,-0.496 -1.989,-1.865 -2.862,-2.862 -2.487,-4.105 -4.354,-8.459 -4.603,-13.311 l -0.249,0 c -0.995,10.825 7.342,19.657 16.05,25.007 6.47,3.857 13.561,6.468 21.275,6.843 0.125,0 0.125,-0.124 0.125,-0.124 -6.222,-1.743 -12.195,-3.732 -17.668,-7.215 -6.346,-3.733 -12.192,-10.078 -13.685,-17.171 0,-0.994 0.249,-1.866 0.994,-2.488 2.24,-1.866 5.599,-1.617 8.461,-1.743 l 13.81,-0.123 38.942,0.372 c 5.226,0.251 10.699,0.251 15.8,0.996 1.37,0.374 3.111,1.245 3.485,2.863 0.124,3.357 -1.868,6.094 -3.485,8.708 -7.216,9.581 -17.667,13.437 -28.242,15.925 -0.124,0.373 0.125,0.125 0.249,0.249 9.207,-0.373 17.294,-3.484 24.635,-8.459 C -5.473,17.17 0.622,9.331 0,0 m -73.155,4.479 12.193,-0.498 26.874,0.249 c 6.345,0.373 13.187,0.249 19.158,2.115 0.623,0.373 1.494,1.12 2.241,0.373 0.496,-0.249 0.994,-0.621 1.492,-0.996 -0.373,-0.746 -1.369,-0.621 -2.116,-0.87 L -21.897,3.981 -39.065,3.608 -63.824,3.359 c -5.848,0 -11.447,0.124 -17.17,0.745 -0.622,0.25 -1.492,0.126 -1.741,0.872 0.621,0.499 1.492,1.121 2.364,1.244 2.115,-1.244 4.728,-1.368 7.216,-1.741 m 71.041,9.953 c -8.211,11.197 -20.279,16.547 -33.219,18.164 -2.364,0.126 -5.475,0.747 -6.967,-1.368 -0.374,-0.748 0.249,-1.493 0.87,-1.992 7.714,-2.362 15.303,-4.975 21.523,-10.699 2.24,-2.737 4.852,-5.599 3.733,-9.206 -2.363,-3.609 -7.091,-2.738 -11.073,-3.36 L -49.641,5.35 -71.538,5.722 c -2.364,0.249 -4.852,0.747 -6.345,2.737 -0.996,1.991 0,4.231 0.87,5.849 5.724,8.46 15.055,11.819 23.763,14.681 0.624,0.372 1.245,1.119 0.996,1.866 -0.496,1.369 -1.99,1.741 -3.358,1.741 -7.589,-0.372 -14.432,-2.365 -20.778,-5.597 -10.452,-5.475 -21.028,-15.927 -19.658,-28.742 2.613,-15.924 19.407,-25.629 33.716,-28.24 3.236,-0.249 7.092,-1.495 10.078,0.247 0.374,0.374 0.747,0.996 0.498,1.619 -0.249,0.496 -0.747,0.87 -1.245,1.119 -7.465,2.239 -14.679,4.977 -20.776,10.451 -2.364,2.612 -4.728,5.35 -4.106,8.958 0.372,0.994 1.242,1.864 2.114,2.362 4.48,1.618 9.705,1.121 14.556,1.495 l 17.794,0.498 15.302,-0.249 c 4.23,-0.623 9.58,0.87 12.068,-3.112 0.872,-1.989 -0.125,-4.105 -1.119,-5.847 -5.723,-8.335 -14.807,-11.57 -23.391,-14.432 -0.871,-0.249 -1.368,-1.119 -1.245,-1.99 1.617,-2.614 5.475,-1.244 8.088,-1.119 14.058,2.113 29.113,10.201 34.835,24.509 2.49,6.593 0.873,14.556 -3.233,19.906" /></g><g
           transform="translate(348.1963,31.332)"
           id="g92"><path
             id="path94"
             style="fill:#2e2e2e;fill-opacity:1;fill-rule:evenodd;stroke:none"
             d="m 0,0 c 0,-4.433 -3.249,-7.241 -7.239,-7.241 l -13.593,0 c -4.136,0 -7.387,2.808 -7.387,7.241 l 0,4.284 c 0,4.432 3.251,7.239 7.387,7.239 l 13.593,0 C -3.249,11.523 0,8.716 0,4.284 L 0,0 Z m 0.886,20.684 -29.993,0 c -8.866,0 -16.103,-5.616 -16.103,-14.333 l 0,-8.422 c 0,-8.863 7.237,-14.329 16.103,-14.329 l 29.993,0 c 8.865,0 16.106,5.466 16.106,14.329 l 0,8.422 c 0,8.717 -7.241,14.333 -16.106,14.333 m -59.985,-0.885 -16.252,0 c -0.442,0 -0.887,-0.298 -0.887,-0.74 l 0,-10.492 c -1.477,-1.625 -5.022,0.298 -5.022,0.298 0,0 -3.4,2.214 -11.231,6.501 -6.795,3.987 -8.864,4.433 -9.307,4.433 l -16.252,0 c -0.444,0 -0.887,-0.298 -0.887,-0.74 l 0,-32.209 c 0,-0.443 0.443,-0.741 0.887,-0.741 l 16.252,0 c 0.443,0 0.888,0.298 0.888,0.741 l 0,13.592 c 2.067,2.808 5.021,1.33 5.021,1.33 0,0 3.547,-1.772 11.082,-6.503 6.499,-4.135 8.125,-5.613 8.569,-7.091 l 0,-1.328 c 0,-0.443 0.445,-0.741 0.887,-0.741 l 16.252,0 c 0.443,0 0.74,0.298 0.74,0.741 l 0,32.209 c 0,0.442 -0.297,0.74 -0.74,0.74 m -108.448,0 -16.4,0 c -0.443,0 -0.737,-0.298 -0.737,-0.74 l 0,-6.207 c 0,-1.773 -1.481,-3.25 -3.252,-3.25 l -16.399,0 c -1.773,0 -3.25,1.477 -3.25,3.25 l 0,6.207 c 0,0.442 -0.296,0.74 -0.739,0.74 l -16.254,0 c -0.443,0 -0.885,-0.298 -0.885,-0.74 l 0,-32.209 c 0,-0.443 0.442,-0.741 0.885,-0.741 l 16.254,0 c 0.443,0 0.739,0.298 0.739,0.741 l 0,7.386 c 0,1.773 1.477,3.249 3.25,3.249 l 16.399,0 c 1.771,0 3.252,-1.476 3.252,-3.249 l 0,-7.386 c 0,-0.443 0.294,-0.741 0.737,-0.741 l 16.4,0 c 0.444,0 0.74,0.298 0.74,0.741 l 0,32.209 c 0,0.442 -0.296,0.74 -0.74,0.74 m 33.54,-32.949 c 0,-0.443 -0.296,-0.741 -0.74,-0.741 l -16.252,0 c -0.442,0 -0.887,0.298 -0.887,0.741 l 0,32.209 c 0,0.442 0.445,0.74 0.887,0.74 l 16.252,0 c 0.444,0 0.74,-0.298 0.74,-0.74 l 0,-32.209 z" /></g></g></g></g></svg>