<?xml version="1.0" encoding="UTF-8" standalone="no"?>
<svg
   xmlns:dc="http://purl.org/dc/elements/1.1/"
   xmlns:cc="http://creativecommons.org/ns#"
   xmlns:rdf="http://www.w3.org/1999/02/22-rdf-syntax-ns#"
   xmlns:svg="http://www.w3.org/2000/svg"
   xmlns="http://www.w3.org/2000/svg"
   viewBox="0 0 766.66669 120"
   height="120"
   width="766.66669"
   xml:space="preserve"
   id="svg2"
   version="1.1"><metadata
     id="metadata8"><rdf:RDF><cc:Work
         rdf:about=""><dc:format>image/svg+xml</dc:format><dc:type
           rdf:resource="http://purl.org/dc/dcmitype/StillImage" /></cc:Work></rdf:RDF></metadata><defs
     id="defs6"><clipPath
       id="clipPath18"
       clipPathUnits="userSpaceOnUse"><path
         id="path16"
         d="M 0,90 H 575 V 0 H 0 Z" /></clipPath></defs><g
     transform="matrix(1.3333333,0,0,-1.3333333,0,120)"
     id="g10"><g
       id="g12"><g
         clip-path="url(#clipPath18)"
         id="g14"><g
           transform="translate(184.7305,43.6289)"
           id="g20"><path
             id="path22"
             style="fill:#da413a;fill-opacity:1;fill-rule:evenodd;stroke:none"
             d="m 0,0 6.678,-0.741 c 2.968,-0.371 3.34,-2.599 3.34,-4.453 v -7.79 h -30.795 v 7.79 c 0,1.854 0.371,4.082 3.34,4.453 L -10.759,0 v 6.678 h -40.07 V 0 l 6.678,-0.741 c 2.969,-0.371 3.34,-2.599 3.34,-4.453 v -25.601 c 0,-1.854 -0.371,-4.08 -3.34,-4.45 l -6.678,-0.744 v -7.048 h 40.07 v 7.048 l -6.678,0.744 c -2.969,0.37 -3.34,2.596 -3.34,4.45 v 7.792 h 30.795 v -7.792 c 0,-1.854 -0.372,-4.08 -3.34,-4.45 L 0,-35.989 v -7.048 h 39.698 v 7.048 l -6.678,0.744 c -2.969,0.37 -2.969,2.596 -2.969,4.45 v 25.601 c 0,1.854 0,4.082 2.969,4.453 L 39.698,0 V 6.678 H 0 Z" /></g><g
           transform="translate(447.0361,10.2383)"
           id="g24"><path
             id="path26"
             style="fill:#da413a;fill-opacity:1;fill-rule:evenodd;stroke:none"
             d="M 0,0 H -16.695 V 30.793 H 0 c 9.645,0 12.984,-4.822 12.984,-15.581 C 12.984,4.823 9.645,0 0,0 m 3.709,40.068 h -49.344 v -6.677 l 5.937,-0.371 c 1.854,-0.371 3.338,-1.484 3.338,-4.082 V 2.596 c 0,-1.855 -0.371,-4.08 -3.338,-4.45 l -6.68,-0.745 V -9.646 H 3.709 c 17.81,0 32.278,7.418 32.278,24.858 0,17.808 -14.468,24.856 -32.278,24.856" /></g><g
           transform="translate(510.8496,24.7061)"
           id="g28"><path
             id="path30"
             style="fill:#da413a;fill-opacity:1;fill-rule:evenodd;stroke:none"
             d="M 0,0 9.646,15.212 19.664,0 Z m 56.022,-16.695 c -3.337,0.373 -4.081,2.598 -5.194,4.082 L 27.825,22.634 c -1.483,2.225 -2.596,2.967 -5.193,2.967 h -37.844 v -6.678 l 9.275,-1.112 c 1.113,0 2.969,-1.857 1.484,-4.082 L -21.52,-13.727 c -0.741,-1.112 -1.483,-2.595 -3.337,-2.595 l -7.05,-0.744 v -7.048 H 0 v 7.048 l -5.194,0.371 c -2.597,0.373 -3.709,1.856 -2.597,3.711 l 2.597,4.081 h 30.423 l 2.226,-3.339 c 2.225,-2.968 -0.371,-4.08 -2.597,-4.453 l -5.565,-0.371 v -7.048 h 43.036 v 7.048 z" /></g><g
           transform="translate(365.7832,43.6289)"
           id="g32"><path
             id="path34"
             style="fill:#da413a;fill-opacity:1;fill-rule:evenodd;stroke:none"
             d="m 0,0 6.678,-0.741 c 2.969,-0.371 3.34,-2.599 3.34,-4.453 V -30.053 L -16.324,4.824 c -1.113,1.483 -2.226,1.854 -5.195,1.854 H -55.651 V 0 l 6.677,-0.741 c 2.969,-0.371 3.34,-2.599 3.34,-4.453 v -25.601 c 0,-1.854 -0.371,-4.08 -3.34,-4.45 l -6.677,-0.744 v -7.048 h 31.907 v 7.048 l -6.678,0.744 c -2.969,0.37 -3.34,2.596 -3.34,4.45 v 24.858 l 26.343,-34.874 c 1.112,-1.485 2.225,-2.226 5.194,-2.226 h 24.116 v 37.843 c 0,1.854 0.371,4.082 3.338,4.453 L 31.908,0 V 6.678 H 0 Z" /></g><g
           transform="translate(267.0957,8.3838)"
           id="g36"><path
             id="path38"
             style="fill:#da413a;fill-opacity:1;fill-rule:evenodd;stroke:none"
             d="m 0,0 c -12.245,0 -17.439,5.564 -17.439,17.066 0,11.872 5.194,17.067 17.439,17.067 12.614,0 17.808,-5.195 17.808,-17.067 C 17.808,5.564 12.614,0 0,0 m 0,43.778 c -32.279,0 -40.442,-14.098 -40.442,-26.712 0,-12.245 8.163,-26.342 40.442,-26.342 32.647,0 40.811,14.097 40.811,26.342 0,12.614 -8.164,26.712 -40.811,26.712" /></g><g
           transform="translate(37.439,0.5918)"
           id="g40"><path
             id="path42"
             style="fill:#da413a;fill-opacity:1;fill-rule:evenodd;stroke:none"
             d="M 0,0 -7.421,6.677 28.939,11.13 46.747,0 Z" /></g><g
           transform="translate(98.6563,29.1592)"
           id="g44"><path
             id="path46"
             style="fill:#da413a;fill-opacity:1;fill-rule:evenodd;stroke:none"
             d="m 0,0 -76.8,-14.098 6.678,-6.307 35.617,4.451 c -0.743,0.371 -0.743,0.743 -0.743,1.114 0,0.371 0.372,0.742 0.743,0.742 0.37,0 19.664,2.967 21.148,3.338 0.37,0 2.227,0.371 3.71,1.114 1.855,0.743 2.597,1.484 3.338,2.226 0.372,0.371 2.227,1.855 2.969,2.967 0.742,0.744 1.484,1.485 1.855,1.856 C -1.114,-1.854 0,-0.742 0.371,-0.371 0.371,0 0.371,0 0,0" /></g><g
           transform="translate(110.5283,46.2256)"
           id="g48"><path
             id="path50"
             style="fill:#da413a;fill-opacity:1;fill-rule:evenodd;stroke:none"
             d="m 0,0 -95.721,-24.857 5.936,-5.195 29.31,5.566 c -0.371,0.371 -0.742,0.371 -0.742,1.112 0,0.371 0.371,0.742 0.742,0.742 l 48.23,9.276 c 0.373,0.371 2.227,0.742 3.711,1.855 1.484,0.741 2.598,1.855 2.969,2.227 0.742,0.741 1.855,2.225 2.596,3.337 0.742,0.743 1.113,1.857 1.484,2.228 C -1.114,-2.968 0,-1.484 0.371,-0.371 0.742,-0.371 0.371,0 0,0" /></g><g
           transform="translate(97.9131,74.0513)"
           id="g52"><path
             id="path54"
             style="fill:#da413a;fill-opacity:1;fill-rule:evenodd;stroke:none"
             d="m 0,0 c 1.485,0.371 7.792,2.969 9.275,3.711 1.484,0.741 5.566,2.596 7.05,3.34 1.856,0.741 6.679,2.967 7.421,3.338 3.709,1.856 8.161,4.081 8.903,4.452 0.371,0 0.742,0 0.371,-0.371 C 32.649,12.616 31.907,10.389 30.424,7.421 30.053,5.936 28.94,3.711 28.196,2.227 27.084,0.742 25.971,-0.371 25.229,-1.113 23.375,-2.967 21.89,-3.709 20.406,-4.451 c -1.113,-0.372 -2.968,-1.114 -4.081,-1.485 -0.372,0 -5.937,-2.226 -7.05,-2.596 l -94.237,-33.391 c -2.225,-0.743 -4.823,-2.228 -4.823,-4.824 0,-1.484 0.743,-2.968 2.227,-4.453 l 23.744,-22.259 h -11.13 c 0,0.741 -0.371,1.853 -0.742,2.226 -0.371,0.741 -0.742,1.483 -1.855,2.597 -1.114,1.112 -1.855,1.853 -2.227,2.224 l -12.613,12.617 c -2.226,2.225 -3.711,5.194 -3.711,8.161 0,3.711 2.227,7.42 8.534,9.646 z" /></g><g
           transform="translate(108.3013,61.0664)"
           id="g56"><path
             id="path58"
             style="fill:#da413a;fill-opacity:1;fill-rule:evenodd;stroke:none"
             d="m 0,0 c 1.485,0.742 3.711,1.484 4.453,1.484 0.741,0.37 2.968,1.112 3.339,1.485 1.854,0.741 3.709,1.113 5.195,1.854 0.37,0.371 0.741,0 0.37,-0.37 0,-0.371 -1.114,-2.599 -1.484,-3.34 C 11.13,-0.371 10.389,-1.483 9.646,-2.969 8.905,-3.711 7.792,-5.565 7.421,-6.307 6.307,-7.42 5.565,-8.162 3.711,-9.276 1.856,-10.76 0.371,-11.13 -0.371,-11.13 l -69.75,-18.922 c -0.37,0 -0.741,-0.743 -0.741,-0.743 0,-0.371 0.371,-0.741 0.741,-1.112 l -24.487,-6.308 -2.225,1.855 c -0.742,0.744 -0.742,1.485 -0.742,2.227 0,1.855 1.112,2.597 3.338,3.338 z" /></g></g></g></g></svg>