<?xml version="1.0" encoding="UTF-8" standalone="no"?>
<svg
   xmlns:dc="http://purl.org/dc/elements/1.1/"
   xmlns:cc="http://creativecommons.org/ns#"
   xmlns:rdf="http://www.w3.org/1999/02/22-rdf-syntax-ns#"
   xmlns:svg="http://www.w3.org/2000/svg"
   xmlns="http://www.w3.org/2000/svg"
   viewBox="0 0 569.33331 96"
   height="96"
   width="569.33331"
   xml:space="preserve"
   id="svg2"
   version="1.1"><metadata
     id="metadata8"><rdf:RDF><cc:Work
         rdf:about=""><dc:format>image/svg+xml</dc:format><dc:type
           rdf:resource="http://purl.org/dc/dcmitype/StillImage" /></cc:Work></rdf:RDF></metadata><defs
     id="defs6"><clipPath
       id="clipPath18"
       clipPathUnits="userSpaceOnUse"><path
         id="path16"
         d="M 0,72 H 427 V 0 H 0 Z" /></clipPath></defs><g
     transform="matrix(1.3333333,0,0,-1.3333333,0,96)"
     id="g10"><g
       id="g12"><g
         clip-path="url(#clipPath18)"
         id="g14"><g
           transform="translate(54.0898,15.4048)"
           id="g20"><path
             id="path22"
             style="fill:#fd1f27;fill-opacity:1;fill-rule:evenodd;stroke:none"
             d="M 0,0 C 4.323,0 7.85,8.994 8.038,20.28 L 8.06,20.271 C 5.454,20.029 2.76,19.903 0,19.903 c -2.761,0 -5.454,0.126 -8.06,0.368 l 0.022,0.009 C -7.85,8.994 -4.323,0 0,0 m 0,28.85 c 2.572,0 5.073,0.11 7.466,0.319 L 7.463,29.167 C 6.271,36.957 3.38,42.455 0,42.455 c -3.38,0 -6.271,-5.498 -7.463,-13.288 l -0.005,0.002 C -5.073,28.96 -2.572,28.85 0,28.85 m 3.476,-39.748 c 24.107,1.254 43.119,15.442 43.119,32.758 0,5.883 -2.198,11.405 -6.04,16.182 l -0.046,0.093 C 40.217,30.138 28.868,23.375 13.161,20.905 l 0.006,0.009 c 0.012,-0.525 0.017,-1.051 0.017,-1.583 0,-14.504 -4.163,-26.711 -9.809,-30.248 z M 0,50.617 c 5.741,0 10.626,-8.712 12.435,-20.865 l 0.007,0.019 c 11.173,1.74 18.993,5.75 18.993,10.418 0,6.264 -14.076,11.338 -31.435,11.338 -17.359,0 -31.435,-5.074 -31.435,-11.338 0,-4.668 7.82,-8.678 18.993,-10.418 l 0.007,-0.019 C -10.626,41.905 -5.739,50.617 0,50.617 M -53.854,20.596 c 0,19.374 24.11,35.083 53.854,35.083 29.742,0 53.854,-15.709 53.854,-35.083 0,-19.374 -24.112,-35.084 -53.854,-35.084 -29.744,0 -53.854,15.71 -53.854,35.084 m 50.479,-31.513 c -5.647,3.537 -9.809,15.744 -9.809,30.248 0,0.532 0.005,1.058 0.017,1.583 l 0.006,-0.009 c -15.707,2.47 -27.059,9.233 -27.349,17.23 l -0.045,-0.093 c -3.843,-4.777 -6.04,-10.299 -6.04,-16.182 0,-17.316 19.009,-31.504 43.119,-32.758 z" /></g><g
           transform="translate(301.8535,19.0195)"
           id="g24"><path
             id="path26"
             style="fill:#fd1f27;fill-opacity:1;fill-rule:evenodd;stroke:none"
             d="m 0,0 c 8.268,0 14.976,7.604 14.976,16.981 0,9.378 -6.708,16.981 -14.976,16.981 -8.27,0 -14.972,-7.603 -14.972,-16.981 C -14.972,7.604 -8.27,0 0,0 m -26.813,16.981 c 0,14.808 12.003,26.814 26.813,26.814 14.813,0 26.818,-12.006 26.818,-26.814 C 26.818,2.171 14.813,-9.833 0,-9.833 c -14.81,0 -26.813,12.004 -26.813,26.814" /></g><g
           transform="translate(359.0957,51.6431)"
           id="g28"><path
             id="path30"
             style="fill:#fd1f27;fill-opacity:1;fill-rule:evenodd;stroke:none"
             d="M 0,0 V -41.239 H -11.295 V 0 h 0.035 -15.8 V 9.324 H 15.761 L 15.761,0 H 0.04 Z" /></g><g
           transform="translate(398.876,30.314)"
           id="g32"><path
             id="path34"
             style="fill:#fd1f27;fill-opacity:1;fill-rule:evenodd;stroke:none"
             d="M 0,0 H 7.111 L 7.105,-0.002 0.048,18.503 H -0.048 L -7.105,-0.002 -7.11,0 Z M -10.352,-8.534 -10.36,-8.545 -14.695,-19.91 H -27.894 L -7.032,30.653 H 0 7.031 L 27.889,-19.91 H 14.693 l -4.332,11.365 -0.013,0.011 H 0 Z" /></g><g
           transform="translate(150.834,51.6431)"
           id="g36"><path
             id="path38"
             style="fill:#fd1f27;fill-opacity:1;fill-rule:evenodd;stroke:none"
             d="M 0,0 V -41.239 H -11.299 V 0 h 0.039 -15.8 V 9.324 H 15.761 L 15.761,0 H 0.04 Z" /></g><g
           transform="translate(196.3027,19.0195)"
           id="g40"><path
             id="path42"
             style="fill:#fd1f27;fill-opacity:1;fill-rule:evenodd;stroke:none"
             d="m 0,0 c 8.267,0 14.972,7.604 14.972,16.981 0,9.378 -6.705,16.981 -14.972,16.981 -8.268,0 -14.975,-7.603 -14.975,-16.981 C -14.975,7.604 -8.268,0 0,0 m -26.817,16.981 c 0,14.808 12.005,26.814 26.817,26.814 14.81,0 26.815,-12.006 26.815,-26.814 C 26.815,2.171 14.81,-9.833 0,-9.833 c -14.812,0 -26.817,12.004 -26.817,26.814" /></g><g
           transform="translate(249.0752,10.4043)"
           id="g44"><path
             id="path46"
             style="fill:#fd1f27;fill-opacity:1;fill-rule:evenodd;stroke:none"
             d="m 0,0 h 5.729 v 18.96 0.239 L 25.441,50.563 H 12.248 L 0,29.309 -12.241,50.563 H -25.436 L -5.724,19.199 V 18.96 0 Z" /></g></g></g></g></svg>