<?xml version="1.0" encoding="UTF-8" standalone="no"?>
<svg
   xmlns:dc="http://purl.org/dc/elements/1.1/"
   xmlns:cc="http://creativecommons.org/ns#"
   xmlns:rdf="http://www.w3.org/1999/02/22-rdf-syntax-ns#"
   xmlns:svg="http://www.w3.org/2000/svg"
   xmlns="http://www.w3.org/2000/svg"
   viewBox="0 0 520 185.33333"
   height="185.33333"
   width="520"
   xml:space="preserve"
   id="svg2"
   version="1.1"><metadata
     id="metadata8"><rdf:RDF><cc:Work
         rdf:about=""><dc:format>image/svg+xml</dc:format><dc:type
           rdf:resource="http://purl.org/dc/dcmitype/StillImage" /></cc:Work></rdf:RDF></metadata><defs
     id="defs6"><clipPath
       id="clipPath18"
       clipPathUnits="userSpaceOnUse"><path
         id="path16"
         d="M 0,139 H 390 V 0 H 0 Z" /></clipPath></defs><g
     transform="matrix(1.3333333,0,0,-1.3333333,0,185.33333)"
     id="g10"><g
       id="g12"><g
         clip-path="url(#clipPath18)"
         id="g14"><g
           transform="translate(61.75,35.0107)"
           id="g20"><path
             id="path22"
             style="fill:#ffffff;fill-opacity:1;fill-rule:nonzero;stroke:none"
             d="m 0,0 c 0,-13.117 -10.633,-23.75 -23.75,-23.75 -13.117,0 -23.75,10.633 -23.75,23.75 0,13.116 10.633,23.75 23.75,23.75 C -10.633,23.75 0,13.116 0,0" /></g><g
           transform="translate(120.75,35.0107)"
           id="g24"><path
             id="path26"
             style="fill:#f2f2f2;fill-opacity:1;fill-rule:nonzero;stroke:none"
             d="m 0,0 c 0,-13.117 -10.633,-23.75 -23.75,-23.75 -13.117,0 -23.75,10.633 -23.75,23.75 0,13.116 10.633,23.75 23.75,23.75 C -10.633,23.75 0,13.116 0,0" /></g><g
           transform="translate(190.75,35.0107)"
           id="g28"><path
             id="path30"
             style="fill:#ffffff;fill-opacity:1;fill-rule:nonzero;stroke:none"
             d="m 0,0 c 0,-13.117 -10.633,-23.75 -23.75,-23.75 -13.117,0 -23.75,10.633 -23.75,23.75 0,13.116 10.633,23.75 23.75,23.75 C -10.633,23.75 0,13.116 0,0" /></g><g
           transform="translate(248.75,35.0107)"
           id="g32"><path
             id="path34"
             style="fill:#f2f2f2;fill-opacity:1;fill-rule:nonzero;stroke:none"
             d="m 0,0 c 0,-13.117 -10.633,-23.75 -23.75,-23.75 -13.117,0 -23.75,10.633 -23.75,23.75 0,13.116 10.633,23.75 23.75,23.75 C -10.633,23.75 0,13.116 0,0" /></g><g
           transform="translate(376.75,99.0103)"
           id="g36"><path
             id="path38"
             style="fill:#f2f2f2;fill-opacity:1;fill-rule:nonzero;stroke:none"
             d="m 0,0 c 0,-13.117 -10.633,-23.75 -23.75,-23.75 -13.117,0 -23.75,10.633 -23.75,23.75 0,13.117 10.633,23.75 23.75,23.75 C -10.633,23.75 0,13.117 0,0" /></g><g
           transform="translate(318.75,99.0103)"
           id="g40"><path
             id="path42"
             style="fill:#ffffff;fill-opacity:1;fill-rule:nonzero;stroke:none"
             d="m 0,0 c 0,-13.117 -10.633,-23.75 -23.75,-23.75 -13.117,0 -23.75,10.633 -23.75,23.75 0,13.117 10.633,23.75 23.75,23.75 C -10.633,23.75 0,13.117 0,0" /></g><g
           transform="translate(248.75,99.0103)"
           id="g44"><path
             id="path46"
             style="fill:#f2f2f2;fill-opacity:1;fill-rule:nonzero;stroke:none"
             d="m 0,0 c 0,-13.117 -10.633,-23.75 -23.75,-23.75 -13.117,0 -23.75,10.633 -23.75,23.75 0,13.117 10.633,23.75 23.75,23.75 C -10.633,23.75 0,13.117 0,0" /></g><g
           transform="translate(120.75,99.0103)"
           id="g48"><path
             id="path50"
             style="fill:#f2f2f2;fill-opacity:1;fill-rule:nonzero;stroke:none"
             d="m 0,0 c 0,-13.117 -10.633,-23.75 -23.75,-23.75 -13.117,0 -23.75,10.633 -23.75,23.75 0,13.117 10.633,23.75 23.75,23.75 C -10.633,23.75 0,13.117 0,0" /></g><g
           transform="translate(190.75,99.0103)"
           id="g52"><path
             id="path54"
             style="fill:#ffffff;fill-opacity:1;fill-rule:nonzero;stroke:none"
             d="m 0,0 c 0,-13.117 -10.633,-23.75 -23.75,-23.75 -13.117,0 -23.75,10.633 -23.75,23.75 0,13.117 10.633,23.75 23.75,23.75 C -10.633,23.75 0,13.117 0,0" /></g><g
           transform="translate(61.75,99.0103)"
           id="g56"><path
             id="path58"
             style="fill:#ffffff;fill-opacity:1;fill-rule:nonzero;stroke:none"
             d="m 0,0 c 0,-13.117 -10.633,-23.75 -23.75,-23.75 -13.117,0 -23.75,10.633 -23.75,23.75 0,13.117 10.633,23.75 23.75,23.75 C -10.633,23.75 0,13.117 0,0" /></g><g
           transform="translate(61.9995,98.8662)"
           id="g60"><path
             id="path62"
             style="fill:none;stroke:#d84333;stroke-width:1;stroke-linecap:butt;stroke-linejoin:miter;stroke-miterlimit:10;stroke-dasharray:none;stroke-opacity:1"
             d="m 0,0 c 0.064,-13.117 -10.517,-23.802 -23.633,-23.866 -13.117,-0.064 -23.802,10.517 -23.866,23.634 -0.064,13.116 10.517,23.801 23.633,23.865 C -10.749,23.698 -0.064,13.117 0,0 Z" /></g><g
           transform="translate(38.2314,96.2358)"
           id="g64"><path
             id="path66"
             style="fill:#d84333;fill-opacity:1;fill-rule:nonzero;stroke:none"
             d="m 0,0 c 5.962,0.029 11.305,-3.725 13.294,-9.342 0.23,-0.651 -0.11,-1.365 -0.76,-1.596 -0.654,-0.231 -1.366,0.112 -1.596,0.761 -1.635,4.616 -6.026,7.701 -10.926,7.677 -4.864,-0.024 -9.213,-3.122 -10.824,-7.708 -0.228,-0.65 -0.94,-0.995 -1.593,-0.765 -0.652,0.228 -0.994,0.942 -0.765,1.594 1.96,5.58 7.252,9.35 13.17,9.379" /></g><g
           transform="translate(34.0659,101.9517)"
           id="g68"><path
             id="path70"
             style="fill:#d84333;fill-opacity:1;fill-rule:nonzero;stroke:none"
             d="m 0,0 c 0.008,-1.534 -1.23,-2.784 -2.764,-2.792 -1.534,-0.007 -2.784,1.231 -2.791,2.765 -0.008,1.534 1.23,2.784 2.764,2.791 C -1.257,2.771 -0.007,1.534 0,0" /></g><g
           transform="translate(42.3989,101.9927)"
           id="g72"><path
             id="path74"
             style="fill:#d84333;fill-opacity:1;fill-rule:nonzero;stroke:none"
             d="M 0,0 C 0.008,-1.534 1.257,-2.772 2.792,-2.764 4.326,-2.757 5.563,-1.507 5.556,0.027 5.548,1.561 4.298,2.799 2.764,2.791 1.23,2.784 -0.007,1.534 0,0" /></g><g
           transform="translate(34.792,106.7759)"
           id="g76"><path
             id="path78"
             style="fill:#d84333;fill-opacity:1;fill-rule:nonzero;stroke:none"
             d="m 0,0 v 0 c -0.518,-0.771 -1.775,-0.841 -2.795,-0.157 l -4.448,2.988 c -1.019,0.685 -1.43,1.876 -0.912,2.647 0.518,0.771 1.775,0.841 2.795,0.156 L -0.912,2.646 C 0.107,1.962 0.518,0.771 0,0" /></g><g
           transform="translate(41.5459,106.7759)"
           id="g80"><path
             id="path82"
             style="fill:#d84333;fill-opacity:1;fill-rule:nonzero;stroke:none"
             d="M 0,0 V 0 C 0.518,-0.771 1.775,-0.841 2.795,-0.157 L 7.243,2.831 C 8.263,3.516 8.673,4.707 8.155,5.478 7.638,6.249 6.38,6.319 5.36,5.634 L 0.912,2.646 C -0.107,1.962 -0.518,0.771 0,0" /></g><g
           transform="translate(120.9995,98.8662)"
           id="g84"><path
             id="path86"
             style="fill:none;stroke:#4b4b4b;stroke-width:1;stroke-linecap:butt;stroke-linejoin:miter;stroke-miterlimit:10;stroke-dasharray:none;stroke-opacity:1"
             d="m 0,0 c 0.064,-13.117 -10.517,-23.802 -23.633,-23.866 -13.117,-0.064 -23.802,10.517 -23.866,23.634 -0.064,13.116 10.517,23.801 23.633,23.865 C -10.749,23.698 -0.064,13.117 0,0 Z" /></g><g
           transform="translate(97.2314,96.2358)"
           id="g88"><path
             id="path90"
             style="fill:#4b4b4b;fill-opacity:1;fill-rule:nonzero;stroke:none"
             d="m 0,0 c 5.962,0.029 11.305,-3.725 13.294,-9.342 0.23,-0.651 -0.11,-1.366 -0.76,-1.596 -0.654,-0.231 -1.366,0.112 -1.596,0.761 -1.635,4.616 -6.026,7.701 -10.926,7.677 -4.864,-0.024 -9.213,-3.122 -10.824,-7.708 -0.228,-0.65 -0.94,-0.995 -1.593,-0.765 -0.652,0.228 -0.994,0.942 -0.765,1.594 1.96,5.58 7.252,9.35 13.17,9.379" /></g><g
           transform="translate(93.0659,101.9517)"
           id="g92"><path
             id="path94"
             style="fill:#4b4b4b;fill-opacity:1;fill-rule:nonzero;stroke:none"
             d="m 0,0 c 0.008,-1.534 -1.23,-2.784 -2.764,-2.792 -1.534,-0.007 -2.784,1.23 -2.791,2.765 -0.008,1.534 1.23,2.784 2.764,2.791 C -1.257,2.771 -0.007,1.534 0,0" /></g><g
           transform="translate(101.3989,101.9927)"
           id="g96"><path
             id="path98"
             style="fill:#4b4b4b;fill-opacity:1;fill-rule:nonzero;stroke:none"
             d="M 0,0 C 0.008,-1.534 1.257,-2.772 2.792,-2.764 4.326,-2.757 5.563,-1.507 5.556,0.027 5.548,1.561 4.298,2.799 2.764,2.791 1.23,2.784 -0.007,1.534 0,0" /></g><g
           transform="translate(93.792,106.7759)"
           id="g100"><path
             id="path102"
             style="fill:#4b4b4b;fill-opacity:1;fill-rule:nonzero;stroke:none"
             d="m 0,0 v 0 c -0.518,-0.771 -1.775,-0.841 -2.795,-0.157 l -4.448,2.988 c -1.019,0.685 -1.43,1.876 -0.912,2.647 0.518,0.771 1.775,0.841 2.795,0.156 L -0.912,2.646 C 0.107,1.962 0.518,0.771 0,0" /></g><g
           transform="translate(100.5459,106.7759)"
           id="g104"><path
             id="path106"
             style="fill:#4b4b4b;fill-opacity:1;fill-rule:nonzero;stroke:none"
             d="M 0,0 V 0 C 0.518,-0.771 1.775,-0.841 2.795,-0.157 L 7.243,2.831 C 8.263,3.516 8.673,4.707 8.155,5.478 7.638,6.249 6.38,6.319 5.36,5.634 L 0.912,2.646 C -0.107,1.962 -0.518,0.771 0,0" /></g><g
           transform="translate(190.75,98.75)"
           id="g108"><path
             id="path110"
             style="fill:none;stroke:#fe8f4f;stroke-width:1;stroke-linecap:butt;stroke-linejoin:miter;stroke-miterlimit:10;stroke-dasharray:none;stroke-opacity:1"
             d="m 0,0 c 0,-13.117 -10.633,-23.75 -23.75,-23.75 -13.117,0 -23.75,10.633 -23.75,23.75 0,13.117 10.633,23.75 23.75,23.75 C -10.633,23.75 0,13.117 0,0 Z" /></g><g
           transform="translate(157.5908,91.25)"
           id="g112"><path
             id="path114"
             style="fill:#fe8f4f;fill-opacity:1;fill-rule:nonzero;stroke:none"
             d="m 0,0 c 0.359,0 0.694,0.16 0.938,0.424 2.139,2.317 5.177,3.728 8.457,3.728 3.286,0 6.321,-1.41 8.458,-3.727 C 18.097,0.161 18.432,0 18.792,0 h 0.003 c 1.08,0 1.683,1.289 0.954,2.085 C 17.145,4.932 13.416,6.652 9.395,6.652 5.383,6.652 1.653,4.93 -0.953,2.085 -1.682,1.29 -1.079,0 0,0" /></g><g
           transform="translate(162.8481,105.3052)"
           id="g116"><path
             id="path118"
             style="fill:#fe8f4f;fill-opacity:1;fill-rule:nonzero;stroke:none"
             d="m 0,0 c 0,-1.534 -1.244,-2.778 -2.778,-2.778 -1.534,0 -2.778,1.244 -2.778,2.778 0,1.534 1.244,2.778 2.778,2.778 C -1.244,2.778 0,1.534 0,0" /></g><g
           transform="translate(171.1812,105.3052)"
           id="g120"><path
             id="path122"
             style="fill:#fe8f4f;fill-opacity:1;fill-rule:nonzero;stroke:none"
             d="m 0,0 c 0,-1.534 1.244,-2.778 2.778,-2.778 1.534,0 2.778,1.244 2.778,2.778 0,1.534 -1.244,2.778 -2.778,2.778 C 1.244,2.778 0,1.534 0,0" /></g><g
           transform="translate(248.75,98.75)"
           id="g124"><path
             id="path126"
             style="fill:none;stroke:#4b4b4b;stroke-width:1;stroke-linecap:butt;stroke-linejoin:miter;stroke-miterlimit:10;stroke-dasharray:none;stroke-opacity:1"
             d="m 0,0 c 0,-13.117 -10.633,-23.75 -23.75,-23.75 -13.117,0 -23.75,10.633 -23.75,23.75 0,13.117 10.633,23.75 23.75,23.75 C -10.633,23.75 0,13.117 0,0 Z" /></g><g
           transform="translate(215.5908,91.25)"
           id="g128"><path
             id="path130"
             style="fill:#4b4b4b;fill-opacity:1;fill-rule:nonzero;stroke:none"
             d="m 0,0 c 0.359,0 0.694,0.16 0.938,0.424 2.139,2.317 5.177,3.728 8.457,3.728 3.286,0 6.321,-1.41 8.458,-3.727 C 18.097,0.161 18.432,0 18.792,0 h 0.003 c 1.08,0 1.683,1.289 0.954,2.085 C 17.145,4.932 13.416,6.652 9.395,6.652 5.383,6.652 1.653,4.93 -0.953,2.085 -1.682,1.29 -1.079,0 0,0" /></g><g
           transform="translate(220.8481,105.3052)"
           id="g132"><path
             id="path134"
             style="fill:#4b4b4b;fill-opacity:1;fill-rule:nonzero;stroke:none"
             d="m 0,0 c 0,-1.534 -1.244,-2.778 -2.778,-2.778 -1.534,0 -2.778,1.244 -2.778,2.778 0,1.534 1.244,2.778 2.778,2.778 C -1.244,2.778 0,1.534 0,0" /></g><g
           transform="translate(229.1812,105.3052)"
           id="g136"><path
             id="path138"
             style="fill:#4b4b4b;fill-opacity:1;fill-rule:nonzero;stroke:none"
             d="m 0,0 c 0,-1.534 1.244,-2.778 2.778,-2.778 1.534,0 2.778,1.244 2.778,2.778 0,1.534 -1.244,2.778 -2.778,2.778 C 1.244,2.778 0,1.534 0,0" /></g><g
           transform="translate(318.75,98.75)"
           id="g140"><path
             id="path142"
             style="fill:none;stroke:#bacf69;stroke-width:1;stroke-linecap:butt;stroke-linejoin:miter;stroke-miterlimit:10;stroke-dasharray:none;stroke-opacity:1"
             d="m 0,0 c 0,-13.117 -10.633,-23.75 -23.75,-23.75 -13.117,0 -23.75,10.633 -23.75,23.75 0,13.117 10.633,23.75 23.75,23.75 C -10.633,23.75 0,13.117 0,0 Z" /></g><g
           transform="translate(304.3975,97.9023)"
           id="g144"><path
             id="path146"
             style="fill:#bacf69;fill-opacity:1;fill-rule:nonzero;stroke:none"
             d="m 0,0 c -0.359,0 -0.694,-0.16 -0.937,-0.424 -2.139,-2.317 -5.177,-3.728 -8.458,-3.728 -3.286,0 -6.321,1.41 -8.458,3.727 C -18.097,-0.161 -18.432,0 -18.791,0 h -0.004 c -1.079,0 -1.683,-1.289 -0.954,-2.085 2.604,-2.847 6.334,-4.567 10.354,-4.567 4.012,0 7.743,1.722 10.348,4.567 C 1.683,-1.29 1.079,0 0,0" /></g><g
           transform="translate(290.8594,105.3052)"
           id="g148"><path
             id="path150"
             style="fill:#bacf69;fill-opacity:1;fill-rule:nonzero;stroke:none"
             d="m 0,0 c 0,-1.534 -1.243,-2.778 -2.777,-2.778 -1.535,0 -2.779,1.244 -2.779,2.778 0,1.534 1.244,2.778 2.779,2.778 C -1.243,2.778 0,1.534 0,0" /></g><g
           transform="translate(299.1924,105.3052)"
           id="g152"><path
             id="path154"
             style="fill:#bacf69;fill-opacity:1;fill-rule:nonzero;stroke:none"
             d="m 0,0 c 0,-1.534 1.244,-2.778 2.778,-2.778 1.534,0 2.778,1.244 2.778,2.778 0,1.534 -1.244,2.778 -2.778,2.778 C 1.244,2.778 0,1.534 0,0" /></g><g
           transform="translate(376.75,98.75)"
           id="g156"><path
             id="path158"
             style="fill:none;stroke:#4b4b4b;stroke-width:1;stroke-linecap:butt;stroke-linejoin:miter;stroke-miterlimit:10;stroke-dasharray:none;stroke-opacity:1"
             d="m 0,0 c 0,-13.117 -10.633,-23.75 -23.75,-23.75 -13.117,0 -23.75,10.633 -23.75,23.75 0,13.117 10.633,23.75 23.75,23.75 C -10.633,23.75 0,13.117 0,0 Z" /></g><g
           transform="translate(362.3975,97.9023)"
           id="g160"><path
             id="path162"
             style="fill:#4b4b4b;fill-opacity:1;fill-rule:nonzero;stroke:none"
             d="m 0,0 c -0.359,0 -0.694,-0.16 -0.937,-0.424 -2.139,-2.317 -5.177,-3.728 -8.458,-3.728 -3.286,0 -6.321,1.41 -8.458,3.727 C -18.097,-0.161 -18.432,0 -18.791,0 h -0.004 c -1.079,0 -1.683,-1.289 -0.954,-2.085 2.604,-2.847 6.334,-4.567 10.354,-4.567 4.012,0 7.743,1.722 10.348,4.567 C 1.683,-1.29 1.079,0 0,0" /></g><g
           transform="translate(348.8594,105.3052)"
           id="g164"><path
             id="path166"
             style="fill:#4b4b4b;fill-opacity:1;fill-rule:nonzero;stroke:none"
             d="m 0,0 c 0,-1.534 -1.243,-2.778 -2.777,-2.778 -1.535,0 -2.779,1.244 -2.779,2.778 0,1.534 1.244,2.778 2.779,2.778 C -1.243,2.778 0,1.534 0,0" /></g><g
           transform="translate(357.1924,105.3052)"
           id="g168"><path
             id="path170"
             style="fill:#4b4b4b;fill-opacity:1;fill-rule:nonzero;stroke:none"
             d="m 0,0 c 0,-1.534 1.244,-2.778 2.778,-2.778 1.534,0 2.778,1.244 2.778,2.778 0,1.534 -1.244,2.778 -2.778,2.778 C 1.244,2.778 0,1.534 0,0" /></g><g
           transform="translate(62,35)"
           id="g172"><path
             id="path174"
             style="fill:none;stroke:#3eb25b;stroke-width:1;stroke-linecap:butt;stroke-linejoin:miter;stroke-miterlimit:10;stroke-dasharray:none;stroke-opacity:1"
             d="m 0,0 c 0,-13.117 -10.633,-23.75 -23.75,-23.75 -13.117,0 -23.75,10.633 -23.75,23.75 0,13.117 10.633,23.75 23.75,23.75 C -10.633,23.75 0,13.117 0,0 Z" /></g><g
           transform="translate(34.0981,41.1113)"
           id="g176"><path
             id="path178"
             style="fill:#3eb25b;fill-opacity:1;fill-rule:nonzero;stroke:none"
             d="m 0,0 c 0,-1.534 -1.244,-2.777 -2.778,-2.777 -1.534,0 -2.778,1.243 -2.778,2.777 0,1.534 1.244,2.777 2.778,2.777 C -1.244,2.777 0,1.534 0,0" /></g><g
           transform="translate(42.4312,41.1113)"
           id="g180"><path
             id="path182"
             style="fill:#3eb25b;fill-opacity:1;fill-rule:nonzero;stroke:none"
             d="m 0,0 c 0,-1.534 1.244,-2.777 2.778,-2.777 1.534,0 2.778,1.243 2.778,2.777 0,1.534 -1.244,2.777 -2.778,2.777 C 1.244,2.777 0,1.534 0,0" /></g><g
           transform="translate(27.9897,32.4004)"
           id="g184"><path
             id="path186"
             style="fill:#3eb25b;fill-opacity:1;fill-rule:nonzero;stroke:none"
             d="m 0,0 c -0.422,-0.001 -0.714,-0.585 -0.554,-1.119 0.833,-2.773 3.613,-9.754 10.509,-9.754 6.893,0 9.736,7.029 10.594,9.827 0.165,0.536 -0.129,1.127 -0.555,1.125 z" /></g><g
           transform="translate(27.9897,32.4004)"
           id="g188"><path
             id="path190"
             style="fill:#3eb25b;fill-opacity:1;fill-rule:nonzero;stroke:none"
             d="m 0,0 c -0.422,-0.001 -0.714,-0.585 -0.554,-1.119 0.833,-2.773 3.613,-9.754 10.509,-9.754 6.893,0 9.736,7.029 10.594,9.827 0.165,0.536 -0.129,1.127 -0.555,1.125 z" /></g><g
           transform="translate(121,35)"
           id="g192"><path
             id="path194"
             style="fill:none;stroke:#4b4b4b;stroke-width:1;stroke-linecap:butt;stroke-linejoin:miter;stroke-miterlimit:10;stroke-dasharray:none;stroke-opacity:1"
             d="m 0,0 c 0,-13.117 -10.633,-23.75 -23.75,-23.75 -13.117,0 -23.75,10.633 -23.75,23.75 0,13.117 10.633,23.75 23.75,23.75 C -10.633,23.75 0,13.117 0,0 Z" /></g><g
           transform="translate(93.0981,41.1113)"
           id="g196"><path
             id="path198"
             style="fill:#4b4b4b;fill-opacity:1;fill-rule:nonzero;stroke:none"
             d="m 0,0 c 0,-1.534 -1.244,-2.777 -2.778,-2.777 -1.534,0 -2.778,1.243 -2.778,2.777 0,1.534 1.244,2.777 2.778,2.777 C -1.244,2.777 0,1.534 0,0" /></g><g
           transform="translate(101.4312,41.1113)"
           id="g200"><path
             id="path202"
             style="fill:#4b4b4b;fill-opacity:1;fill-rule:nonzero;stroke:none"
             d="m 0,0 c 0,-1.534 1.244,-2.777 2.778,-2.777 1.534,0 2.778,1.243 2.778,2.777 0,1.534 -1.244,2.777 -2.778,2.777 C 1.244,2.777 0,1.534 0,0" /></g><g
           transform="translate(86.9897,32.4004)"
           id="g204"><path
             id="path206"
             style="fill:#4b4b4b;fill-opacity:1;fill-rule:nonzero;stroke:none"
             d="m 0,0 c -0.422,-0.001 -0.714,-0.585 -0.554,-1.119 0.833,-2.773 3.613,-9.754 10.509,-9.754 6.893,0 9.736,7.029 10.594,9.827 0.165,0.536 -0.129,1.127 -0.555,1.125 z" /></g><g
           transform="translate(190.75,35)"
           id="g208"><path
             id="path210"
             style="fill:none;stroke:#4b78ff;stroke-width:1;stroke-linecap:butt;stroke-linejoin:miter;stroke-miterlimit:10;stroke-dasharray:none;stroke-opacity:1"
             d="m 0,0 c 0,-13.117 -10.633,-23.75 -23.75,-23.75 -13.117,0 -23.75,10.633 -23.75,23.75 0,13.117 10.633,23.75 23.75,23.75 C -10.633,23.75 0,13.117 0,0 Z" /></g><g
           transform="translate(166.5781,19.1973)"
           id="g212"><path
             id="path214"
             style="fill:#d84333;fill-opacity:1;fill-rule:evenodd;stroke:none"
             d="m 0,0 v -4.799 c -0.599,-0.11 -1.115,-0.193 -1.529,-0.239 -0.415,-0.056 -0.792,-0.074 -1.133,-0.074 -0.544,0 -1.004,0.047 -1.382,0.157 -0.377,0.101 -0.682,0.267 -0.921,0.488 -0.368,0.341 -0.626,0.82 -0.783,1.437 -0.156,0.626 -0.23,1.621 -0.23,3.003 0,0.949 0.046,1.695 0.138,2.211 0.101,0.534 0.258,0.966 0.479,1.316 0.23,0.359 0.553,0.636 0.976,0.82 0.415,0.185 0.922,0.268 1.53,0.268 0.93,0 1.639,-0.24 2.127,-0.737 C -0.249,3.362 0,2.644 0,1.704 V 1.557 h -1.833 v 0.12 c 0,0.534 -0.092,0.93 -0.267,1.188 -0.175,0.258 -0.442,0.387 -0.811,0.387 -0.451,0 -0.764,-0.212 -0.939,-0.645 -0.175,-0.423 -0.258,-1.373 -0.258,-2.828 0,-1.548 0.101,-2.514 0.313,-2.911 0.212,-0.405 0.599,-0.598 1.161,-0.598 0.129,0 0.267,0.009 0.414,0.028 0.147,0.017 0.323,0.055 0.516,0.11 v 2.11 H -2.736 V 0 Z M 4.005,4.597 V 2.994 C 3.913,2.994 3.82,3.003 3.729,3.003 H 2.973 V 0.147 h 0.562 c 0.175,0 0.332,0.01 0.47,0.029 V -1.446 H 2.973 V -4.799 H 1.085 v 9.396 z m 0,-6.043 v 1.622 c 0.313,0.036 0.534,0.1 0.663,0.165 0.193,0.221 0.369,0.654 0.369,1.188 0,0.534 -0.074,0.94 -0.268,1.16 C 4.613,2.865 4.346,2.957 4.005,2.994 v 1.603 h 0.11 C 5.037,4.597 5.884,4.385 6.261,3.971 6.658,3.537 6.916,2.589 6.916,1.529 6.916,0.995 6.796,0.47 6.722,0.147 6.63,-0.276 6.455,-0.599 6.261,-0.819 6.068,-1.031 5.709,-1.345 5.516,-1.345 5.322,-1.345 4.769,-1.446 4.208,-1.446 H 4.115 Z" /></g><g
           transform="translate(169.709,45.1035)"
           id="g216"><path
             id="path218"
             style="fill:#4b78ff;fill-opacity:1;fill-rule:nonzero;stroke:none"
             d="m 0,0 c -1.13,-0.376 -2.528,-0.437 -3.086,-0.447 -0.557,0.01 -1.962,0.071 -3.09,0.447 -2.15,0.717 -5.609,1.169 -8.246,1.107 -1.952,-0.047 -3.974,-0.31 -5.233,-0.563 -0.559,-0.113 -0.914,-0.662 -0.785,-1.217 l 0.134,-0.577 c 0.078,-0.337 0.339,-0.585 0.664,-0.701 0.168,-0.06 0.33,-0.169 0.403,-0.366 0.226,-0.608 1.449,-4.218 2.112,-5.552 0.543,-1.092 2.013,-2.028 5.432,-2.041 4.863,-0.02 6.549,3.197 7.322,5.275 0.081,0.217 0.205,0.633 0.315,1.036 0.159,0.578 0.509,1.146 0.666,1.227 0.092,0.047 0.202,0.087 0.306,0.087 0.108,0 0.216,-0.04 0.31,-0.087 0.155,-0.081 0.498,-0.649 0.659,-1.227 0.111,-0.403 0.232,-0.819 0.313,-1.036 0.773,-2.078 2.458,-5.295 7.322,-5.275 3.419,0.013 4.89,0.949 5.432,2.041 0.662,1.334 1.884,4.944 2.113,5.552 0.073,0.197 0.234,0.306 0.403,0.366 0.326,0.116 0.585,0.364 0.664,0.701 l 0.135,0.578 C 14.393,-0.117 14.037,0.431 13.479,0.544 12.22,0.797 10.198,1.06 8.246,1.107 5.606,1.169 2.149,0.717 0,0" /></g><g
           transform="translate(168.9028,41.8799)"
           id="g220"><path
             id="path222"
             style="fill:#5d5d5d;fill-opacity:1;fill-rule:nonzero;stroke:none"
             d="m 0,0 c 0.102,-2.355 2.397,-4.62 4.544,-5.141 3.157,-0.764 5.531,-0.083 6.878,2.819 0.405,0.876 1.273,2.783 1.217,3.801 C 12.542,3.245 10.298,2.936 8.866,2.971 8.712,2.975 -0.141,3.223 0,0" /></g><g
           transform="translate(164.4277,41.8799)"
           id="g224"><path
             id="path226"
             style="fill:#5d5d5d;fill-opacity:1;fill-rule:nonzero;stroke:none"
             d="m 0,0 c -0.102,-2.355 -2.396,-4.62 -4.544,-5.141 -3.157,-0.764 -5.532,-0.083 -6.878,2.819 -0.405,0.876 -1.273,2.783 -1.218,3.801 0.098,1.766 2.342,1.457 3.774,1.492 C -8.713,2.975 0.14,3.223 0,0" /></g><g
           transform="translate(170.3921,28.75)"
           id="g228"><path
             id="path230"
             style="fill:#4b78ff;fill-opacity:1;fill-rule:nonzero;stroke:none"
             d="M 0,0 C -0.469,0 -0.947,0.035 -1.433,0.107 -1.905,0.179 -2.23,0.619 -2.16,1.092 -2.088,1.562 -1.652,1.888 -1.176,1.818 1.559,1.409 3.991,2.442 5.016,4.455 5.233,4.881 5.754,5.05 6.179,4.833 6.605,4.616 6.774,4.095 6.557,3.67 5.378,1.357 2.891,0 0,0" /></g><g
           transform="translate(248.75,35)"
           id="g232"><path
             id="path234"
             style="fill:none;stroke:#4b4b4b;stroke-width:1;stroke-linecap:butt;stroke-linejoin:miter;stroke-miterlimit:10;stroke-dasharray:none;stroke-opacity:1"
             d="m 0,0 c 0,-13.117 -10.633,-23.75 -23.75,-23.75 -13.117,0 -23.75,10.633 -23.75,23.75 0,13.117 10.633,23.75 23.75,23.75 C -10.633,23.75 0,13.117 0,0 Z" /></g><g
           transform="translate(224.5781,19.1973)"
           id="g236"><path
             id="path238"
             style="fill:#4b4b4b;fill-opacity:1;fill-rule:evenodd;stroke:none"
             d="m 0,0 v -4.799 c -0.599,-0.11 -1.115,-0.193 -1.529,-0.239 -0.415,-0.056 -0.792,-0.074 -1.133,-0.074 -0.544,0 -1.004,0.047 -1.382,0.157 -0.377,0.101 -0.682,0.267 -0.921,0.488 -0.368,0.341 -0.626,0.82 -0.783,1.437 -0.156,0.626 -0.23,1.621 -0.23,3.003 0,0.949 0.046,1.695 0.138,2.211 0.101,0.534 0.258,0.966 0.479,1.316 0.23,0.359 0.553,0.636 0.976,0.82 0.415,0.185 0.922,0.268 1.53,0.268 0.93,0 1.639,-0.24 2.127,-0.737 C -0.249,3.362 0,2.644 0,1.704 V 1.557 h -1.833 v 0.12 c 0,0.534 -0.092,0.93 -0.267,1.188 -0.175,0.258 -0.442,0.387 -0.811,0.387 -0.451,0 -0.764,-0.212 -0.939,-0.645 -0.175,-0.423 -0.258,-1.373 -0.258,-2.828 0,-1.548 0.101,-2.514 0.313,-2.911 0.212,-0.405 0.599,-0.598 1.161,-0.598 0.129,0 0.267,0.009 0.414,0.028 0.147,0.017 0.323,0.055 0.516,0.11 v 2.11 H -2.736 V 0 Z M 4.005,4.597 V 2.994 C 3.913,2.994 3.82,3.003 3.729,3.003 H 2.973 V 0.147 h 0.562 c 0.175,0 0.332,0.01 0.47,0.029 V -1.446 H 2.973 V -4.799 H 1.085 v 9.396 z m 0,-6.043 v 1.622 c 0.313,0.036 0.534,0.1 0.663,0.165 0.193,0.221 0.369,0.654 0.369,1.188 0,0.534 -0.074,0.94 -0.268,1.16 C 4.613,2.865 4.346,2.957 4.005,2.994 v 1.603 h 0.11 C 5.037,4.597 5.884,4.385 6.261,3.971 6.658,3.537 6.916,2.589 6.916,1.529 6.916,0.995 6.796,0.47 6.722,0.147 6.63,-0.276 6.455,-0.599 6.261,-0.819 6.068,-1.031 5.709,-1.345 5.516,-1.345 5.322,-1.345 4.769,-1.446 4.208,-1.446 H 4.115 Z" /></g><g
           transform="translate(227.709,45.1035)"
           id="g240"><path
             id="path242"
             style="fill:#4b4b4b;fill-opacity:1;fill-rule:nonzero;stroke:none"
             d="m 0,0 c -1.13,-0.376 -2.528,-0.437 -3.086,-0.447 -0.557,0.01 -1.962,0.071 -3.09,0.447 -2.15,0.717 -5.609,1.169 -8.246,1.107 -1.952,-0.047 -3.974,-0.31 -5.233,-0.563 -0.559,-0.113 -0.914,-0.662 -0.785,-1.217 l 0.134,-0.577 c 0.078,-0.337 0.339,-0.585 0.664,-0.701 0.168,-0.06 0.33,-0.169 0.403,-0.366 0.226,-0.608 1.449,-4.218 2.112,-5.552 0.543,-1.092 2.013,-2.028 5.432,-2.041 4.863,-0.02 6.549,3.197 7.322,5.275 0.081,0.217 0.205,0.633 0.315,1.036 0.159,0.578 0.509,1.146 0.666,1.227 0.092,0.047 0.202,0.087 0.306,0.087 0.108,0 0.216,-0.04 0.31,-0.087 0.155,-0.081 0.498,-0.649 0.659,-1.227 0.111,-0.403 0.232,-0.819 0.313,-1.036 0.773,-2.078 2.458,-5.295 7.322,-5.275 3.419,0.013 4.89,0.949 5.432,2.041 0.662,1.334 1.884,4.944 2.113,5.552 0.073,0.197 0.234,0.306 0.403,0.366 0.326,0.116 0.585,0.364 0.664,0.701 l 0.135,0.578 C 14.393,-0.117 14.037,0.431 13.479,0.544 12.22,0.797 10.198,1.06 8.246,1.107 5.606,1.169 2.149,0.717 0,0" /></g><g
           transform="translate(226.9028,41.8799)"
           id="g244"><path
             id="path246"
             style="fill:#a7a7a7;fill-opacity:1;fill-rule:nonzero;stroke:none"
             d="m 0,0 c 0.102,-2.355 2.397,-4.62 4.544,-5.141 3.157,-0.764 5.531,-0.083 6.878,2.819 0.405,0.876 1.273,2.783 1.217,3.801 C 12.542,3.245 10.298,2.936 8.866,2.971 8.712,2.975 -0.141,3.223 0,0" /></g><g
           transform="translate(222.4277,41.8799)"
           id="g248"><path
             id="path250"
             style="fill:#a7a7a7;fill-opacity:1;fill-rule:nonzero;stroke:none"
             d="m 0,0 c -0.102,-2.355 -2.396,-4.62 -4.544,-5.141 -3.157,-0.764 -5.532,-0.083 -6.878,2.819 -0.405,0.876 -1.273,2.783 -1.218,3.801 0.098,1.766 2.342,1.457 3.774,1.492 C -8.713,2.975 0.14,3.223 0,0" /></g><g
           transform="translate(228.3921,28.75)"
           id="g252"><path
             id="path254"
             style="fill:#4b4b4b;fill-opacity:1;fill-rule:nonzero;stroke:none"
             d="M 0,0 C -0.469,0 -0.947,0.035 -1.433,0.107 -1.905,0.179 -2.23,0.619 -2.16,1.092 -2.088,1.562 -1.652,1.888 -1.176,1.818 1.559,1.409 3.991,2.442 5.016,4.455 5.233,4.881 5.754,5.05 6.179,4.833 6.605,4.616 6.774,4.095 6.557,3.67 5.378,1.357 2.891,0 0,0" /></g></g></g></g></svg>