<?xml version="1.0" encoding="UTF-8" standalone="no"?>
<svg
   xmlns:dc="http://purl.org/dc/elements/1.1/"
   xmlns:cc="http://creativecommons.org/ns#"
   xmlns:rdf="http://www.w3.org/1999/02/22-rdf-syntax-ns#"
   xmlns:svg="http://www.w3.org/2000/svg"
   xmlns="http://www.w3.org/2000/svg"
   viewBox="0 0 365.33334 178.66667"
   height="178.66667"
   width="365.33334"
   xml:space="preserve"
   id="svg2"
   version="1.1"><metadata
     id="metadata8"><rdf:RDF><cc:Work
         rdf:about=""><dc:format>image/svg+xml</dc:format><dc:type
           rdf:resource="http://purl.org/dc/dcmitype/StillImage" /></cc:Work></rdf:RDF></metadata><defs
     id="defs6"><clipPath
       id="clipPath18"
       clipPathUnits="userSpaceOnUse"><path
         id="path16"
         d="M 0,134 H 274 V 0 H 0 Z" /></clipPath><clipPath
       id="clipPath34"
       clipPathUnits="userSpaceOnUse"><path
         id="path32"
         d="m 14.215,39.174 c 0,-13.26 10.787,-24.049 24.049,-24.049 v 0 c 13.261,0 24.048,10.789 24.048,24.049 v 0 c 0,13.261 -10.787,24.049 -24.048,24.049 v 0 c -13.262,0 -24.049,-10.788 -24.049,-24.049" /></clipPath><clipPath
       id="clipPath42"
       clipPathUnits="userSpaceOnUse"><path
         id="path40"
         d="M -32768,32767 H 32767 V -32768 H -32768 Z" /></clipPath><linearGradient
       id="linearGradient48"
       spreadMethod="pad"
       gradientTransform="matrix(43.590168,-20.324039,20.324039,43.590168,16.468555,49.336109)"
       gradientUnits="userSpaceOnUse"
       y2="0"
       x2="1"
       y1="0"
       x1="0"><stop
         id="stop44"
         offset="0"
         style="stop-opacity:0.2;stop-color:#ffffff" /><stop
         id="stop46"
         offset="1"
         style="stop-opacity:0;stop-color:#ffffff" /></linearGradient><mask
       id="mask50"
       height="1"
       width="1"
       y="0"
       x="0"
       maskUnits="userSpaceOnUse"><g
         id="g60"><g
           id="g58"
           clip-path="url(#clipPath42)"><g
             id="g56"><g
               id="g54"><path
                 id="path52"
                 style="fill:url(#linearGradient48);stroke:none"
                 d="M -32768,32767 H 32767 V -32768 H -32768 Z" /></g></g></g></g></mask><linearGradient
       id="linearGradient70"
       spreadMethod="pad"
       gradientTransform="matrix(43.590168,-20.324039,20.324039,43.590168,16.468555,49.336109)"
       gradientUnits="userSpaceOnUse"
       y2="0"
       x2="1"
       y1="0"
       x1="0"><stop
         id="stop66"
         offset="0"
         style="stop-opacity:1;stop-color:#ffffff" /><stop
         id="stop68"
         offset="1"
         style="stop-opacity:1;stop-color:#ffffff" /></linearGradient><clipPath
       id="clipPath80"
       clipPathUnits="userSpaceOnUse"><path
         id="path78"
         d="M 0,134 H 274 V 0 H 0 Z" /></clipPath><clipPath
       id="clipPath88"
       clipPathUnits="userSpaceOnUse"><path
         id="path86"
         d="M 21.2522,56.1855 H 60.3085 V 17.1292 H 21.2522 Z" /></clipPath><clipPath
       id="clipPath124"
       clipPathUnits="userSpaceOnUse"><path
         id="path122"
         d="M 21.2263,111.774 H 60.0449 V 72.9551 H 21.2263 Z" /></clipPath><clipPath
       id="clipPath168"
       clipPathUnits="userSpaceOnUse"><path
         id="path166"
         d="M 77.2263,111.774 H 116.045 V 72.9551 H 77.2263 Z" /></clipPath><clipPath
       id="clipPath204"
       clipPathUnits="userSpaceOnUse"><path
         id="path202"
         d="M 69.952,95 C 69.952,81.74 80.739,70.952 94,70.952 v 0 c 13.261,0 24.049,10.788 24.049,24.048 v 0 c 0,13.26 -10.788,24.048 -24.049,24.048 v 0 C 80.739,119.048 69.952,108.26 69.952,95" /></clipPath><clipPath
       id="clipPath212"
       clipPathUnits="userSpaceOnUse"><path
         id="path210"
         d="M -32768,32767 H 32767 V -32768 H -32768 Z" /></clipPath><linearGradient
       id="linearGradient218"
       spreadMethod="pad"
       gradientTransform="matrix(43.590057,-20.323988,20.323988,43.590057,72.204979,105.16199)"
       gradientUnits="userSpaceOnUse"
       y2="0"
       x2="1"
       y1="0"
       x1="0"><stop
         id="stop214"
         offset="0"
         style="stop-opacity:0.2;stop-color:#ffffff" /><stop
         id="stop216"
         offset="1"
         style="stop-opacity:0;stop-color:#ffffff" /></linearGradient><mask
       id="mask220"
       height="1"
       width="1"
       y="0"
       x="0"
       maskUnits="userSpaceOnUse"><g
         id="g230"><g
           id="g228"
           clip-path="url(#clipPath212)"><g
             id="g226"><g
               id="g224"><path
                 id="path222"
                 style="fill:url(#linearGradient218);stroke:none"
                 d="M -32768,32767 H 32767 V -32768 H -32768 Z" /></g></g></g></g></mask><linearGradient
       id="linearGradient240"
       spreadMethod="pad"
       gradientTransform="matrix(43.590057,-20.323988,20.323988,43.590057,72.204979,105.16199)"
       gradientUnits="userSpaceOnUse"
       y2="0"
       x2="1"
       y1="0"
       x1="0"><stop
         id="stop236"
         offset="0"
         style="stop-opacity:1;stop-color:#ffffff" /><stop
         id="stop238"
         offset="1"
         style="stop-opacity:1;stop-color:#ffffff" /></linearGradient><clipPath
       id="clipPath250"
       clipPathUnits="userSpaceOnUse"><path
         id="path248"
         d="M 13.951,95 C 13.951,81.74 24.74,70.952 38,70.952 v 0 c 13.26,0 24.049,10.788 24.049,24.048 v 0 c 0,13.26 -10.789,24.048 -24.049,24.048 v 0 C 24.74,119.048 13.951,108.26 13.951,95" /></clipPath><clipPath
       id="clipPath258"
       clipPathUnits="userSpaceOnUse"><path
         id="path256"
         d="M -32768,32767 H 32767 V -32768 H -32768 Z" /></clipPath><linearGradient
       id="linearGradient264"
       spreadMethod="pad"
       gradientTransform="matrix(43.590057,-20.323988,20.323988,43.590057,16.204979,105.16199)"
       gradientUnits="userSpaceOnUse"
       y2="0"
       x2="1"
       y1="0"
       x1="0"><stop
         id="stop260"
         offset="0"
         style="stop-opacity:0.2;stop-color:#ffffff" /><stop
         id="stop262"
         offset="1"
         style="stop-opacity:0;stop-color:#ffffff" /></linearGradient><mask
       id="mask266"
       height="1"
       width="1"
       y="0"
       x="0"
       maskUnits="userSpaceOnUse"><g
         id="g276"><g
           id="g274"
           clip-path="url(#clipPath258)"><g
             id="g272"><g
               id="g270"><path
                 id="path268"
                 style="fill:url(#linearGradient264);stroke:none"
                 d="M -32768,32767 H 32767 V -32768 H -32768 Z" /></g></g></g></g></mask><linearGradient
       id="linearGradient286"
       spreadMethod="pad"
       gradientTransform="matrix(43.590057,-20.323988,20.323988,43.590057,16.204979,105.16199)"
       gradientUnits="userSpaceOnUse"
       y2="0"
       x2="1"
       y1="0"
       x1="0"><stop
         id="stop282"
         offset="0"
         style="stop-opacity:1;stop-color:#ffffff" /><stop
         id="stop284"
         offset="1"
         style="stop-opacity:1;stop-color:#ffffff" /></linearGradient><clipPath
       id="clipPath296"
       clipPathUnits="userSpaceOnUse"><path
         id="path294"
         d="M 0,134 H 274 V 0 H 0 Z" /></clipPath><clipPath
       id="clipPath312"
       clipPathUnits="userSpaceOnUse"><path
         id="path310"
         d="M 77.2522,56.1855 H 116.308 V 17.1292 H 77.2522 Z" /></clipPath><clipPath
       id="clipPath348"
       clipPathUnits="userSpaceOnUse"><path
         id="path346"
         d="m 150.252,112.186 h 39.056 V 73.1293 h -39.056 z" /></clipPath><clipPath
       id="clipPath384"
       clipPathUnits="userSpaceOnUse"><path
         id="path382"
         d="m 207.252,112.186 h 39.056 V 73.1293 h -39.056 z" /></clipPath><clipPath
       id="clipPath412"
       clipPathUnits="userSpaceOnUse"><path
         id="path410"
         d="m 200.215,95.174 c 0,-13.261 10.787,-24.049 24.049,-24.049 v 0 c 13.261,0 24.049,10.788 24.049,24.049 v 0 c 0,13.261 -10.788,24.049 -24.049,24.049 v 0 c -13.262,0 -24.049,-10.788 -24.049,-24.049" /></clipPath><clipPath
       id="clipPath420"
       clipPathUnits="userSpaceOnUse"><path
         id="path418"
         d="M -32768,32767 H 32767 V -32768 H -32768 Z" /></clipPath><linearGradient
       id="linearGradient426"
       spreadMethod="pad"
       gradientTransform="matrix(43.590168,-20.324039,20.324039,43.590168,202.46855,105.33611)"
       gradientUnits="userSpaceOnUse"
       y2="0"
       x2="1"
       y1="0"
       x1="0"><stop
         id="stop422"
         offset="0"
         style="stop-opacity:0.2;stop-color:#ffffff" /><stop
         id="stop424"
         offset="1"
         style="stop-opacity:0;stop-color:#ffffff" /></linearGradient><mask
       id="mask428"
       height="1"
       width="1"
       y="0"
       x="0"
       maskUnits="userSpaceOnUse"><g
         id="g438"><g
           id="g436"
           clip-path="url(#clipPath420)"><g
             id="g434"><g
               id="g432"><path
                 id="path430"
                 style="fill:url(#linearGradient426);stroke:none"
                 d="M -32768,32767 H 32767 V -32768 H -32768 Z" /></g></g></g></g></mask><linearGradient
       id="linearGradient448"
       spreadMethod="pad"
       gradientTransform="matrix(43.590168,-20.324039,20.324039,43.590168,202.46855,105.33611)"
       gradientUnits="userSpaceOnUse"
       y2="0"
       x2="1"
       y1="0"
       x1="0"><stop
         id="stop444"
         offset="0"
         style="stop-opacity:1;stop-color:#ffffff" /><stop
         id="stop446"
         offset="1"
         style="stop-opacity:1;stop-color:#ffffff" /></linearGradient><clipPath
       id="clipPath458"
       clipPathUnits="userSpaceOnUse"><path
         id="path456"
         d="m 143.215,95.174 c 0,-13.261 10.787,-24.049 24.049,-24.049 v 0 c 13.262,0 24.048,10.788 24.048,24.049 v 0 c 0,13.261 -10.786,24.049 -24.048,24.049 v 0 c -13.262,0 -24.049,-10.788 -24.049,-24.049" /></clipPath><clipPath
       id="clipPath466"
       clipPathUnits="userSpaceOnUse"><path
         id="path464"
         d="M -32768,32767 H 32767 V -32768 H -32768 Z" /></clipPath><linearGradient
       id="linearGradient472"
       spreadMethod="pad"
       gradientTransform="matrix(43.590168,-20.324039,20.324039,43.590168,145.46855,105.33611)"
       gradientUnits="userSpaceOnUse"
       y2="0"
       x2="1"
       y1="0"
       x1="0"><stop
         id="stop468"
         offset="0"
         style="stop-opacity:0.2;stop-color:#ffffff" /><stop
         id="stop470"
         offset="1"
         style="stop-opacity:0;stop-color:#ffffff" /></linearGradient><mask
       id="mask474"
       height="1"
       width="1"
       y="0"
       x="0"
       maskUnits="userSpaceOnUse"><g
         id="g484"><g
           id="g482"
           clip-path="url(#clipPath466)"><g
             id="g480"><g
               id="g478"><path
                 id="path476"
                 style="fill:url(#linearGradient472);stroke:none"
                 d="M -32768,32767 H 32767 V -32768 H -32768 Z" /></g></g></g></g></mask><linearGradient
       id="linearGradient494"
       spreadMethod="pad"
       gradientTransform="matrix(43.590168,-20.324039,20.324039,43.590168,145.46855,105.33611)"
       gradientUnits="userSpaceOnUse"
       y2="0"
       x2="1"
       y1="0"
       x1="0"><stop
         id="stop490"
         offset="0"
         style="stop-opacity:1;stop-color:#ffffff" /><stop
         id="stop492"
         offset="1"
         style="stop-opacity:1;stop-color:#ffffff" /></linearGradient><clipPath
       id="clipPath504"
       clipPathUnits="userSpaceOnUse"><path
         id="path502"
         d="M 0,134 H 274 V 0 H 0 Z" /></clipPath><clipPath
       id="clipPath520"
       clipPathUnits="userSpaceOnUse"><path
         id="path518"
         d="m 150.252,55.1855 h 39.056 V 16.1292 h -39.056 z" /></clipPath><clipPath
       id="clipPath560"
       clipPathUnits="userSpaceOnUse"><path
         id="path558"
         d="m 143.215,38.174 c 0,-13.26 10.787,-24.049 24.049,-24.049 v 0 c 13.262,0 24.048,10.789 24.048,24.049 v 0 c 0,13.261 -10.786,24.049 -24.048,24.049 v 0 c -13.262,0 -24.049,-10.788 -24.049,-24.049" /></clipPath><clipPath
       id="clipPath568"
       clipPathUnits="userSpaceOnUse"><path
         id="path566"
         d="M -32768,32767 H 32767 V -32768 H -32768 Z" /></clipPath><linearGradient
       id="linearGradient574"
       spreadMethod="pad"
       gradientTransform="matrix(43.590168,-20.324039,20.324039,43.590168,145.46855,48.336109)"
       gradientUnits="userSpaceOnUse"
       y2="0"
       x2="1"
       y1="0"
       x1="0"><stop
         id="stop570"
         offset="0"
         style="stop-opacity:0.2;stop-color:#ffffff" /><stop
         id="stop572"
         offset="1"
         style="stop-opacity:0;stop-color:#ffffff" /></linearGradient><mask
       id="mask576"
       height="1"
       width="1"
       y="0"
       x="0"
       maskUnits="userSpaceOnUse"><g
         id="g586"><g
           id="g584"
           clip-path="url(#clipPath568)"><g
             id="g582"><g
               id="g580"><path
                 id="path578"
                 style="fill:url(#linearGradient574);stroke:none"
                 d="M -32768,32767 H 32767 V -32768 H -32768 Z" /></g></g></g></g></mask><linearGradient
       id="linearGradient596"
       spreadMethod="pad"
       gradientTransform="matrix(43.590168,-20.324039,20.324039,43.590168,145.46855,48.336109)"
       gradientUnits="userSpaceOnUse"
       y2="0"
       x2="1"
       y1="0"
       x1="0"><stop
         id="stop592"
         offset="0"
         style="stop-opacity:1;stop-color:#ffffff" /><stop
         id="stop594"
         offset="1"
         style="stop-opacity:1;stop-color:#ffffff" /></linearGradient><clipPath
       id="clipPath606"
       clipPathUnits="userSpaceOnUse"><path
         id="path604"
         d="M 0,134 H 274 V 0 H 0 Z" /></clipPath><clipPath
       id="clipPath646"
       clipPathUnits="userSpaceOnUse"><path
         id="path644"
         d="m 215.252,55.1855 h 39.056 V 16.1292 h -39.056 z" /></clipPath><clipPath
       id="clipPath674"
       clipPathUnits="userSpaceOnUse"><path
         id="path672"
         d="m 221.176,28.8403 h 22.337 v -5.7718 h -22.337 z" /></clipPath><clipPath
       id="clipPath722"
       clipPathUnits="userSpaceOnUse"><path
         id="path720"
         d="m 70.214,39.174 c 0,-13.26 10.788,-24.049 24.049,-24.049 v 0 c 13.263,0 24.049,10.789 24.049,24.049 v 0 c 0,13.261 -10.786,24.049 -24.049,24.049 v 0 c -13.261,0 -24.049,-10.788 -24.049,-24.049" /></clipPath><clipPath
       id="clipPath730"
       clipPathUnits="userSpaceOnUse"><path
         id="path728"
         d="M -32768,32767 H 32767 V -32768 H -32768 Z" /></clipPath><linearGradient
       id="linearGradient736"
       spreadMethod="pad"
       gradientTransform="matrix(48.097836,0,0,-48.097836,70.214722,39.174087)"
       gradientUnits="userSpaceOnUse"
       y2="0"
       x2="1"
       y1="0"
       x1="0"><stop
         id="stop732"
         offset="0"
         style="stop-opacity:0.2;stop-color:#ffffff" /><stop
         id="stop734"
         offset="1"
         style="stop-opacity:0;stop-color:#ffffff" /></linearGradient><mask
       id="mask738"
       height="1"
       width="1"
       y="0"
       x="0"
       maskUnits="userSpaceOnUse"><g
         id="g748"><g
           id="g746"
           clip-path="url(#clipPath730)"><g
             id="g744"><g
               id="g742"><path
                 id="path740"
                 style="fill:url(#linearGradient736);stroke:none"
                 d="M -32768,32767 H 32767 V -32768 H -32768 Z" /></g></g></g></g></mask><linearGradient
       id="linearGradient758"
       spreadMethod="pad"
       gradientTransform="matrix(48.097836,0,0,-48.097836,70.214722,39.174087)"
       gradientUnits="userSpaceOnUse"
       y2="0"
       x2="1"
       y1="0"
       x1="0"><stop
         id="stop754"
         offset="0"
         style="stop-opacity:1;stop-color:#ffffff" /><stop
         id="stop756"
         offset="1"
         style="stop-opacity:1;stop-color:#ffffff" /></linearGradient><clipPath
       id="clipPath768"
       clipPathUnits="userSpaceOnUse"><path
         id="path766"
         d="m 208.215,38.174 c 0,-13.26 10.786,-24.049 24.049,-24.049 v 0 c 13.261,0 24.049,10.789 24.049,24.049 v 0 c 0,13.261 -10.788,24.049 -24.049,24.049 v 0 c -13.263,0 -24.049,-10.788 -24.049,-24.049" /></clipPath><clipPath
       id="clipPath776"
       clipPathUnits="userSpaceOnUse"><path
         id="path774"
         d="M -32768,32767 H 32767 V -32768 H -32768 Z" /></clipPath><linearGradient
       id="linearGradient782"
       spreadMethod="pad"
       gradientTransform="matrix(43.590168,-20.324039,20.324039,43.590168,210.46855,48.336109)"
       gradientUnits="userSpaceOnUse"
       y2="0"
       x2="1"
       y1="0"
       x1="0"><stop
         id="stop778"
         offset="0"
         style="stop-opacity:0.2;stop-color:#ffffff" /><stop
         id="stop780"
         offset="1"
         style="stop-opacity:0;stop-color:#ffffff" /></linearGradient><mask
       id="mask784"
       height="1"
       width="1"
       y="0"
       x="0"
       maskUnits="userSpaceOnUse"><g
         id="g794"><g
           id="g792"
           clip-path="url(#clipPath776)"><g
             id="g790"><g
               id="g788"><path
                 id="path786"
                 style="fill:url(#linearGradient782);stroke:none"
                 d="M -32768,32767 H 32767 V -32768 H -32768 Z" /></g></g></g></g></mask><linearGradient
       id="linearGradient804"
       spreadMethod="pad"
       gradientTransform="matrix(43.590168,-20.324039,20.324039,43.590168,210.46855,48.336109)"
       gradientUnits="userSpaceOnUse"
       y2="0"
       x2="1"
       y1="0"
       x1="0"><stop
         id="stop800"
         offset="0"
         style="stop-opacity:1;stop-color:#ffffff" /><stop
         id="stop802"
         offset="1"
         style="stop-opacity:1;stop-color:#ffffff" /></linearGradient></defs><g
     transform="matrix(1.3333333,0,0,-1.3333333,0,178.66667)"
     id="g10"><g
       id="g12"><g
         clip-path="url(#clipPath18)"
         id="g14"><g
           transform="translate(38.2637,63.2231)"
           id="g20"><path
             id="path22"
             style="fill:#263940;fill-opacity:1;fill-rule:nonzero;stroke:none"
             d="m 0,0 c -13.261,0 -24.049,-10.789 -24.049,-24.049 0,-13.261 10.788,-24.049 24.049,-24.049 13.262,0 24.049,10.788 24.049,24.049 C 24.049,-10.789 13.262,0 0,0" /></g><g
           transform="translate(38.2637,17.1294)"
           id="g24"><path
             id="path26"
             style="fill:#00a735;fill-opacity:1;fill-rule:nonzero;stroke:none"
             d="m 0,0 c -12.155,0 -22.045,9.889 -22.045,22.045 0,12.155 9.89,22.044 22.045,22.044 12.155,0 22.045,-9.889 22.045,-22.044 C 22.045,9.889 12.155,0 0,0" /></g></g></g><g
       id="g28"><g
         clip-path="url(#clipPath34)"
         id="g30"><g
           id="g36"><g
             id="g38" /><g
             mask="url(#mask50)"
             id="g62"><g
               id="g64"><path
                 id="path72"
                 style="fill:url(#linearGradient70);stroke:none"
                 d="m 14.215,39.174 c 0,-13.26 10.787,-24.049 24.049,-24.049 v 0 c 13.261,0 24.048,10.789 24.048,24.049 v 0 c 0,13.261 -10.787,24.049 -24.048,24.049 v 0 c -13.262,0 -24.049,-10.788 -24.049,-24.049" /></g></g></g></g></g><g
       id="g74"><g
         clip-path="url(#clipPath80)"
         id="g76"><g
           id="g82"><g
             id="g84" /><g
             id="g96"><g
               style="opacity:0.10000598"
               id="g94"
               clip-path="url(#clipPath88)"><g
                 id="g92"
                 transform="translate(52.2686,56.1855)"><path
                   id="path90"
                   style="fill:#000000;fill-opacity:1;fill-rule:nonzero;stroke:none"
                   d="m 0,0 c 3.144,-3.811 5.034,-8.691 5.034,-14.005 0,-12.156 -9.889,-22.045 -22.045,-22.045 -5.314,0 -10.195,1.89 -14.005,5.033 4.046,-4.906 10.169,-8.039 17.011,-8.039 12.155,0 22.045,9.889 22.045,22.045 C 8.04,-10.17 4.907,-4.046 0,0" /></g></g></g></g><g
           transform="translate(47.2803,47.1904)"
           id="g98"><path
             id="path100"
             style="fill:#263940;fill-opacity:1;fill-rule:nonzero;stroke:none"
             d="m 0,0 c 1.106,0 2.004,-0.897 2.004,-2.004 0,-1.107 -0.898,-2.004 -2.004,-2.004 -1.107,0 -2.005,0.897 -2.005,2.004 C -2.005,-0.897 -1.107,0 0,0" /></g><g
           transform="translate(31.2803,47.1904)"
           id="g102"><path
             id="path104"
             style="fill:#263940;fill-opacity:1;fill-rule:nonzero;stroke:none"
             d="m 0,0 c 1.106,0 2.004,-0.897 2.004,-2.004 0,-1.107 -0.898,-2.004 -2.004,-2.004 -1.107,0 -2.005,0.897 -2.005,2.004 C -2.005,-0.897 -1.107,0 0,0" /></g><g
           transform="translate(51.1689,35.124)"
           id="g106"><path
             id="path108"
             style="fill:#263940;fill-opacity:1;fill-rule:nonzero;stroke:none"
             d="m 0,0 c -0.53,0.131 -1.078,-0.205 -1.206,-0.743 -1.291,-5.438 -6.102,-9.236 -11.699,-9.236 -5.606,0 -10.418,3.804 -11.703,9.249 -0.126,0.539 -0.655,0.865 -1.206,0.746 -0.539,-0.128 -0.871,-0.668 -0.744,-1.206 1.499,-6.355 7.114,-10.792 13.653,-10.792 6.531,0 12.141,4.43 13.648,10.775 C 0.871,-0.667 0.538,-0.127 0,0" /></g><g
           transform="translate(38,119.0488)"
           id="g110"><path
             id="path112"
             style="fill:#263940;fill-opacity:1;fill-rule:nonzero;stroke:none"
             d="m 0,0 c -13.26,0 -24.049,-10.789 -24.049,-24.049 0,-13.26 10.789,-24.049 24.049,-24.049 13.261,0 24.049,10.789 24.049,24.049 C 24.049,-10.789 13.261,0 0,0" /></g><g
           transform="translate(38,72.9551)"
           id="g114"><path
             id="path116"
             style="fill:#ff3731;fill-opacity:1;fill-rule:nonzero;stroke:none"
             d="m 0,0 c -12.156,0 -22.045,9.889 -22.045,22.045 0,12.156 9.889,22.045 22.045,22.045 12.155,0 22.045,-9.889 22.045,-22.045 C 22.045,9.889 12.155,0 0,0" /></g><g
           id="g118"><g
             id="g120" /><g
             id="g132"><g
               style="opacity:0.10000598"
               id="g130"
               clip-path="url(#clipPath124)"><g
                 id="g128"
                 transform="translate(52.2686,111.7734)"><path
                   id="path126"
                   style="fill:#000000;fill-opacity:1;fill-rule:nonzero;stroke:none"
                   d="m 0,0 c 3.279,-3.849 5.271,-8.827 5.271,-14.269 0,-12.155 -9.889,-22.044 -22.044,-22.044 -5.442,0 -10.42,1.992 -14.269,5.271 4.046,-4.75 10.059,-7.776 16.773,-7.776 12.156,0 22.045,9.889 22.045,22.045 C 7.776,-10.059 4.75,-4.046 0,0" /></g></g></g></g><g
           transform="translate(51.0264,102.0142)"
           id="g134"><path
             id="path136"
             style="fill:#263940;fill-opacity:1;fill-rule:nonzero;stroke:none"
             d="m 0,0 c -0.554,0 -1.002,-0.448 -1.002,-1.002 0,-2.21 -1.798,-4.008 -4.008,-4.008 -2.211,0 -4.009,1.798 -4.009,4.008 0,0.554 -0.448,1.002 -1.002,1.002 -0.553,0 -1.001,-0.448 -1.001,-1.002 0,-3.315 2.697,-6.012 6.012,-6.012 3.316,0 6.012,2.697 6.012,6.012 C 1.002,-0.448 0.554,0 0,0" /></g><g
           transform="translate(35.9961,101.0122)"
           id="g138"><path
             id="path140"
             style="fill:#263940;fill-opacity:1;fill-rule:nonzero;stroke:none"
             d="m 0,0 c 0,0.554 -0.448,1.002 -1.002,1.002 -0.554,0 -1.002,-0.448 -1.002,-1.002 0,-2.21 -1.798,-4.008 -4.009,-4.008 -2.21,0 -4.008,1.798 -4.008,4.008 0,0.554 -0.448,1.002 -1.001,1.002 -0.555,0 -1.003,-0.448 -1.003,-1.002 0,-3.315 2.697,-6.012 6.012,-6.012 C -2.697,-6.012 0,-3.315 0,0" /></g><g
           transform="translate(38,88.9878)"
           id="g142"><path
             id="path144"
             style="fill:#263940;fill-opacity:1;fill-rule:nonzero;stroke:none"
             d="m 0,0 h -0.003 c -8.419,0 -11.685,-4.229 -11.821,-4.41 -0.331,-0.44 -0.241,-1.061 0.197,-1.395 0.439,-0.333 1.064,-0.247 1.402,0.188 0.114,0.148 2.875,3.613 10.222,3.613 H 0 c 7.349,-10e-4 10.111,-3.466 10.221,-3.608 0.197,-0.263 0.497,-0.4 0.802,-0.4 0.209,0 0.42,0.065 0.601,0.2 0.442,0.332 0.532,0.96 0.2,1.404 C 11.688,-4.229 8.421,-0.001 0,0" /></g><g
           transform="translate(53.2275,105.001)"
           id="g146"><path
             id="path148"
             style="fill:#263940;fill-opacity:1;fill-rule:nonzero;stroke:none"
             d="m 0,0 -10.021,2.004 c -0.548,0.116 -1.071,-0.243 -1.179,-0.786 -0.109,-0.543 0.244,-1.071 0.786,-1.179 l 10.02,-2.004 c 0.067,-0.014 0.133,-0.02 0.198,-0.02 0.467,0 0.886,0.329 0.981,0.806 C 0.895,-0.636 0.542,-0.109 0,0" /></g><g
           transform="translate(33.9727,106.2192)"
           id="g150"><path
             id="path152"
             style="fill:#263940;fill-opacity:1;fill-rule:nonzero;stroke:none"
             d="M 0,0 C -0.109,0.542 -0.629,0.899 -1.18,0.786 L -11.2,-1.218 c -0.542,-0.109 -0.894,-0.636 -0.786,-1.179 0.095,-0.477 0.514,-0.806 0.982,-0.806 0.065,0 0.131,0.006 0.197,0.02 l 10.021,2.004 C -0.244,-1.071 0.108,-0.543 0,0" /></g><g
           transform="translate(94,119.0488)"
           id="g154"><path
             id="path156"
             style="fill:#263940;fill-opacity:1;fill-rule:nonzero;stroke:none"
             d="m 0,0 c -13.261,0 -24.049,-10.789 -24.049,-24.049 0,-13.26 10.788,-24.049 24.049,-24.049 13.261,0 24.049,10.789 24.049,24.049 C 24.049,-10.789 13.261,0 0,0" /></g><g
           transform="translate(94,72.9551)"
           id="g158"><path
             id="path160"
             style="fill:#f4f4f4;fill-opacity:1;fill-rule:nonzero;stroke:none"
             d="m 0,0 c -12.155,0 -22.045,9.889 -22.045,22.045 0,12.156 9.89,22.045 22.045,22.045 12.155,0 22.045,-9.889 22.045,-22.045 C 22.045,9.889 12.155,0 0,0" /></g><g
           id="g162"><g
             id="g164" /><g
             id="g176"><g
               style="opacity:0.10000598"
               id="g174"
               clip-path="url(#clipPath168)"><g
                 id="g172"
                 transform="translate(108.2686,111.7734)"><path
                   id="path170"
                   style="fill:#000000;fill-opacity:1;fill-rule:nonzero;stroke:none"
                   d="m 0,0 c 3.279,-3.849 5.271,-8.827 5.271,-14.269 0,-12.155 -9.889,-22.044 -22.044,-22.044 -5.442,0 -10.42,1.992 -14.269,5.271 4.047,-4.75 10.059,-7.776 16.773,-7.776 12.156,0 22.045,9.889 22.045,22.045 C 7.776,-10.059 4.75,-4.046 0,0" /></g></g></g></g><g
           transform="translate(107.0264,102.0142)"
           id="g178"><path
             id="path180"
             style="fill:#263940;fill-opacity:1;fill-rule:nonzero;stroke:none"
             d="m 0,0 c -0.554,0 -1.002,-0.448 -1.002,-1.002 0,-2.21 -1.798,-4.008 -4.008,-4.008 -2.211,0 -4.009,1.798 -4.009,4.008 0,0.554 -0.448,1.002 -1.002,1.002 -0.553,0 -1.001,-0.448 -1.001,-1.002 0,-3.315 2.697,-6.012 6.012,-6.012 3.316,0 6.012,2.697 6.012,6.012 C 1.002,-0.448 0.554,0 0,0" /></g><g
           transform="translate(91.9961,101.0122)"
           id="g182"><path
             id="path184"
             style="fill:#263940;fill-opacity:1;fill-rule:nonzero;stroke:none"
             d="m 0,0 c 0,0.554 -0.448,1.002 -1.002,1.002 -0.554,0 -1.002,-0.448 -1.002,-1.002 0,-2.21 -1.798,-4.008 -4.009,-4.008 -2.21,0 -4.008,1.798 -4.008,4.008 0,0.554 -0.448,1.002 -1.001,1.002 -0.554,0 -1.002,-0.448 -1.002,-1.002 0,-3.315 2.696,-6.012 6.011,-6.012 C -2.697,-6.012 0,-3.315 0,0" /></g><g
           transform="translate(94,88.9878)"
           id="g186"><path
             id="path188"
             style="fill:#263940;fill-opacity:1;fill-rule:nonzero;stroke:none"
             d="m 0,0 h -0.003 c -8.419,0 -11.685,-4.229 -11.821,-4.41 -0.33,-0.44 -0.241,-1.061 0.197,-1.395 0.439,-0.333 1.064,-0.247 1.402,0.188 0.114,0.148 2.875,3.613 10.222,3.613 H 0 c 7.349,-10e-4 10.111,-3.466 10.221,-3.608 0.197,-0.263 0.497,-0.4 0.802,-0.4 0.209,0 0.42,0.065 0.601,0.2 0.442,0.332 0.532,0.96 0.2,1.404 C 11.688,-4.229 8.421,-0.001 0,0" /></g><g
           transform="translate(109.2275,105.001)"
           id="g190"><path
             id="path192"
             style="fill:#263940;fill-opacity:1;fill-rule:nonzero;stroke:none"
             d="m 0,0 -10.021,2.004 c -0.548,0.116 -1.071,-0.243 -1.179,-0.786 -0.109,-0.543 0.244,-1.071 0.786,-1.179 l 10.02,-2.004 c 0.067,-0.014 0.133,-0.02 0.198,-0.02 0.467,0 0.886,0.329 0.981,0.806 C 0.895,-0.636 0.542,-0.109 0,0" /></g><g
           transform="translate(89.9727,106.2192)"
           id="g194"><path
             id="path196"
             style="fill:#263940;fill-opacity:1;fill-rule:nonzero;stroke:none"
             d="M 0,0 C -0.109,0.542 -0.629,0.899 -1.18,0.786 L -11.2,-1.218 c -0.542,-0.109 -0.895,-0.636 -0.785,-1.179 0.094,-0.477 0.513,-0.806 0.981,-0.806 0.065,0 0.131,0.006 0.197,0.02 l 10.021,2.004 C -0.244,-1.071 0.108,-0.543 0,0" /></g></g></g><g
       id="g198"><g
         clip-path="url(#clipPath204)"
         id="g200"><g
           id="g206"><g
             id="g208" /><g
             mask="url(#mask220)"
             id="g232"><g
               id="g234"><path
                 id="path242"
                 style="fill:url(#linearGradient240);stroke:none"
                 d="M 69.952,95 C 69.952,81.74 80.739,70.952 94,70.952 v 0 c 13.261,0 24.049,10.788 24.049,24.048 v 0 c 0,13.26 -10.788,24.048 -24.049,24.048 v 0 C 80.739,119.048 69.952,108.26 69.952,95" /></g></g></g></g></g><g
       id="g244"><g
         clip-path="url(#clipPath250)"
         id="g246"><g
           id="g252"><g
             id="g254" /><g
             mask="url(#mask266)"
             id="g278"><g
               id="g280"><path
                 id="path288"
                 style="fill:url(#linearGradient286);stroke:none"
                 d="M 13.951,95 C 13.951,81.74 24.74,70.952 38,70.952 v 0 c 13.26,0 24.049,10.788 24.049,24.048 v 0 c 0,13.26 -10.789,24.048 -24.049,24.048 v 0 C 24.74,119.048 13.951,108.26 13.951,95" /></g></g></g></g></g><g
       id="g290"><g
         clip-path="url(#clipPath296)"
         id="g292"><g
           transform="translate(94.2637,63.2231)"
           id="g298"><path
             id="path300"
             style="fill:#263940;fill-opacity:1;fill-rule:nonzero;stroke:none"
             d="m 0,0 c -13.262,0 -24.049,-10.789 -24.049,-24.049 0,-13.261 10.787,-24.049 24.049,-24.049 13.262,0 24.049,10.788 24.049,24.049 C 24.049,-10.789 13.262,0 0,0" /></g><g
           transform="translate(94.2637,17.1294)"
           id="g302"><path
             id="path304"
             style="fill:#f4f4f4;fill-opacity:1;fill-rule:nonzero;stroke:none"
             d="m 0,0 c -12.155,0 -22.045,9.889 -22.045,22.045 0,12.155 9.89,22.044 22.045,22.044 12.155,0 22.045,-9.889 22.045,-22.044 C 22.045,9.889 12.155,0 0,0" /></g><g
           id="g306"><g
             id="g308" /><g
             id="g320"><g
               style="opacity:0.10000598"
               id="g318"
               clip-path="url(#clipPath312)"><g
                 id="g316"
                 transform="translate(108.2686,56.1855)"><path
                   id="path314"
                   style="fill:#000000;fill-opacity:1;fill-rule:nonzero;stroke:none"
                   d="m 0,0 c 3.144,-3.811 5.034,-8.691 5.034,-14.005 0,-12.156 -9.889,-22.045 -22.045,-22.045 -5.314,0 -10.194,1.89 -14.006,5.033 4.047,-4.906 10.17,-8.039 17.012,-8.039 12.155,0 22.045,9.889 22.045,22.045 C 8.04,-10.17 4.907,-4.046 0,0" /></g></g></g></g><g
           transform="translate(103.2803,47.1904)"
           id="g322"><path
             id="path324"
             style="fill:#263940;fill-opacity:1;fill-rule:nonzero;stroke:none"
             d="m 0,0 c 1.106,0 2.004,-0.897 2.004,-2.004 0,-1.107 -0.898,-2.004 -2.004,-2.004 -1.107,0 -2.005,0.897 -2.005,2.004 C -2.005,-0.897 -1.107,0 0,0" /></g><g
           transform="translate(87.2803,47.1904)"
           id="g326"><path
             id="path328"
             style="fill:#263940;fill-opacity:1;fill-rule:nonzero;stroke:none"
             d="m 0,0 c 1.106,0 2.004,-0.897 2.004,-2.004 0,-1.107 -0.898,-2.004 -2.004,-2.004 -1.107,0 -2.005,0.897 -2.005,2.004 C -2.005,-0.897 -1.107,0 0,0" /></g><g
           transform="translate(107.1689,35.124)"
           id="g330"><path
             id="path332"
             style="fill:#263940;fill-opacity:1;fill-rule:nonzero;stroke:none"
             d="m 0,0 c -0.53,0.131 -1.078,-0.205 -1.206,-0.743 -1.291,-5.438 -6.102,-9.236 -11.699,-9.236 -5.606,0 -10.418,3.804 -11.703,9.249 -0.126,0.539 -0.655,0.865 -1.206,0.746 -0.539,-0.128 -0.872,-0.668 -0.744,-1.206 1.499,-6.355 7.114,-10.792 13.653,-10.792 6.531,0 12.141,4.43 13.648,10.775 C 0.871,-0.667 0.538,-0.127 0,0" /></g><g
           transform="translate(167.2637,119.2231)"
           id="g334"><path
             id="path336"
             style="fill:#263940;fill-opacity:1;fill-rule:nonzero;stroke:none"
             d="m 0,0 c -13.262,0 -24.049,-10.789 -24.049,-24.049 0,-13.261 10.787,-24.049 24.049,-24.049 13.262,0 24.049,10.788 24.049,24.049 C 24.049,-10.789 13.262,0 0,0" /></g><g
           transform="translate(167.2637,73.1294)"
           id="g338"><path
             id="path340"
             style="fill:#ff7c18;fill-opacity:1;fill-rule:nonzero;stroke:none"
             d="m 0,0 c -12.155,0 -22.045,9.889 -22.045,22.045 0,12.155 9.89,22.044 22.045,22.044 12.155,0 22.045,-9.889 22.045,-22.044 C 22.045,9.889 12.155,0 0,0" /></g><g
           id="g342"><g
             id="g344" /><g
             id="g356"><g
               style="opacity:0.10000598"
               id="g354"
               clip-path="url(#clipPath348)"><g
                 id="g352"
                 transform="translate(181.2686,112.1855)"><path
                   id="path350"
                   style="fill:#000000;fill-opacity:1;fill-rule:nonzero;stroke:none"
                   d="m 0,0 c 3.144,-3.811 5.034,-8.691 5.034,-14.005 0,-12.156 -9.889,-22.045 -22.045,-22.045 -5.314,0 -10.194,1.89 -14.006,5.033 4.047,-4.906 10.17,-8.039 17.012,-8.039 12.155,0 22.045,9.889 22.045,22.045 C 8.04,-10.17 4.907,-4.046 0,0" /></g></g></g></g><g
           transform="translate(176.2803,103.1904)"
           id="g358"><path
             id="path360"
             style="fill:#263940;fill-opacity:1;fill-rule:nonzero;stroke:none"
             d="m 0,0 c 1.106,0 2.004,-0.897 2.004,-2.004 0,-1.107 -0.898,-2.004 -2.004,-2.004 -1.107,0 -2.005,0.897 -2.005,2.004 C -2.005,-0.897 -1.107,0 0,0" /></g><g
           transform="translate(158.2803,103.1904)"
           id="g362"><path
             id="path364"
             style="fill:#263940;fill-opacity:1;fill-rule:nonzero;stroke:none"
             d="m 0,0 c 1.106,0 2.004,-0.897 2.004,-2.004 0,-1.107 -0.898,-2.004 -2.004,-2.004 -1.107,0 -2.005,0.897 -2.005,2.004 C -2.005,-0.897 -1.107,0 0,0" /></g><g
           transform="translate(158.0937,84.6816)"
           id="g366"><path
             id="path368"
             style="fill:#263940;fill-opacity:1;fill-rule:nonzero;stroke:none"
             d="m 0,0 c -0.259,0.591 0.037,1.27 0.663,1.516 0.154,0.06 0.314,0.088 0.47,0.088 0.481,0 0.937,-0.27 1.134,-0.715 1.135,-2.584 3.947,-4.254 7.165,-4.254 3.144,0 5.939,1.672 7.123,4.256 0.267,0.588 0.99,0.86 1.611,0.606 0.623,-0.255 0.908,-0.938 0.639,-1.525 C 17.233,-3.463 13.555,-5.682 9.432,-5.682 5.219,-5.682 1.518,-3.453 0,0" /></g><g
           transform="translate(224.2637,119.2231)"
           id="g370"><path
             id="path372"
             style="fill:#263940;fill-opacity:1;fill-rule:nonzero;stroke:none"
             d="m 0,0 c -13.262,0 -24.049,-10.789 -24.049,-24.049 0,-13.261 10.787,-24.049 24.049,-24.049 13.262,0 24.049,10.788 24.049,24.049 C 24.049,-10.789 13.262,0 0,0" /></g><g
           transform="translate(224.2637,73.1294)"
           id="g374"><path
             id="path376"
             style="fill:#f4f4f4;fill-opacity:1;fill-rule:nonzero;stroke:none"
             d="m 0,0 c -12.155,0 -22.045,9.889 -22.045,22.045 0,12.155 9.89,22.044 22.045,22.044 12.155,0 22.045,-9.889 22.045,-22.044 C 22.045,9.889 12.155,0 0,0" /></g><g
           id="g378"><g
             id="g380" /><g
             id="g392"><g
               style="opacity:0.10000598"
               id="g390"
               clip-path="url(#clipPath384)"><g
                 id="g388"
                 transform="translate(238.2686,112.1855)"><path
                   id="path386"
                   style="fill:#000000;fill-opacity:1;fill-rule:nonzero;stroke:none"
                   d="m 0,0 c 3.144,-3.811 5.034,-8.691 5.034,-14.005 0,-12.156 -9.889,-22.045 -22.045,-22.045 -5.314,0 -10.194,1.89 -14.006,5.033 4.047,-4.906 10.17,-8.039 17.012,-8.039 12.155,0 22.045,9.889 22.045,22.045 C 8.04,-10.17 4.907,-4.046 0,0" /></g></g></g></g><g
           transform="translate(233.2803,103.1904)"
           id="g394"><path
             id="path396"
             style="fill:#263940;fill-opacity:1;fill-rule:nonzero;stroke:none"
             d="m 0,0 c 1.106,0 2.004,-0.897 2.004,-2.004 0,-1.107 -0.898,-2.004 -2.004,-2.004 -1.107,0 -2.005,0.897 -2.005,2.004 C -2.005,-0.897 -1.107,0 0,0" /></g><g
           transform="translate(215.2803,103.1904)"
           id="g398"><path
             id="path400"
             style="fill:#263940;fill-opacity:1;fill-rule:nonzero;stroke:none"
             d="m 0,0 c 1.106,0 2.004,-0.897 2.004,-2.004 0,-1.107 -0.898,-2.004 -2.004,-2.004 -1.107,0 -2.005,0.897 -2.005,2.004 C -2.005,-0.897 -1.107,0 0,0" /></g><g
           transform="translate(215.0937,84.6816)"
           id="g402"><path
             id="path404"
             style="fill:#263940;fill-opacity:1;fill-rule:nonzero;stroke:none"
             d="m 0,0 c -0.259,0.591 0.037,1.27 0.663,1.516 0.154,0.06 0.314,0.088 0.47,0.088 0.481,0 0.937,-0.27 1.134,-0.715 1.135,-2.584 3.947,-4.254 7.165,-4.254 3.144,0 5.939,1.672 7.123,4.256 0.267,0.588 0.99,0.86 1.611,0.606 0.623,-0.255 0.908,-0.938 0.639,-1.525 C 17.233,-3.463 13.555,-5.682 9.432,-5.682 5.219,-5.682 1.518,-3.453 0,0" /></g></g></g><g
       id="g406"><g
         clip-path="url(#clipPath412)"
         id="g408"><g
           id="g414"><g
             id="g416" /><g
             mask="url(#mask428)"
             id="g440"><g
               id="g442"><path
                 id="path450"
                 style="fill:url(#linearGradient448);stroke:none"
                 d="m 200.215,95.174 c 0,-13.261 10.787,-24.049 24.049,-24.049 v 0 c 13.261,0 24.049,10.788 24.049,24.049 v 0 c 0,13.261 -10.788,24.049 -24.049,24.049 v 0 c -13.262,0 -24.049,-10.788 -24.049,-24.049" /></g></g></g></g></g><g
       id="g452"><g
         clip-path="url(#clipPath458)"
         id="g454"><g
           id="g460"><g
             id="g462" /><g
             mask="url(#mask474)"
             id="g486"><g
               id="g488"><path
                 id="path496"
                 style="fill:url(#linearGradient494);stroke:none"
                 d="m 143.215,95.174 c 0,-13.261 10.787,-24.049 24.049,-24.049 v 0 c 13.262,0 24.048,10.788 24.048,24.049 v 0 c 0,13.261 -10.786,24.049 -24.048,24.049 v 0 c -13.262,0 -24.049,-10.788 -24.049,-24.049" /></g></g></g></g></g><g
       id="g498"><g
         clip-path="url(#clipPath504)"
         id="g500"><g
           transform="translate(167.2637,62.2231)"
           id="g506"><path
             id="path508"
             style="fill:#263940;fill-opacity:1;fill-rule:nonzero;stroke:none"
             d="m 0,0 c -13.262,0 -24.049,-10.789 -24.049,-24.049 0,-13.261 10.787,-24.049 24.049,-24.049 13.262,0 24.049,10.788 24.049,24.049 C 24.049,-10.789 13.262,0 0,0" /></g><g
           transform="translate(167.2637,16.1294)"
           id="g510"><path
             id="path512"
             style="fill:#ffdf00;fill-opacity:1;fill-rule:nonzero;stroke:none"
             d="m 0,0 c -12.155,0 -22.045,9.889 -22.045,22.045 0,12.155 9.89,22.044 22.045,22.044 12.155,0 22.045,-9.889 22.045,-22.044 C 22.045,9.889 12.155,0 0,0" /></g><g
           id="g514"><g
             id="g516" /><g
             id="g528"><g
               style="opacity:0.10000598"
               id="g526"
               clip-path="url(#clipPath520)"><g
                 id="g524"
                 transform="translate(181.2686,55.1855)"><path
                   id="path522"
                   style="fill:#000000;fill-opacity:1;fill-rule:nonzero;stroke:none"
                   d="m 0,0 c 3.144,-3.811 5.034,-8.691 5.034,-14.005 0,-12.156 -9.889,-22.045 -22.045,-22.045 -5.314,0 -10.194,1.89 -14.006,5.033 4.047,-4.906 10.17,-8.039 17.012,-8.039 12.155,0 22.045,9.889 22.045,22.045 C 8.04,-10.17 4.907,-4.046 0,0" /></g></g></g></g><g
           transform="translate(176.2803,46.1904)"
           id="g530"><path
             id="path532"
             style="fill:#263940;fill-opacity:1;fill-rule:nonzero;stroke:none"
             d="m 0,0 c 1.106,0 2.004,-0.897 2.004,-2.004 0,-1.107 -0.898,-2.004 -2.004,-2.004 -1.107,0 -2.005,0.897 -2.005,2.004 C -2.005,-0.897 -1.107,0 0,0" /></g><g
           transform="translate(158.2803,46.1904)"
           id="g534"><path
             id="path536"
             style="fill:#263940;fill-opacity:1;fill-rule:nonzero;stroke:none"
             d="m 0,0 c 1.106,0 2.004,-0.897 2.004,-2.004 0,-1.107 -0.898,-2.004 -2.004,-2.004 -1.107,0 -2.005,0.897 -2.005,2.004 C -2.005,-0.897 -1.107,0 0,0" /></g><g
           transform="translate(155.5557,32.624)"
           id="g538"><path
             id="path540"
             style="fill:#ffffff;fill-opacity:1;fill-rule:nonzero;stroke:none"
             d="m 0,0 h 23.577 c 0,-1.323 -0.218,-2.596 -0.62,-3.784 H 0.621 C 0.219,-2.596 0,-1.323 0,0" /></g><g
           transform="translate(156.1768,28.8403)"
           id="g542"><path
             id="path544"
             style="fill:#cd0200;fill-opacity:1;fill-rule:nonzero;stroke:none"
             d="m 0,0 h 22.336 c -0.793,-2.342 -2.302,-4.352 -4.265,-5.772 -0.825,1.391 -2.342,2.322 -4.076,2.322 -1.06,0 -2.038,-0.348 -2.827,-0.936 C 10.378,-3.798 9.399,-3.45 8.34,-3.45 6.605,-3.45 5.089,-4.381 4.265,-5.772 2.301,-4.352 0.792,-2.342 0,0" /></g><g
           transform="translate(170.1719,25.3901)"
           id="g546"><path
             id="path548"
             style="fill:#ff531f;fill-opacity:1;fill-rule:nonzero;stroke:none"
             d="m 0,0 c 1.734,0 3.251,-0.931 4.076,-2.322 -1.94,-1.405 -4.326,-2.233 -6.903,-2.233 -2.577,0 -4.963,0.828 -6.903,2.233 C -8.906,-0.931 -7.39,0 -5.655,0 -4.596,0 -3.617,-0.348 -2.827,-0.936 -2.038,-0.348 -1.061,0 0,0" /></g><g
           transform="translate(174.4189,24.3037)"
           id="g550"><path
             id="path552"
             style="fill:#263940;fill-opacity:1;fill-rule:nonzero;stroke:none"
             d="m 0,0 c -1.055,1.222 -2.608,1.954 -4.248,1.954 -1.006,0 -1.972,-0.263 -2.826,-0.765 -0.856,0.502 -1.822,0.765 -2.828,0.765 -1.641,0 -3.195,-0.732 -4.248,-1.954 -1.196,1.015 -2.149,2.26 -2.81,3.67 H 2.812 C 2.149,2.26 1.196,1.015 0,0 m -12.738,-1.02 c 0.725,0.778 1.753,1.24 2.836,1.24 0.839,0 1.638,-0.264 2.309,-0.764 0.308,-0.229 0.729,-0.229 1.036,0 0.671,0.5 1.47,0.764 2.309,0.764 1.082,0 2.11,-0.462 2.836,-1.24 -1.702,-1.037 -3.643,-1.582 -5.662,-1.582 -2.021,0 -3.961,0.545 -5.664,1.582 M 3.813,7.454 C 3.759,6.758 3.638,6.073 3.452,5.403 h -21.054 c -0.185,0.67 -0.306,1.355 -0.361,2.051 z m 0.901,1.734 h -23.577 c -0.479,0 -0.867,-0.389 -0.867,-0.868 0,-1.388 0.224,-2.755 0.667,-4.062 0.846,-2.499 2.429,-4.642 4.577,-6.195 2.166,-1.569 4.728,-2.398 7.412,-2.398 2.682,0 5.246,0.829 7.411,2.398 2.148,1.553 3.731,3.696 4.578,6.195 0.441,1.306 0.666,2.673 0.666,4.062 0,0.479 -0.388,0.868 -0.867,0.868" /></g></g></g><g
       id="g554"><g
         clip-path="url(#clipPath560)"
         id="g556"><g
           id="g562"><g
             id="g564" /><g
             mask="url(#mask576)"
             id="g588"><g
               id="g590"><path
                 id="path598"
                 style="fill:url(#linearGradient596);stroke:none"
                 d="m 143.215,38.174 c 0,-13.26 10.787,-24.049 24.049,-24.049 v 0 c 13.262,0 24.048,10.789 24.048,24.049 v 0 c 0,13.261 -10.786,24.049 -24.048,24.049 v 0 c -13.262,0 -24.049,-10.788 -24.049,-24.049" /></g></g></g></g></g><g
       id="g600"><g
         clip-path="url(#clipPath606)"
         id="g602"><g
           transform="translate(143.4521,34.5552)"
           id="g608"><path
             id="path610"
             style="fill:#263940;fill-opacity:1;fill-rule:nonzero;stroke:none"
             d="M 0,0 C -0.001,0.015 -0.003,0.03 -0.004,0.045 0.197,0.11 0.422,0.14 0.597,0.249 1.065,0.539 1.513,0.863 1.969,1.174 2.827,3.533 1.843,6.02 -0.263,7.034 -1.89,7.817 -3.109,7.018 -2.965,5.22 c 0.072,-0.897 0.319,-1.784 0.53,-2.665 0.38,-1.58 1.189,-3.096 0.636,-4.802 0.076,-0.017 0.121,-0.041 0.157,-0.032 0.996,0.237 1.991,0.475 2.983,0.723 0.064,0.016 0.146,0.106 0.156,0.171 0.07,0.464 0.123,0.929 0.181,1.385 z m -2.794,-6.736 c -0.004,0.062 -0.009,0.124 -0.013,0.186 0.341,0.068 0.678,0.172 1.022,0.196 0.993,0.069 1.989,0.099 2.983,0.157 1.77,0.104 3.527,0.468 5.311,0.25 0.269,-0.033 0.404,0.113 0.361,0.348 -0.068,0.378 -0.117,0.79 -0.307,1.109 -0.781,1.314 -2.004,1.899 -3.5,1.964 -1.184,0.05 -2.331,-0.186 -3.447,-0.546 -1.316,-0.424 -2.636,-0.85 -3.917,-1.367 -0.882,-0.356 -1.417,-1.053 -0.572,-2.071 0.376,-0.454 0.333,-0.778 -0.025,-1.299 -0.197,-0.285 -0.424,-0.548 -0.617,-0.837 -0.312,-0.468 -0.291,-0.706 0.078,-1.12 0.104,-0.119 0.216,-0.233 0.336,-0.336 0.704,-0.604 0.816,-1.357 0.557,-2.201 -0.072,-0.235 -0.145,-0.471 -0.249,-0.693 -0.174,-0.368 -0.131,-0.665 0.156,-0.975 0.471,-0.508 0.66,-1.095 0.417,-1.795 -0.15,-0.432 -0.019,-0.851 0.332,-1.137 0.332,-0.27 0.689,-0.548 1.082,-0.698 2.402,-0.918 4.818,-0.966 7.229,-0.022 0.554,0.217 1.094,0.467 1.441,0.985 0.379,0.563 0.194,1.272 -0.439,1.506 -0.295,0.109 -0.652,0.121 -0.968,0.083 -1.031,-0.126 -2.054,-0.31 -3.084,-0.442 -0.538,-0.069 -1.076,-0.003 -1.536,0.318 -0.332,0.232 -0.635,0.506 -0.718,1.041 0.23,-0.086 0.397,-0.108 0.509,-0.199 0.838,-0.678 1.762,-0.554 2.722,-0.363 0.9,0.178 1.814,0.29 2.726,0.407 0.371,0.048 0.713,0.117 0.944,0.443 0.607,0.858 0.374,2.131 -0.536,2.66 -0.364,0.212 -0.802,0.425 -1.205,0.42 -1.221,-0.014 -2.444,-0.109 -3.662,-0.223 -0.898,-0.084 -1.785,-0.129 -2.663,0.121 -0.139,0.04 -0.267,0.115 -0.401,0.173 -0.002,0.046 -0.003,0.092 -0.005,0.138 0.262,0.096 0.52,0.256 0.788,0.274 0.556,0.037 1.122,0.049 1.674,-0.018 1.094,-0.133 2.18,-0.224 3.274,-0.023 1.131,0.209 2.208,0.052 3.22,-0.498 0.445,-0.243 0.717,-0.161 0.85,0.327 0.287,1.056 0.171,2.073 -0.473,2.972 -0.18,0.25 -0.496,0.433 -0.786,0.568 -1.116,0.52 -2.276,0.475 -3.475,0.309 -1.44,-0.199 -2.898,-0.282 -4.35,-0.38 -0.367,-0.025 -0.779,-0.027 -1.064,0.288 m 3.046,-12.819 c -1.425,0.111 -2.812,0.224 -4.065,0.981 -0.857,0.519 -1.255,1.366 -1.626,2.229 -0.057,0.131 -0.013,0.371 0.079,0.485 0.233,0.293 0.134,0.532 -0.035,0.786 -0.04,0.06 -0.071,0.129 -0.122,0.178 -0.683,0.65 -0.694,1.338 -0.232,2.143 0.436,0.758 0.324,1.204 -0.272,1.833 -1.002,1.054 -1.086,1.606 -0.309,2.864 0.313,0.508 0.386,0.9 0.056,1.446 -0.481,0.796 -0.227,1.999 0.562,2.578 0.655,0.481 1.397,0.87 2.146,1.192 0.545,0.233 0.709,0.557 0.711,1.11 10e-4,1.348 -0.311,2.63 -0.69,3.908 -0.356,1.204 -0.717,2.409 -0.653,3.69 0.064,1.322 0.792,2.369 1.933,2.544 C -1.69,8.5 -1.024,8.46 -0.489,8.25 1.247,7.57 2.521,6.344 3.272,4.622 3.799,3.415 3.526,2.262 3.007,1.112 2.713,0.46 2.52,-0.238 2.298,-0.921 2.185,-1.268 2.313,-1.42 2.701,-1.409 c 1.03,0.031 2,-0.236 2.921,-0.684 C 7.061,-2.792 7.728,-4 7.876,-5.54 c 0.031,-0.329 -0.02,-0.668 0.021,-0.995 0.042,-0.338 0.082,-0.704 0.242,-0.994 0.939,-1.716 0.624,-3.324 -0.336,-4.904 -0.105,-0.172 -0.127,-0.395 -0.184,-0.595 -0.146,-0.519 -0.293,-1.039 -0.435,-1.559 -0.033,-0.116 -0.108,-0.265 -0.065,-0.348 0.524,-1.016 0.063,-1.812 -0.566,-2.561 -0.752,-0.895 -1.779,-1.335 -2.883,-1.552 -1.129,-0.223 -2.277,-0.343 -3.418,-0.507" /></g><g
           transform="translate(140.6582,27.8193)"
           id="g612"><path
             id="path614"
             style="fill:#ffd8b7;fill-opacity:1;fill-rule:nonzero;stroke:none"
             d="m 0,0 c 0.285,-0.315 0.697,-0.313 1.063,-0.289 1.453,0.099 2.911,0.182 4.351,0.381 1.199,0.166 2.358,0.211 3.475,-0.309 0.29,-0.136 0.606,-0.318 0.786,-0.569 0.644,-0.899 0.76,-1.915 0.472,-2.971 -0.132,-0.489 -0.404,-0.57 -0.849,-0.327 -1.012,0.55 -2.089,0.707 -3.22,0.498 C 4.984,-3.788 3.897,-3.696 2.804,-3.563 2.252,-3.497 1.686,-3.508 1.13,-3.545 0.862,-3.563 0.604,-3.724 0.342,-3.819 0.344,-3.865 0.345,-3.911 0.347,-3.957 0.48,-4.016 0.609,-4.09 0.748,-4.13 c 0.878,-0.25 1.765,-0.205 2.663,-0.121 1.218,0.114 2.441,0.209 3.662,0.223 0.403,0.005 0.841,-0.208 1.205,-0.42 0.91,-0.53 1.143,-1.802 0.535,-2.66 C 8.583,-7.434 8.241,-7.503 7.87,-7.551 6.958,-7.668 6.044,-7.78 5.144,-7.958 4.184,-8.149 3.26,-8.273 2.422,-7.595 2.31,-7.504 2.143,-7.482 1.913,-7.396 c 0.083,-0.536 0.386,-0.809 0.718,-1.041 0.46,-0.321 0.998,-0.387 1.536,-0.318 1.03,0.132 2.053,0.316 3.084,0.442 0.316,0.038 0.673,0.025 0.968,-0.083 0.633,-0.234 0.818,-0.943 0.439,-1.506 -0.347,-0.518 -0.887,-0.768 -1.441,-0.985 -2.411,-0.944 -4.827,-0.896 -7.229,0.022 -0.393,0.15 -0.75,0.428 -1.082,0.698 -0.351,0.286 -0.482,0.705 -0.332,1.137 0.243,0.7 0.054,1.287 -0.417,1.795 -0.287,0.31 -0.33,0.607 -0.156,0.975 0.103,0.221 0.177,0.458 0.249,0.693 0.259,0.844 0.146,1.597 -0.557,2.201 -0.12,0.103 -0.232,0.217 -0.337,0.336 -0.368,0.414 -0.389,0.652 -0.077,1.12 0.193,0.288 0.42,0.552 0.617,0.837 0.358,0.521 0.401,0.845 0.025,1.299 -0.845,1.018 -0.31,1.715 0.572,2.071 C -0.226,2.813 1.094,3.24 2.41,3.664 3.526,4.024 4.673,4.26 5.857,4.209 7.353,4.145 8.576,3.56 9.357,2.246 9.547,1.927 9.596,1.515 9.664,1.137 9.707,0.902 9.572,0.756 9.303,0.789 7.519,1.007 5.762,0.643 3.992,0.539 2.998,0.48 2.002,0.451 1.009,0.382 0.665,0.358 0.328,0.254 -0.013,0.186 -0.009,0.124 -0.004,0.062 0,0" /></g><g
           transform="translate(143.4521,34.5552)"
           id="g616"><path
             id="path618"
             style="fill:#ffd8b7;fill-opacity:1;fill-rule:nonzero;stroke:none"
             d="M 0,0 H 1.678 C 1.62,-0.456 1.567,-0.921 1.497,-1.385 1.487,-1.45 1.405,-1.54 1.341,-1.556 0.349,-1.804 -0.646,-2.042 -1.642,-2.279 c -0.036,-0.009 -0.081,0.015 -0.157,0.032 0.553,1.706 -0.256,3.222 -0.636,4.802 -0.211,0.881 -0.458,1.768 -0.53,2.665 -0.144,1.798 1.075,2.597 2.702,1.814 C 1.843,6.02 2.827,3.533 1.969,1.174 1.513,0.863 1.065,0.539 0.597,0.249 0.422,0.14 0.197,0.11 -0.004,0.045 -0.003,0.03 -0.001,0.015 0,0" /></g><g
           transform="translate(136.7734,47.9565)"
           id="g620"><path
             id="path622"
             style="fill:#263940;fill-opacity:1;fill-rule:nonzero;stroke:none"
             d="M 0,0 C 0.161,0.168 0.297,0.372 0.486,0.472 0.554,0.507 0.796,0.321 0.888,0.187 1.592,-0.839 2.279,-1.876 2.968,-2.914 3.065,-3.061 3.224,-3.235 3.204,-3.375 3.175,-3.584 3.038,-3.8 2.889,-3.957 2.843,-4.004 2.537,-3.912 2.462,-3.805 1.726,-2.761 1.009,-1.703 0.298,-0.641 0.184,-0.472 0.122,-0.267 0,0" /></g><g
           transform="translate(142.0371,46.9995)"
           id="g624"><path
             id="path626"
             style="fill:#263940;fill-opacity:1;fill-rule:nonzero;stroke:none"
             d="M 0,0 C 0,0.34 -0.031,0.684 0.012,1.018 0.036,1.203 0.145,1.428 0.288,1.535 0.523,1.709 0.76,1.673 0.784,1.301 0.849,0.332 0.922,-0.637 0.963,-1.608 0.971,-1.795 0.877,-2.011 0.767,-2.169 0.706,-2.256 0.492,-2.306 0.384,-2.268 0.291,-2.234 0.204,-2.058 0.193,-1.937 0.135,-1.292 0.101,-0.646 0.058,0 0.038,0 0.02,0 0,0" /></g><g
           transform="translate(137.4727,41.874)"
           id="g628"><path
             id="path630"
             style="fill:#263940;fill-opacity:1;fill-rule:nonzero;stroke:none"
             d="M 0,0 C -0.847,0.194 -1.561,0.338 -2.262,0.531 -2.433,0.578 -2.69,0.79 -2.683,0.911 -2.662,1.228 -2.422,1.425 -2.075,1.394 -1.9,1.378 -1.729,1.319 -1.556,1.279 -1.02,1.156 -0.48,1.044 0.051,0.905 0.244,0.855 0.605,0.882 0.485,0.545 0.404,0.317 0.143,0.153 0,0" /></g><g
           transform="translate(232.2637,62.2231)"
           id="g632"><path
             id="path634"
             style="fill:#263940;fill-opacity:1;fill-rule:nonzero;stroke:none"
             d="m 0,0 c -13.262,0 -24.049,-10.789 -24.049,-24.049 0,-13.261 10.787,-24.049 24.049,-24.049 13.262,0 24.049,10.788 24.049,24.049 C 24.049,-10.789 13.262,0 0,0" /></g><g
           transform="translate(232.2637,16.1294)"
           id="g636"><path
             id="path638"
             style="fill:#f4f4f4;fill-opacity:1;fill-rule:nonzero;stroke:none"
             d="m 0,0 c -12.155,0 -22.045,9.889 -22.045,22.045 0,12.155 9.89,22.044 22.045,22.044 12.155,0 22.045,-9.889 22.045,-22.044 C 22.045,9.889 12.155,0 0,0" /></g><g
           id="g640"><g
             id="g642" /><g
             id="g654"><g
               style="opacity:0.10000598"
               id="g652"
               clip-path="url(#clipPath646)"><g
                 id="g650"
                 transform="translate(246.2686,55.1855)"><path
                   id="path648"
                   style="fill:#000000;fill-opacity:1;fill-rule:nonzero;stroke:none"
                   d="m 0,0 c 3.144,-3.811 5.034,-8.691 5.034,-14.005 0,-12.156 -9.889,-22.045 -22.045,-22.045 -5.314,0 -10.194,1.89 -14.006,5.033 4.047,-4.906 10.17,-8.039 17.012,-8.039 12.155,0 22.045,9.889 22.045,22.045 C 8.04,-10.17 4.907,-4.046 0,0" /></g></g></g></g><g
           transform="translate(241.2803,46.1904)"
           id="g656"><path
             id="path658"
             style="fill:#263940;fill-opacity:1;fill-rule:nonzero;stroke:none"
             d="m 0,0 c 1.106,0 2.004,-0.897 2.004,-2.004 0,-1.107 -0.898,-2.004 -2.004,-2.004 -1.107,0 -2.005,0.897 -2.005,2.004 C -2.005,-0.897 -1.107,0 0,0" /></g><g
           transform="translate(223.2803,46.1904)"
           id="g660"><path
             id="path662"
             style="fill:#263940;fill-opacity:1;fill-rule:nonzero;stroke:none"
             d="m 0,0 c 1.106,0 2.004,-0.897 2.004,-2.004 0,-1.107 -0.898,-2.004 -2.004,-2.004 -1.107,0 -2.005,0.897 -2.005,2.004 C -2.005,-0.897 -1.107,0 0,0" /></g><g
           transform="translate(220.5557,32.624)"
           id="g664"><path
             id="path666"
             style="fill:#ffffff;fill-opacity:1;fill-rule:nonzero;stroke:none"
             d="m 0,0 h 23.577 c 0,-1.323 -0.218,-2.596 -0.62,-3.784 H 0.621 C 0.219,-2.596 0,-1.323 0,0" /></g><g
           id="g668"><g
             id="g670" /><g
             id="g682"><g
               style="opacity:0.10000598"
               id="g680"
               clip-path="url(#clipPath674)"><g
                 id="g678"
                 transform="translate(221.1768,28.8403)"><path
                   id="path676"
                   style="fill:#000000;fill-opacity:1;fill-rule:nonzero;stroke:none"
                   d="m 0,0 h 22.336 c -0.793,-2.342 -2.302,-4.352 -4.265,-5.772 -0.825,1.391 -2.342,2.322 -4.076,2.322 -1.06,0 -2.038,-0.348 -2.827,-0.936 C 10.378,-3.798 9.399,-3.45 8.34,-3.45 6.605,-3.45 5.089,-4.381 4.265,-5.772 2.301,-4.352 0.792,-2.342 0,0" /></g></g></g></g><g
           transform="translate(235.1719,25.3901)"
           id="g684"><path
             id="path686"
             style="fill:#f4f4f4;fill-opacity:1;fill-rule:nonzero;stroke:none"
             d="m 0,0 c 1.734,0 3.251,-0.931 4.076,-2.322 -1.94,-1.405 -4.326,-2.233 -6.903,-2.233 -2.577,0 -4.963,0.828 -6.903,2.233 C -8.906,-0.931 -7.39,0 -5.655,0 -4.596,0 -3.617,-0.348 -2.827,-0.936 -2.038,-0.348 -1.061,0 0,0" /></g><g
           transform="translate(239.4189,24.3037)"
           id="g688"><path
             id="path690"
             style="fill:#263940;fill-opacity:1;fill-rule:nonzero;stroke:none"
             d="m 0,0 c -1.055,1.222 -2.608,1.954 -4.248,1.954 -1.006,0 -1.972,-0.263 -2.826,-0.765 -0.856,0.502 -1.822,0.765 -2.828,0.765 -1.641,0 -3.195,-0.732 -4.248,-1.954 -1.196,1.015 -2.149,2.26 -2.81,3.67 H 2.812 C 2.149,2.26 1.196,1.015 0,0 m -12.738,-1.02 c 0.725,0.778 1.753,1.24 2.836,1.24 0.839,0 1.638,-0.264 2.309,-0.764 0.308,-0.229 0.729,-0.229 1.036,0 0.671,0.5 1.47,0.764 2.309,0.764 1.082,0 2.11,-0.462 2.836,-1.24 -1.702,-1.037 -3.643,-1.582 -5.662,-1.582 -2.021,0 -3.961,0.545 -5.664,1.582 M 3.813,7.454 C 3.759,6.758 3.638,6.073 3.452,5.403 h -21.054 c -0.185,0.67 -0.306,1.355 -0.361,2.051 z m 0.901,1.734 h -23.577 c -0.479,0 -0.867,-0.389 -0.867,-0.868 0,-1.388 0.224,-2.755 0.667,-4.062 0.846,-2.499 2.429,-4.642 4.577,-6.195 2.166,-1.569 4.728,-2.398 7.412,-2.398 2.682,0 5.246,0.829 7.411,2.398 2.148,1.553 3.731,3.696 4.578,6.195 0.441,1.306 0.666,2.673 0.666,4.062 0,0.479 -0.388,0.868 -0.867,0.868" /></g><g
           transform="translate(208.4521,34.5552)"
           id="g692"><path
             id="path694"
             style="fill:#263940;fill-opacity:1;fill-rule:nonzero;stroke:none"
             d="M 0,0 C -0.001,0.015 -0.003,0.03 -0.004,0.045 0.197,0.11 0.422,0.14 0.597,0.249 1.065,0.539 1.513,0.863 1.969,1.174 2.827,3.533 1.843,6.02 -0.263,7.034 -1.89,7.817 -3.109,7.018 -2.965,5.22 c 0.072,-0.897 0.319,-1.784 0.53,-2.665 0.38,-1.58 1.189,-3.096 0.636,-4.802 0.076,-0.017 0.121,-0.041 0.157,-0.032 0.996,0.237 1.991,0.475 2.983,0.723 0.064,0.016 0.146,0.106 0.156,0.171 0.07,0.464 0.123,0.929 0.181,1.385 z m -2.794,-6.736 c -0.004,0.062 -0.009,0.124 -0.013,0.186 0.341,0.068 0.678,0.172 1.022,0.196 0.993,0.069 1.989,0.099 2.983,0.157 1.77,0.104 3.527,0.468 5.311,0.25 0.269,-0.033 0.404,0.113 0.361,0.348 -0.068,0.378 -0.117,0.79 -0.307,1.109 -0.781,1.314 -2.004,1.899 -3.5,1.964 -1.184,0.05 -2.331,-0.186 -3.447,-0.546 -1.316,-0.424 -2.636,-0.85 -3.917,-1.367 -0.882,-0.356 -1.417,-1.053 -0.572,-2.071 0.376,-0.454 0.333,-0.778 -0.025,-1.299 -0.197,-0.285 -0.424,-0.548 -0.617,-0.837 -0.312,-0.468 -0.291,-0.706 0.078,-1.12 0.104,-0.119 0.216,-0.233 0.336,-0.336 0.704,-0.604 0.816,-1.357 0.557,-2.201 -0.072,-0.235 -0.145,-0.471 -0.249,-0.693 -0.174,-0.368 -0.131,-0.665 0.156,-0.975 0.471,-0.508 0.66,-1.095 0.417,-1.795 -0.15,-0.432 -0.019,-0.851 0.332,-1.137 0.332,-0.27 0.689,-0.548 1.082,-0.698 2.402,-0.918 4.818,-0.966 7.229,-0.022 0.554,0.217 1.094,0.467 1.441,0.985 0.379,0.563 0.194,1.272 -0.439,1.506 -0.295,0.109 -0.652,0.121 -0.968,0.083 -1.031,-0.126 -2.054,-0.31 -3.084,-0.442 -0.538,-0.069 -1.076,-0.003 -1.536,0.318 -0.332,0.232 -0.635,0.506 -0.718,1.041 0.23,-0.086 0.397,-0.108 0.509,-0.199 0.838,-0.678 1.762,-0.554 2.722,-0.363 0.9,0.178 1.814,0.29 2.726,0.407 0.371,0.048 0.713,0.117 0.944,0.443 0.607,0.858 0.374,2.131 -0.536,2.66 -0.364,0.212 -0.802,0.425 -1.205,0.42 -1.221,-0.014 -2.444,-0.109 -3.662,-0.223 -0.898,-0.084 -1.785,-0.129 -2.663,0.121 -0.139,0.04 -0.267,0.115 -0.401,0.173 -0.002,0.046 -0.003,0.092 -0.005,0.138 0.262,0.096 0.52,0.256 0.788,0.274 0.556,0.037 1.122,0.049 1.674,-0.018 1.094,-0.133 2.18,-0.224 3.274,-0.023 1.131,0.209 2.208,0.052 3.22,-0.498 0.445,-0.243 0.717,-0.161 0.85,0.327 0.287,1.056 0.171,2.073 -0.473,2.972 -0.18,0.25 -0.496,0.433 -0.786,0.568 -1.116,0.52 -2.276,0.475 -3.475,0.309 -1.44,-0.199 -2.898,-0.282 -4.35,-0.38 -0.367,-0.025 -0.779,-0.027 -1.064,0.288 m 3.046,-12.819 c -1.425,0.111 -2.812,0.224 -4.065,0.981 -0.857,0.519 -1.255,1.366 -1.626,2.229 -0.057,0.131 -0.013,0.371 0.079,0.485 0.233,0.293 0.134,0.532 -0.035,0.786 -0.04,0.06 -0.071,0.129 -0.122,0.178 -0.683,0.65 -0.694,1.338 -0.232,2.143 0.436,0.758 0.324,1.204 -0.272,1.833 -1.002,1.054 -1.086,1.606 -0.309,2.864 0.313,0.508 0.386,0.9 0.056,1.446 -0.481,0.796 -0.227,1.999 0.562,2.578 0.655,0.481 1.397,0.87 2.146,1.192 0.545,0.233 0.709,0.557 0.711,1.11 10e-4,1.348 -0.311,2.63 -0.69,3.908 -0.356,1.204 -0.717,2.409 -0.653,3.69 0.064,1.322 0.792,2.369 1.933,2.544 C -1.69,8.5 -1.024,8.46 -0.489,8.25 1.247,7.57 2.521,6.344 3.272,4.622 3.799,3.415 3.526,2.262 3.007,1.112 2.713,0.46 2.52,-0.238 2.298,-0.921 2.185,-1.268 2.313,-1.42 2.701,-1.409 c 1.03,0.031 2,-0.236 2.921,-0.684 C 7.061,-2.792 7.728,-4 7.876,-5.54 c 0.031,-0.329 -0.02,-0.668 0.021,-0.995 0.042,-0.338 0.082,-0.704 0.242,-0.994 0.939,-1.716 0.624,-3.324 -0.336,-4.904 -0.105,-0.172 -0.127,-0.395 -0.184,-0.595 -0.146,-0.519 -0.293,-1.039 -0.435,-1.559 -0.033,-0.116 -0.108,-0.265 -0.065,-0.348 0.524,-1.016 0.063,-1.812 -0.566,-2.561 -0.752,-0.895 -1.779,-1.335 -2.883,-1.552 -1.129,-0.223 -2.277,-0.343 -3.418,-0.507" /></g><g
           transform="translate(205.6582,27.8193)"
           id="g696"><path
             id="path698"
             style="fill:#f4f4f4;fill-opacity:1;fill-rule:nonzero;stroke:none"
             d="m 0,0 c 0.285,-0.315 0.697,-0.313 1.063,-0.289 1.453,0.099 2.911,0.182 4.351,0.381 1.199,0.166 2.358,0.211 3.475,-0.309 0.29,-0.136 0.606,-0.318 0.786,-0.569 0.644,-0.899 0.76,-1.915 0.472,-2.971 -0.132,-0.489 -0.404,-0.57 -0.849,-0.327 -1.012,0.55 -2.089,0.707 -3.22,0.498 C 4.984,-3.788 3.897,-3.696 2.804,-3.563 2.252,-3.497 1.686,-3.508 1.13,-3.545 0.862,-3.563 0.604,-3.724 0.342,-3.819 0.344,-3.865 0.345,-3.911 0.347,-3.957 0.48,-4.016 0.609,-4.09 0.748,-4.13 c 0.878,-0.25 1.765,-0.205 2.663,-0.121 1.218,0.114 2.441,0.209 3.662,0.223 0.403,0.005 0.841,-0.208 1.205,-0.42 0.91,-0.53 1.143,-1.802 0.535,-2.66 C 8.583,-7.434 8.241,-7.503 7.87,-7.551 6.958,-7.668 6.044,-7.78 5.144,-7.958 4.184,-8.149 3.26,-8.273 2.422,-7.595 2.31,-7.504 2.143,-7.482 1.913,-7.396 c 0.083,-0.536 0.386,-0.809 0.718,-1.041 0.46,-0.321 0.998,-0.387 1.536,-0.318 1.03,0.132 2.053,0.316 3.084,0.442 0.316,0.038 0.673,0.025 0.968,-0.083 0.633,-0.234 0.818,-0.943 0.439,-1.506 -0.347,-0.518 -0.887,-0.768 -1.441,-0.985 -2.411,-0.944 -4.827,-0.896 -7.229,0.022 -0.393,0.15 -0.75,0.428 -1.082,0.698 -0.351,0.286 -0.482,0.705 -0.332,1.137 0.243,0.7 0.054,1.287 -0.417,1.795 -0.287,0.31 -0.33,0.607 -0.156,0.975 0.103,0.221 0.177,0.458 0.249,0.693 0.259,0.844 0.146,1.597 -0.557,2.201 -0.12,0.103 -0.232,0.217 -0.337,0.336 -0.368,0.414 -0.389,0.652 -0.077,1.12 0.193,0.288 0.42,0.552 0.617,0.837 0.358,0.521 0.401,0.845 0.025,1.299 -0.845,1.018 -0.31,1.715 0.572,2.071 C -0.226,2.813 1.094,3.24 2.41,3.664 3.526,4.024 4.673,4.26 5.857,4.209 7.353,4.145 8.576,3.56 9.357,2.246 9.547,1.927 9.596,1.515 9.664,1.137 9.707,0.902 9.572,0.756 9.303,0.789 7.519,1.007 5.762,0.643 3.992,0.539 2.998,0.48 2.002,0.451 1.009,0.382 0.665,0.358 0.328,0.254 -0.013,0.186 -0.009,0.124 -0.004,0.062 0,0" /></g><g
           transform="translate(208.4521,34.5552)"
           id="g700"><path
             id="path702"
             style="fill:#f4f4f4;fill-opacity:1;fill-rule:nonzero;stroke:none"
             d="M 0,0 H 1.678 C 1.62,-0.456 1.567,-0.921 1.497,-1.385 1.487,-1.45 1.405,-1.54 1.341,-1.556 0.349,-1.804 -0.646,-2.042 -1.642,-2.279 c -0.036,-0.009 -0.081,0.015 -0.157,0.032 0.553,1.706 -0.256,3.222 -0.636,4.802 -0.211,0.881 -0.458,1.768 -0.53,2.665 -0.144,1.798 1.075,2.597 2.702,1.814 C 1.843,6.02 2.827,3.533 1.969,1.174 1.513,0.863 1.065,0.539 0.597,0.249 0.422,0.14 0.197,0.11 -0.004,0.045 -0.003,0.03 -0.001,0.015 0,0" /></g><g
           transform="translate(201.7734,47.9565)"
           id="g704"><path
             id="path706"
             style="fill:#263940;fill-opacity:1;fill-rule:nonzero;stroke:none"
             d="M 0,0 C 0.161,0.168 0.297,0.372 0.486,0.472 0.554,0.507 0.796,0.321 0.888,0.187 1.592,-0.839 2.279,-1.876 2.968,-2.914 3.065,-3.061 3.224,-3.235 3.204,-3.375 3.175,-3.584 3.038,-3.8 2.889,-3.957 2.843,-4.004 2.537,-3.912 2.462,-3.805 1.726,-2.761 1.009,-1.703 0.298,-0.641 0.184,-0.472 0.122,-0.267 0,0" /></g><g
           transform="translate(207.0371,46.9995)"
           id="g708"><path
             id="path710"
             style="fill:#263940;fill-opacity:1;fill-rule:nonzero;stroke:none"
             d="M 0,0 C 0,0.34 -0.031,0.684 0.012,1.018 0.036,1.203 0.145,1.428 0.288,1.535 0.523,1.709 0.76,1.673 0.784,1.301 0.849,0.332 0.922,-0.637 0.963,-1.608 0.971,-1.795 0.877,-2.011 0.767,-2.169 0.706,-2.256 0.492,-2.306 0.384,-2.268 0.291,-2.234 0.204,-2.058 0.193,-1.937 0.135,-1.292 0.101,-0.646 0.058,0 0.038,0 0.02,0 0,0" /></g><g
           transform="translate(202.4727,41.874)"
           id="g712"><path
             id="path714"
             style="fill:#263940;fill-opacity:1;fill-rule:nonzero;stroke:none"
             d="M 0,0 C -0.847,0.194 -1.561,0.338 -2.262,0.531 -2.433,0.578 -2.69,0.79 -2.683,0.911 -2.662,1.228 -2.422,1.425 -2.075,1.394 -1.9,1.378 -1.729,1.319 -1.556,1.279 -1.02,1.156 -0.48,1.044 0.051,0.905 0.244,0.855 0.605,0.882 0.485,0.545 0.404,0.317 0.143,0.153 0,0" /></g></g></g><g
       id="g716"><g
         clip-path="url(#clipPath722)"
         id="g718"><g
           id="g724"><g
             id="g726" /><g
             mask="url(#mask738)"
             id="g750"><g
               id="g752"><path
                 id="path760"
                 style="fill:url(#linearGradient758);stroke:none"
                 d="m 70.214,39.174 c 0,-13.26 10.788,-24.049 24.049,-24.049 v 0 c 13.263,0 24.049,10.789 24.049,24.049 v 0 c 0,13.261 -10.786,24.049 -24.049,24.049 v 0 c -13.261,0 -24.049,-10.788 -24.049,-24.049" /></g></g></g></g></g><g
       id="g762"><g
         clip-path="url(#clipPath768)"
         id="g764"><g
           id="g770"><g
             id="g772" /><g
             mask="url(#mask784)"
             id="g796"><g
               id="g798"><path
                 id="path806"
                 style="fill:url(#linearGradient804);stroke:none"
                 d="m 208.215,38.174 c 0,-13.26 10.786,-24.049 24.049,-24.049 v 0 c 13.261,0 24.049,10.789 24.049,24.049 v 0 c 0,13.261 -10.788,24.049 -24.049,24.049 v 0 c -13.263,0 -24.049,-10.788 -24.049,-24.049" /></g></g></g></g></g></g></svg>