<?xml version="1.0" encoding="UTF-8" standalone="no"?>
<svg
   xmlns:dc="http://purl.org/dc/elements/1.1/"
   xmlns:cc="http://creativecommons.org/ns#"
   xmlns:rdf="http://www.w3.org/1999/02/22-rdf-syntax-ns#"
   xmlns:svg="http://www.w3.org/2000/svg"
   xmlns="http://www.w3.org/2000/svg"
   viewBox="0 0 514.58374 121.17788"
   height="121.17788"
   width="514.58374"
   xml:space="preserve"
   version="1.1"
   id="svg2"><metadata
     id="metadata8"><rdf:RDF><cc:Work
         rdf:about=""><dc:format>image/svg+xml</dc:format><dc:type
           rdf:resource="http://purl.org/dc/dcmitype/StillImage" /></cc:Work></rdf:RDF></metadata><defs
     id="defs6"><clipPath
       id="clipPath16"
       clipPathUnits="userSpaceOnUse"><path
         id="path18"
         d="m 0,96.942 411.667,0 L 411.667,0 0,0 0,96.942 Z" /></clipPath></defs><g
     transform="matrix(1.25,0,0,-1.25,0,121.17788)"
     id="g10"><g
       id="g12"><g
         clip-path="url(#clipPath16)"
         id="g14"><g
           transform="translate(48.585,71.5775)"
           id="g20"><path
             id="path22"
             style="fill:#2e2e2e;fill-opacity:1;fill-rule:nonzero;stroke:none"
             d="m 0,0 c 0.879,15.43 -8.12,23.908 -22.602,23.908 -24.163,0 -25.043,-18.901 -25.043,-37.497 0,-27.996 2.837,-38.726 27.685,-38.726 5.869,0 15.949,1.636 19.96,2.453 l 0,37.398 -22.798,0 0,-11.344 8.026,0 0,-16.346 c -2.253,-0.819 -4.893,-1.431 -7.339,-1.431 -8.413,0 -10.564,4.086 -10.564,27.18 0,14.303 0,27.278 9.196,27.278 7.826,0 8.903,-6.026 8.802,-12.873 L 0,0 Z" /></g><g
           transform="translate(68.2051,70.3685)"
           id="g24"><path
             id="path26"
             style="fill:#2e2e2e;fill-opacity:1;fill-rule:nonzero;stroke:none"
             d="m 0,0 -0.197,0 0,7.161 -13.109,0 0,-55.638 13.795,0 0,30.298 c 0,5.511 0.194,13.443 12.324,12.561 l 0,13.881 C 7.238,8.263 2.542,6.391 0,0" /></g><g
           transform="translate(121.5127,21.6683)"
           id="g28"><path
             id="path30"
             style="fill:#2e2e2e;fill-opacity:1;fill-rule:nonzero;stroke:none"
             d="m 0,0 c -0.293,3.641 -0.489,7.389 -0.489,11.029 l 0,44.655 -13.793,0 0,-38.593 c 0,-4.96 -0.783,-8.598 -5.186,-8.598 -4.4,0 -5.182,3.638 -5.182,8.598 l 0,38.593 -13.798,0 0,-44.655 c 0,-7.721 5.773,-12.13 12.329,-12.13 5.185,0 8.902,1.764 11.642,6.725 l 0.195,0 0,-5.624 L 0,0 Z" /></g><g
           transform="translate(152.0771,50.0453)"
           id="g32"><path
             id="path34"
             style="fill:#2e2e2e;fill-opacity:1;fill-rule:nonzero;stroke:none"
             d="m 0,0 c 0,-13.898 -0.884,-19.7 -5.872,-19.7 -4.695,0 -5.577,5.802 -5.577,19.7 0,11.053 -0.098,18.715 5.577,18.715 C 0.095,18.715 0,11.053 0,0 m -0.296,28.235 c -5.28,0 -9.099,-1.861 -11.642,-7.223 l -0.195,0 0,6.128 -13.109,0 0,-76.164 13.793,0 0,26.148 0.198,0 c 2.837,-4.706 6.26,-6.349 11.251,-6.349 13.889,0 13.497,17.184 13.497,28.347 0,11.383 0.489,29.113 -13.793,29.113" /></g><g
           transform="translate(189.1406,30.0804)"
           id="g36"><path
             id="path38"
             style="fill:#2e2e2e;fill-opacity:1;fill-rule:nonzero;stroke:none"
             d="m 0,0 c -5.152,0 -6.441,3.633 -6.441,20.587 0,11.56 0.495,17.395 6.441,17.395 5.947,0 6.444,-5.835 6.444,-17.395 C 6.444,3.633 5.154,0 0,0 m 0,47.89 c -18.437,0 -20.419,-12.991 -20.419,-28.182 0,-17.396 2.381,-29.616 20.419,-29.616 18.039,0 20.418,12.22 20.418,29.616 C 20.418,34.899 18.437,47.89 0,47.89" /></g><g
           transform="translate(259.1533,60.5931)"
           id="g40"><path
             id="path42"
             style="fill:#2e2e2e;fill-opacity:1;fill-rule:nonzero;stroke:none"
             d="m 0,0 -8.363,0 0,22.959 7.569,0 c 6.768,0 8.36,-5.572 8.36,-12.148 C 7.566,5.463 4.48,0 0,0 m 3.685,35.329 -27.079,0 0,-74.078 15.031,0 0,26.378 11.152,0 c 17.622,0 20.012,14.489 20.012,23.627 0,14.712 -5.377,24.073 -19.116,24.073" /></g><g
           transform="translate(303.0234,30.3539)"
           id="g44"><path
             id="path46"
             style="fill:#2e2e2e;fill-opacity:1;fill-rule:nonzero;stroke:none"
             d="m 0,0 c -4.596,0 -5.197,4.835 -5.197,8.789 0,9.888 5.197,9.228 12.195,9.557 C 6.998,12.305 8.296,0 0,0 m 20.79,1.869 0,27.684 c 0,10.105 -2.299,18.564 -20.188,18.564 -5.399,0 -9.997,-0.987 -13.197,-3.624 -3.301,-2.527 -5.196,-6.811 -5.196,-13.513 l 13.794,0 c 0,4.394 0.397,8.459 5.296,8.459 5.097,0 5.699,-3.406 5.699,-8.128 l 0,-4.285 C -6.099,27.244 -18.989,26.477 -18.989,8.13 c 0,-9.666 3.596,-17.687 13.391,-17.687 6.097,0 10.198,2.747 13.195,8.459 l 0.201,0 0.599,-7.359 13.095,0 C 21.191,-5.052 20.79,-1.536 20.79,1.869" /></g><g
           transform="translate(354.8135,78.6244)"
           id="g48"><path
             id="path50"
             style="fill:#2e2e2e;fill-opacity:1;fill-rule:nonzero;stroke:none"
             d="m 0,0 c -2.589,0 -4.877,-0.441 -6.868,-1.543 -1.895,-0.992 -3.585,-2.644 -4.981,-5.178 l -0.199,0 0,5.619 -14.035,0 0,-55.657 14.035,0 0,38.356 c 0,4.957 0.797,8.815 5.277,8.815 4.479,0 5.277,-3.858 5.277,-8.815 l 0,-38.356 14.039,0 0,44.637 C 12.545,-4.407 6.67,0 0,0" /></g><g
           transform="translate(389.3994,30.3929)"
           id="g52"><path
             id="path54"
             style="fill:#2e2e2e;fill-opacity:1;fill-rule:nonzero;stroke:none"
             d="m 0,0 c -4.596,0 -5.197,4.834 -5.197,8.786 0,9.89 5.197,9.23 12.195,9.56 C 6.998,12.303 8.296,0 0,0 m 20.792,1.866 0,27.686 c 0,10.106 -2.298,18.564 -20.189,18.564 -5.4,0 -9.998,-0.99 -13.195,-3.626 -3.302,-2.525 -5.197,-6.809 -5.197,-13.511 l 13.792,0 c 0,4.394 0.397,8.459 5.297,8.459 5.097,0 5.698,-3.405 5.698,-8.129 l 0,-4.285 C -6.095,27.245 -18.99,26.474 -18.99,8.129 c 0,-9.668 3.597,-17.686 13.392,-17.686 6.097,0 10.198,2.745 13.195,8.456 l 0.202,0 0.597,-7.358 13.097,0 c -0.303,3.403 -0.701,6.92 -0.701,10.325" /></g><path
           id="path56"
           style="fill:#e24444;fill-opacity:1;fill-rule:nonzero;stroke:none"
           d="m 119.024,5.411 -118.25,0 0,5.859 118.25,0 0,-5.859 z" /><path
           id="path58"
           style="fill:#e24444;fill-opacity:1;fill-rule:nonzero;stroke:none"
           d="m 410.893,5.411 -263.493,0 0,5.859 263.493,0 0,-5.859 z" /></g></g></g></svg>