<?xml version="1.0" encoding="utf-8"?>
<!-- Generator: Adobe Illustrator 16.0.0, SVG Export Plug-In . SVG Version: 6.00 Build 0)  -->
<!DOCTYPE svg PUBLIC "-//W3C//DTD SVG 1.1//EN" "http://www.w3.org/Graphics/SVG/1.1/DTD/svg11.dtd">
<svg version="1.1" id="Capa_1" xmlns="http://www.w3.org/2000/svg" xmlns:xlink="http://www.w3.org/1999/xlink" x="0px" y="0px"
	 width="130px" height="35px" viewBox="0 0 130 35" enable-background="new 0 0 130 35" xml:space="preserve">
<g>
	<g>
		<path fill-rule="evenodd" clip-rule="evenodd" fill="#BE0411" d="M4.87,33.09c-0.5-0.314-0.868-1.396-0.868-2.68
			c0-0.047,0-0.094,0.001-0.14l0,0l0,0.001l0,0c-1.391-0.219-2.396-0.818-2.422-1.526l0,0l-0.004,0.009l0,0
			c-0.341,0.423-0.535,0.912-0.535,1.433c0,1.535,1.684,2.79,3.818,2.902l0,0L4.87,33.09L4.87,33.09L4.87,33.09z M0.399,30.298
			c0-1.716,2.135-3.107,4.77-3.107c2.634,0,4.77,1.392,4.77,3.107s-2.135,3.107-4.77,3.107C2.534,33.405,0.399,32.014,0.399,30.298
			L0.399,30.298L0.399,30.298L0.399,30.298z M5.169,27.64c0.508,0,0.94,0.771,1.101,1.847l0,0l0.001-0.001l0,0
			c0.989-0.154,1.682-0.509,1.682-0.923c0-0.556-1.247-1.004-2.784-1.004c-1.538,0-2.785,0.448-2.785,1.004
			c0,0.414,0.693,0.769,1.682,0.923l0,0l0.001,0.001l0,0C4.228,28.411,4.661,27.64,5.169,27.64L5.169,27.64L5.169,27.64L5.169,27.64
			z M5.477,33.088c2.135-0.112,3.819-1.367,3.819-2.902c0-0.521-0.195-1.01-0.535-1.433l0,0l-0.004-0.009l0,0
			c-0.026,0.708-1.032,1.308-2.422,1.526l0,0l0-0.001l0,0c0.001,0.046,0.001,0.093,0.001,0.14c0,1.284-0.369,2.366-0.869,2.68l0,0
			L5.477,33.088L5.477,33.088L5.477,33.088z M5.169,29.568c0.228,0,0.449-0.011,0.661-0.029l0,0l0,0l0,0
			c-0.105-0.69-0.362-1.177-0.661-1.177c-0.299,0-0.556,0.487-0.661,1.177l0,0h0l0,0C4.719,29.557,4.941,29.568,5.169,29.568
			L5.169,29.568L5.169,29.568L5.169,29.568z M5.169,32.123c0.382,0,0.695-0.796,0.711-1.796l0,0l0.002,0.001l0,0
			c-0.23,0.021-0.469,0.031-0.713,0.031c-0.245,0-0.484-0.01-0.714-0.031l0,0l0.002-0.001l0,0
			C4.474,31.326,4.786,32.123,5.169,32.123L5.169,32.123L5.169,32.123L5.169,32.123z"/>
		<path fill-rule="evenodd" clip-rule="evenodd" fill="#BE0411" d="M24.738,30.298c0-1.312,1.063-2.375,2.375-2.375
			c1.312,0,2.375,1.063,2.375,2.375s-1.063,2.375-2.375,2.375C25.801,32.673,24.738,31.61,24.738,30.298L24.738,30.298
			L24.738,30.298L24.738,30.298z M27.113,31.803c0.732,0,1.327-0.673,1.327-1.504s-0.595-1.504-1.327-1.504
			s-1.326,0.673-1.326,1.504S26.381,31.803,27.113,31.803L27.113,31.803L27.113,31.803L27.113,31.803z"/>
		<polygon fill-rule="evenodd" clip-rule="evenodd" fill="#BE0411" points="32.183,28.913 32.183,32.565 31.182,32.565 
			31.182,28.913 31.186,28.913 29.786,28.913 29.786,28.086 33.579,28.086 33.579,28.913 32.186,28.913 32.183,28.913 
			32.183,28.913 		"/>
		<path fill-rule="evenodd" clip-rule="evenodd" fill="#BE0411" d="M34.789,31.558L34.789,31.558l-0.384,1.007h-1.168l1.847-4.479
			h0.623h0.623l1.847,4.479h-1.168l-0.384-1.007l-0.001,0h-0.917H34.789L34.789,31.558L34.789,31.558z M35.706,30.802h0.63
			l-0.001,0.001l-0.625-1.64h-0.008l-0.625,1.64l0-0.001H35.706L35.706,30.802L35.706,30.802z"/>
		<polygon fill-rule="evenodd" clip-rule="evenodd" fill="#BE0411" points="13.737,28.913 13.737,32.565 12.736,32.565 
			12.736,28.913 12.74,28.913 11.34,28.913 11.34,28.086 15.133,28.086 15.133,28.913 13.741,28.913 13.737,28.913 13.737,28.913 		
			"/>
		<path fill-rule="evenodd" clip-rule="evenodd" fill="#BE0411" d="M15.39,30.298c0-1.312,1.063-2.375,2.374-2.375
			c1.313,0,2.375,1.063,2.375,2.375s-1.063,2.375-2.375,2.375C16.453,32.673,15.39,31.61,15.39,30.298L15.39,30.298L15.39,30.298
			L15.39,30.298z M17.764,31.803c0.733,0,1.327-0.673,1.327-1.504s-0.594-1.504-1.327-1.504c-0.732,0-1.326,0.673-1.326,1.504
			S17.032,31.803,17.764,31.803L17.764,31.803L17.764,31.803L17.764,31.803z"/>
		<polygon fill-rule="evenodd" clip-rule="evenodd" fill="#BE0411" points="22.438,32.565 22.946,32.565 22.946,30.886 
			22.946,30.864 24.692,28.086 23.523,28.086 22.438,29.97 21.354,28.086 20.186,28.086 21.932,30.864 21.932,30.886 21.932,32.565 
			22.438,32.565 22.438,32.565 		"/>
	</g>
	<g>
		<g>
			<path fill-rule="evenodd" clip-rule="evenodd" fill="#BE0411" d="M61.244,32.32c0.101,0,0.149,0.005,0.182-0.075
				c0.041-0.096,0.363-1.063,0.363-1.063h0.734c0.32,0,0.759-0.006,0.759-0.006s0.057,0.101,0.187,0.516
				c0.13,0.415,0.17,0.638,0.365,0.638h0.676c0.094,0,0.122-0.038,0.122-0.111c0-0.073-0.073-0.246-0.073-0.246
				s-0.316-0.917-0.387-1.127c-0.071-0.209-0.318-0.917-0.468-1.33c-0.149-0.414-0.396-1.176-0.438-1.307
				c-0.041-0.13-0.046-0.191-0.189-0.205c-0.143-0.016-0.504-0.04-0.691-0.024c-0.027,0.002-0.087,0.004-0.114,0.098
				c-0.029,0.093-0.309,0.947-0.427,1.301c-0.119,0.353-0.468,1.372-0.513,1.509c-0.046,0.138-0.355,1.064-0.406,1.223
				c-0.051,0.159-0.059,0.205,0.043,0.205C61.07,32.314,61.144,32.32,61.244,32.32z M62.524,28.895c0,0,0.097,0.241,0.335,0.979
				c0.237,0.739,0.265,0.844,0.265,0.844s-0.214,0.003-0.582,0.003c-0.367,0-0.609-0.009-0.609-0.009s0.055-0.188,0.286-0.896
				C62.449,29.107,62.524,28.895,62.524,28.895z"/>
			<path fill-rule="evenodd" clip-rule="evenodd" fill="#BE0411" d="M71.901,32.32c0.101,0,0.148,0.005,0.183-0.075
				c0.04-0.096,0.361-1.063,0.361-1.063h0.735c0.319,0,0.76-0.006,0.76-0.006s0.056,0.101,0.187,0.516
				c0.13,0.415,0.17,0.638,0.363,0.638h0.677c0.094,0,0.122-0.038,0.122-0.111c0-0.073-0.073-0.246-0.073-0.246
				s-0.315-0.917-0.387-1.127c-0.072-0.209-0.319-0.917-0.468-1.33c-0.15-0.414-0.397-1.176-0.438-1.307
				c-0.041-0.13-0.046-0.191-0.188-0.205c-0.144-0.016-0.505-0.04-0.69-0.024c-0.029,0.002-0.088,0.004-0.117,0.098
				c-0.027,0.093-0.306,0.947-0.426,1.301c-0.118,0.353-0.468,1.372-0.514,1.509c-0.044,0.138-0.354,1.064-0.404,1.223
				c-0.052,0.159-0.06,0.205,0.043,0.205C71.728,32.314,71.801,32.32,71.901,32.32z M73.183,28.895c0,0,0.095,0.241,0.333,0.979
				c0.237,0.739,0.266,0.844,0.266,0.844s-0.214,0.003-0.582,0.003c-0.366,0-0.608-0.009-0.608-0.009s0.055-0.188,0.285-0.896
				C73.107,29.107,73.183,28.895,73.183,28.895z"/>
			<path fill-rule="evenodd" clip-rule="evenodd" fill="#BE0411" d="M65.342,28.24c0-0.18,0.046-0.254,0.208-0.254
				c0.161,0,0.325,0.003,0.442,0.003c0.116,0,0.326-0.005,0.326,0.117c0,0.123,0.017,1.658,0.017,1.972s0.011,1.767,0.011,1.966
				c0,0.199-0.021,0.288-0.176,0.288c-0.155,0-0.389,0.01-0.547,0.008c-0.156-0.001-0.26-0.019-0.26-0.24
				c0-0.222-0.01-2.18-0.01-2.526C65.354,29.227,65.342,28.421,65.342,28.24z"/>
			<path fill-rule="evenodd" clip-rule="evenodd" fill="#BE0411" d="M69.202,30.306c-0.202,0-0.666,0.003-0.666,0.003
				c0.002,0.519,0.009,1.568,0.009,1.735c0,0.2-0.02,0.288-0.168,0.288s-0.371,0.011-0.522,0.009
				c-0.149-0.001-0.248-0.019-0.248-0.24c0-0.222-0.008-2.18-0.008-2.527c0-0.347-0.012-1.153-0.012-1.333
				c0-0.18,0.044-0.254,0.197-0.254c0.156,0,0.312,0.003,0.422,0.003c0.112,0,0.313-0.005,0.313,0.117
				c0,0.102,0.012,1.184,0.019,1.725c0,0,0.217,0.006,0.67,0.006c0.452,0,0.756-0.006,0.756-0.006
				c0.001-0.541,0.013-1.624,0.013-1.725c0-0.122,0.2-0.117,0.311-0.117c0.112,0,0.268-0.003,0.423-0.003
				c0.154,0,0.198,0.074,0.198,0.254c0,0.181-0.012,0.986-0.012,1.333c0,0.348-0.007,2.305-0.007,2.527
				c0,0.221-0.1,0.238-0.251,0.24c-0.149,0.002-0.372-0.009-0.521-0.009s-0.168-0.088-0.168-0.288c0-0.167,0.007-1.216,0.01-1.735
				C69.959,30.309,69.404,30.306,69.202,30.306z"/>
			<path fill-rule="evenodd" clip-rule="evenodd" fill="#BE0411" d="M76.19,32.163c0.009,0.136,0.001,0.164,0.065,0.178
				c0.063,0.013,0.308,0.039,0.481,0.046c0.172,0.007,0.401,0.042,0.401-0.205c0-0.248-0.005-1.083-0.005-1.162
				c0-0.078-0.008-0.928-0.008-1.001c0-0.071,0-0.941,0-1.005c0-0.063,0-0.402,0-0.443s0.014-0.054,0.062-0.054
				c0.047,0,0.524,0.011,0.705,0.011s0.252,0,0.298,0s0.096,0.013,0.104-0.058c0.009-0.072,0.021-0.217,0.022-0.29
				c0.001-0.073-0.002-0.125-0.126-0.134c-0.124-0.006-0.952-0.022-1.13-0.025c-0.177-0.004-0.86-0.004-0.99-0.002
				s-0.961,0.013-1.024,0.013c-0.061,0-0.091,0.073-0.091,0.227c0,0.154,0.012,0.25,0.096,0.25c0.082,0,0.729,0.002,0.901,0.005
				c0.087,0.002,0.123,0,0.149,0s0.059-0.002,0.059,0.023c0,0.028,0.014,0.635,0.014,0.868c0,0.233-0.008,0.854-0.008,1.102
				c0,0.249,0.014,1.065,0.014,1.168C76.181,31.777,76.184,32.027,76.19,32.163z"/>
			<path fill-rule="evenodd" clip-rule="evenodd" fill="#BE0411" d="M79.72,32.436c-0.406,0-0.946-0.148-1.054-0.183
				c-0.107-0.033-0.109-0.105-0.109-0.161c0-0.055,0-0.087,0-0.176c0-0.088,0.01-0.188,0.063-0.188c0.175,0,0.366,0.275,1.175,0.275
				c0.46,0,0.533-0.267,0.533-0.435c0-0.926-1.805-1.117-1.805-2.421c0-0.958,0.713-1.129,1.285-1.129
				c0.461,0,0.804,0.109,0.921,0.165c0.117,0.056,0.133,0.096,0.133,0.16s0,0.274,0,0.321c0,0.045-0.025,0.078-0.062,0.078
				c-0.12,0-0.296-0.296-0.944-0.296c-0.428,0-0.609,0.212-0.609,0.463c0,0.743,1.864,1.072,1.864,2.373
				C81.11,32.196,80.331,32.436,79.72,32.436z"/>
			<path fill-rule="evenodd" clip-rule="evenodd" fill="#BE0411" d="M81.827,28.233c0-0.085,0.015-0.147,0.142-0.147
				c0.126,0,0.215-0.01,0.326-0.01c0.113,0,0.209,0.002,0.298,0.003c0.091,0.002,0.179,0.015,0.179,0.357
				c0,0.342-0.008,1.229-0.008,1.395c0,0.165,0.002,0.708,0.002,0.949c0,0.439-0.074,1.26,0.827,1.26
				c0.171,0,0.822,0.001,0.822-0.871c0-0.34-0.016-1.625-0.02-2.151c-0.001-0.28-0.011-0.709-0.011-0.795
				c0-0.085,0.017-0.124,0.077-0.124c0.059,0,0.208,0.004,0.305,0.004s0.155,0.002,0.155,0.067c0,0.066,0.018,0.513,0.018,1.734
				c0,1.222,0,1.029,0,1.298c0,0.271,0.027,1.26-1.307,1.26c-1.335,0-1.79-0.708-1.79-1.428
				C81.843,30.315,81.827,28.319,81.827,28.233z"/>
			<path fill-rule="evenodd" clip-rule="evenodd" fill="#BE0411" d="M56.85,30.241c0,0.733,0.017,1.792,0.017,1.895
				c0,0.102,0.004,0.151,0.254,0.165c0.25,0.014,1.222,0.003,1.511,0.003c1.184,0,1.786-0.848,1.786-2.07
				c0-2.022-1.126-2.276-1.931-2.276h-1.449c-0.123,0-0.194,0.006-0.194,0.142S56.85,29.508,56.85,30.241z M58.347,31.859
				c0.539,0,1.102-0.088,1.102-1.748c0-1.659-0.626-1.671-1.152-1.671h-0.339c-0.056,0-0.149-0.009-0.149,0.098v3.307
				C57.809,31.844,58.103,31.859,58.347,31.859z"/>
		</g>
		<rect x="44.223" y="27.043" fill-rule="evenodd" clip-rule="evenodd" fill="#BE0411" width="11.271" height="6.693"/>
		<path fill-rule="evenodd" clip-rule="evenodd" fill="#FFFFFF" d="M49.587,30.965l-1.361,0.138l-2.436-2.437
			c0,0,1.591-0.098,4.485,0.163c2.894,0.262,4.497,0.705,4.497,1.171c0,1.238-7.835,2.451-7.835,2.451l0.701-1.094l-2.687-2.66
			l0.637-0.031l2.572,2.573c0,0,6.312-0.557,6.312-1.224c0-0.401-2.819-0.754-4.198-0.867c-1.235-0.101-2.599-0.095-2.599-0.095
			L49.587,30.965z"/>
	</g>
	<g>
		<path fill-rule="evenodd" clip-rule="evenodd" fill="#BE0411" d="M100.452,28.894c-0.882-1.203-2.176-1.777-3.565-1.951
			c-0.255-0.014-0.588-0.08-0.748,0.147c-0.041,0.08,0.026,0.16,0.093,0.213c0.829,0.254,1.644,0.535,2.311,1.149
			c0.24,0.294,0.521,0.601,0.401,0.988c-0.255,0.388-0.762,0.294-1.188,0.361l-2.405,0.066L93,29.828
			c-0.255-0.026-0.521-0.08-0.682-0.293c-0.106-0.213,0-0.454,0.094-0.628c0.614-0.909,1.616-1.269,2.551-1.576
			c0.067-0.04,0.134-0.12,0.106-0.2c-0.053-0.146-0.213-0.187-0.36-0.187c-0.815,0.041-1.55,0.254-2.23,0.601
			c-1.122,0.588-2.258,1.71-2.109,3.085c0.279,1.709,2.084,2.752,3.618,3.033c0.349,0.026,0.762,0.159,1.082-0.027
			c0.04-0.041,0.081-0.106,0.054-0.174c-0.026-0.053-0.081-0.093-0.134-0.12c-0.802-0.24-1.575-0.534-2.23-1.121
			c-0.254-0.282-0.507-0.575-0.44-0.962c0.04-0.107,0.135-0.2,0.228-0.253c0.48-0.174,1.041-0.121,1.563-0.161l1.909-0.054
			l1.642,0.027c0.455,0.066,1.028-0.094,1.296,0.333c0.095,0.214-0.013,0.441-0.12,0.628c-0.613,0.896-1.589,1.243-2.512,1.55
			c-0.093,0.027-0.146,0.12-0.132,0.214c0.174,0.28,0.586,0.134,0.868,0.121c1.509-0.227,3.125-1.096,3.739-2.632
			C101.066,30.322,100.894,29.467,100.452,28.894L100.452,28.894z M92.826,29.961l1.309,0.054l2.885-0.027
			c0.681-0.04,1.416-0.027,2.058-0.227c0.066-0.041,0.159-0.12,0.24-0.041c0.053,0.027,0.107,0.067,0.16,0.107
			c-0.041,0.08-0.146,0.067-0.227,0.094l-0.923,0.094l-1.843,0.04l-2.658,0.027c-0.627,0-1.228-0.013-1.844-0.081
			c-0.065-0.026-0.158-0.013-0.186-0.093c0.066-0.053,0.16-0.12,0.253-0.133C92.277,29.908,92.559,29.921,92.826,29.961
			L92.826,29.961z M100.68,30.442v0.014l-0.04-0.04c-0.054-0.641-0.295-1.229-0.788-1.683c-0.014,0-0.054-0.013-0.054,0.026
			c0.334,0.495,0.574,1.042,0.547,1.683c-0.08,1.456-1.602,2.498-2.857,2.872c-0.267,0.067-0.547,0.16-0.842,0.174
			c0.254-0.094,0.507-0.147,0.762-0.254c1.042-0.333,2.271-1.122,2.591-2.283c0.027-0.134,0.054-0.308-0.053-0.414
			c-0.188-0.201-0.468-0.201-0.749-0.201h-2.123l-2.524,0.041l-2.057,0.014c-0.401,0.08-1.002-0.107-1.216,0.347
			c-0.04,0.561,0.308,0.976,0.654,1.389c0.774,0.775,1.75,1.108,2.738,1.376l-0.026,0.027c-1.522-0.241-3.299-1.083-3.673-2.739
			c-0.134-0.708,0.094-1.375,0.48-1.923c0-0.013-0.013-0.027-0.026-0.041c-0.134,0.054-0.214,0.201-0.308,0.308
			c-0.268,0.44-0.468,0.909-0.495,1.43h-0.026c-0.106-1.163,0.789-2.111,1.724-2.685c0.694-0.414,1.456-0.695,2.284-0.735
			c0.013,0,0.013,0.014,0.013,0.014c-0.667,0.188-1.31,0.401-1.896,0.774c-0.682,0.401-1.31,1.083-1.471,1.844
			c0,0.106,0.027,0.2,0.107,0.267c0.241,0.199,0.602,0.173,0.908,0.187l1.482,0.013l4.181-0.04c0.562-0.026,1.149-0.026,1.696-0.106
			c0.147-0.041,0.334-0.134,0.374-0.307c0.014-0.36-0.2-0.655-0.374-0.935c-0.774-1.029-1.896-1.443-3.031-1.71
			c-0.014-0.04,0.013-0.013,0.026-0.026c0.988,0.04,1.856,0.374,2.645,0.908C100.092,28.599,100.746,29.44,100.68,30.442
			L100.68,30.442z"/>
		<path fill-rule="evenodd" clip-rule="evenodd" d="M112.417,32.091c0,0.05-0.032,0.084-0.083,0.084h-1.85
			c-0.05,0-0.101-0.034-0.101-0.084v-3.665c0-0.049,0.051-0.084,0.101-0.084h1.85c0.051,0,0.083,0.035,0.083,0.084V32.091
			L112.417,32.091z M108.603,28.343h-1.866c-0.05,0-0.083,0.035-0.083,0.084v0.707c0,0.202-0.168,0.37-0.369,0.37h-1.865
			c-0.202,0-0.37-0.168-0.37-0.37l0,0v-0.707c0-0.049-0.034-0.084-0.085-0.084h-1.848c-0.051,0-0.102,0.035-0.102,0.084v3.665
			c0,0.05,0.051,0.084,0.102,0.084h1.848c0.051,0,0.085-0.034,0.085-0.084v-0.84l0,0c0-0.202,0.168-0.371,0.37-0.371h1.865
			c0.201,0,0.369,0.168,0.369,0.371v0.84c0,0.05,0.033,0.084,0.083,0.084h1.866c0.051,0,0.085-0.034,0.085-0.084v-3.665
			C108.688,28.377,108.653,28.343,108.603,28.343L108.603,28.343z M120.938,28.343h-1.849c-0.05,0-0.101,0.035-0.101,0.084v1.193
			c-0.168,0.185-0.571-0.033-0.571-0.033s-0.386-0.252-1.277-0.741c-0.772-0.453-1.009-0.504-1.059-0.504l0,0h-1.849
			c-0.05,0-0.102,0.035-0.102,0.084v3.665c0,0.05,0.052,0.084,0.102,0.084h1.849c0.05,0,0.101-0.034,0.101-0.084v-1.547
			c0.235-0.318,0.571-0.152,0.571-0.152s0.404,0.202,1.261,0.74c0.74,0.471,0.924,0.639,0.975,0.807v0.152
			c0,0.05,0.051,0.084,0.101,0.084h1.849c0.051,0,0.084-0.034,0.084-0.084v-3.665C121.021,28.377,120.988,28.343,120.938,28.343
			L120.938,28.343z M127.51,28.242h-3.249c-0.959,0-1.742,0.608-1.742,1.553v0.912c0,0.96,0.783,1.551,1.742,1.551h3.249
			c0.96,0,1.744-0.591,1.744-1.551v-0.912C129.254,28.851,128.47,28.242,127.51,28.242L127.51,28.242z M127.413,30.481
			c0,0.48-0.352,0.785-0.784,0.785h-1.471c-0.448,0-0.8-0.305-0.8-0.785v-0.463c0-0.48,0.352-0.783,0.8-0.783h1.471
			c0.433,0,0.784,0.303,0.784,0.783V30.481L127.413,30.481z"/>
	</g>
</g>
<g>
	<g>
		<path d="M26.578,7.363c0.216-3.778-1.987-5.854-5.534-5.854c-5.916,0-6.131,4.628-6.131,9.182c0,6.855,0.694,9.482,6.779,9.482
			c1.437,0,3.905-0.4,4.887-0.6v-9.157h-5.582v2.777h1.965v4.003c-0.552,0.2-1.198,0.35-1.797,0.35c-2.06,0-2.586-1-2.586-6.655
			c0-3.502,0-6.68,2.251-6.68c1.917,0,2.18,1.476,2.155,3.152H26.578z"/>
		<path d="M31.382,7.66h-0.048V5.906h-3.209v13.624h3.378v-7.418c0-1.35,0.047-3.292,3.018-3.075V5.636
			C33.155,5.636,32.005,6.095,31.382,7.66z"/>
		<path d="M44.436,19.584c-0.072-0.892-0.12-1.81-0.12-2.701V5.95h-3.377v9.45c0,1.214-0.192,2.105-1.27,2.105
			c-1.078,0-1.27-0.892-1.27-2.105V5.95h-3.378v10.934c0,1.891,1.413,2.97,3.019,2.97c1.27,0,2.18-0.432,2.851-1.647h0.047v1.378
			H44.436z"/>
		<path d="M51.847,5.722c-1.292,0-2.227,0.456-2.851,1.769h-0.047v-1.5h-3.21v18.65h3.377v-6.403h0.049
			c0.694,1.151,1.533,1.553,2.754,1.553c3.401,0,3.306-4.207,3.306-6.94C55.225,10.064,55.344,5.722,51.847,5.722z M51.919,12.636
			c0,3.403-0.216,4.824-1.437,4.824c-1.15,0-1.366-1.421-1.366-4.824c0-2.707-0.024-4.583,1.366-4.583
			C51.942,8.053,51.919,9.929,51.919,12.636z"/>
		<path d="M60.995,5.798c-4.514,0-5,3.181-5,6.9c0,4.26,0.583,7.252,5,7.252c4.417,0,5-2.992,5-7.252
			C65.994,8.979,65.51,5.798,60.995,5.798z M60.995,17.525c-1.261,0-1.577-0.89-1.577-5.042c0-2.831,0.121-4.259,1.577-4.259
			s1.578,1.429,1.578,4.259C62.573,16.635,62.257,17.525,60.995,17.525z"/>
		<path d="M79.04,1.402h-6.631v18.139h3.68v-6.459h2.732c4.314,0,4.899-3.547,4.899-5.785C83.721,3.694,82.404,1.402,79.04,1.402z
			 M78.138,10.053h-2.049V4.432h1.854c1.657,0,2.048,1.364,2.048,2.974C79.991,8.715,79.235,10.053,78.138,10.053z"/>
		<path d="M93.971,17v-6.779c0-2.474-0.563-4.545-4.943-4.545c-1.321,0-2.448,0.242-3.231,0.888
			c-0.808,0.619-1.273,1.667-1.273,3.309h3.379c0-1.076,0.098-2.071,1.296-2.071c1.248,0,1.396,0.834,1.396,1.991v1.049
			c-3.207-0.054-6.363,0.134-6.363,4.626c0,2.368,0.88,4.331,3.278,4.331c1.493,0,2.497-0.672,3.232-2.071h0.048l0.146,1.803h3.207
			C94.068,18.694,93.971,17.834,93.971,17z M88.88,17.458c-1.124,0-1.272-1.184-1.272-2.152c0-2.421,1.272-2.259,2.986-2.34
			C90.594,14.444,90.911,17.458,88.88,17.458z"/>
		<path d="M101.562,5.638c-0.634,0-1.194,0.108-1.682,0.377c-0.465,0.243-0.878,0.648-1.22,1.268h-0.05V5.908h-3.437v13.628h3.437
			v-9.392c0-1.214,0.195-2.159,1.293-2.159c1.097,0,1.292,0.944,1.292,2.159v9.392h3.438V8.606
			C104.633,6.717,103.194,5.638,101.562,5.638z"/>
		<path d="M115.121,16.991v-6.779c0-2.475-0.563-4.545-4.944-4.545c-1.322,0-2.447,0.243-3.23,0.888
			c-0.809,0.617-1.271,1.667-1.271,3.308h3.376c0-1.076,0.098-2.071,1.297-2.071c1.248,0,1.396,0.834,1.396,1.99v1.049
			c-3.206-0.054-6.363,0.135-6.363,4.626c0,2.368,0.881,4.331,3.279,4.331c1.492,0,2.497-0.672,3.23-2.071h0.049l0.146,1.802h3.208
			C115.219,18.686,115.121,17.825,115.121,16.991z M110.029,17.448c-1.125,0-1.271-1.184-1.271-2.151
			c0-2.422,1.271-2.261,2.985-2.341C111.743,14.436,112.061,17.448,110.029,17.448z"/>
	</g>
	<g>
		<rect x="51" y="23.125" fill="#BE0411" width="64" height="1"/>
		<rect x="15" y="23.125" fill="#BE0411" width="28" height="1"/>
	</g>
</g>
</svg>
