<?xml version="1.0" encoding="UTF-8" standalone="no"?>
<svg
   xmlns:dc="http://purl.org/dc/elements/1.1/"
   xmlns:cc="http://creativecommons.org/ns#"
   xmlns:rdf="http://www.w3.org/1999/02/22-rdf-syntax-ns#"
   xmlns:svg="http://www.w3.org/2000/svg"
   xmlns="http://www.w3.org/2000/svg"
   viewBox="0 0 323.75 123.72888"
   height="123.72888"
   width="323.75"
   xml:space="preserve"
   version="1.1"
   id="svg2"><metadata
     id="metadata8"><rdf:RDF><cc:Work
         rdf:about=""><dc:format>image/svg+xml</dc:format><dc:type
           rdf:resource="http://purl.org/dc/dcmitype/StillImage" /></cc:Work></rdf:RDF></metadata><defs
     id="defs6"><clipPath
       id="clipPath16"
       clipPathUnits="userSpaceOnUse"><path
         id="path18"
         d="m 0,98.983 259,0 L 259,0 0,0 0,98.983 Z" /></clipPath></defs><g
     transform="matrix(1.25,0,0,-1.25,0,123.72888)"
     id="g10"><g
       id="g12"><g
         clip-path="url(#clipPath16)"
         id="g14"><g
           transform="translate(33.543,64.9867)"
           id="g20"><path
             id="path22"
             style="fill:#e24444;fill-opacity:1;fill-rule:evenodd;stroke:none"
             d="M 0,0 C 2.603,0 4.725,5.414 4.838,12.208 L 4.851,12.202 C 3.283,12.057 1.661,11.981 0,11.981 c -1.662,0 -3.284,0.076 -4.852,0.221 l 0.013,0.006 C -4.726,5.414 -2.603,0 0,0 m 0,17.367 c 1.548,0 3.054,0.066 4.494,0.193 L 4.492,17.558 C 3.774,22.246 2.035,25.556 0,25.556 c -2.035,0 -3.775,-3.31 -4.492,-7.998 L -4.495,17.56 C -3.054,17.433 -1.548,17.367 0,17.367 M 2.092,-6.56 c 14.512,0.755 25.956,9.295 25.956,19.719 0,3.54 -1.323,6.865 -3.636,9.741 l -0.027,0.056 C 24.208,18.143 17.377,14.071 7.922,12.584 l 0.004,0.006 c 0.007,-0.318 0.01,-0.633 0.01,-0.954 0,-8.73 -2.506,-16.077 -5.904,-18.207 l 0.06,0.011 z M 0,30.469 c 3.456,0 6.396,-5.244 7.484,-12.56 l 0.005,0.012 c 6.726,1.048 11.433,3.462 11.433,6.27 0,3.772 -8.473,6.826 -18.922,6.826 -10.45,0 -18.922,-3.054 -18.922,-6.826 0,-2.808 4.707,-5.222 11.432,-6.27 l 0.005,-0.012 c 1.089,7.316 4.03,12.56 7.485,12.56 M -32.418,12.398 c 0,11.662 14.513,21.119 32.418,21.119 17.904,0 32.417,-9.457 32.417,-21.119 0,-11.662 -14.513,-21.12 -32.417,-21.12 -17.905,0 -32.418,9.458 -32.418,21.12 M -2.032,-6.571 c -3.399,2.13 -5.905,9.477 -5.905,18.207 0,0.321 0.004,0.636 0.011,0.954 l 0.004,-0.006 c -9.456,1.487 -16.289,5.559 -16.463,10.372 L -24.412,22.9 c -2.314,-2.876 -3.636,-6.201 -3.636,-9.741 0,-10.424 11.442,-18.964 25.956,-19.719 l 0.06,-0.011 z" /></g><g
           transform="translate(182.6846,67.1625)"
           id="g24"><path
             id="path26"
             style="fill:#e24444;fill-opacity:1;fill-rule:evenodd;stroke:none"
             d="m 0,0 c 4.977,0 9.015,4.577 9.015,10.223 0,5.644 -4.038,10.221 -9.015,10.221 -4.978,0 -9.012,-4.577 -9.012,-10.221 C -9.012,4.577 -4.978,0 0,0 m -16.141,10.223 c 0,8.913 7.226,16.14 16.141,16.14 8.917,0 16.144,-7.227 16.144,-16.14 C 16.144,1.308 8.917,-5.919 0,-5.919 c -8.915,0 -16.141,7.227 -16.141,16.142" /></g><g
           transform="translate(217.1416,86.8002)"
           id="g28"><path
             id="path30"
             style="fill:#e24444;fill-opacity:1;fill-rule:evenodd;stroke:none"
             d="m 0,0 0,-24.823 -6.799,0 0,24.823 0.021,0 -9.511,0 0,5.613 25.776,0 L 9.487,0 0.024,0 0,0 Z" /></g><g
           transform="translate(241.0869,73.9623)"
           id="g32"><path
             id="path34"
             style="fill:#d23833;fill-opacity:1;fill-rule:evenodd;stroke:none"
             d="m 0,0 4.281,0 -0.004,-0.002 -4.248,11.14 -0.057,0 L -4.276,-0.002 -4.28,0 0,0 Z m -6.231,-5.138 -0.005,-0.006 -2.609,-6.841 -7.945,0 12.557,30.436 4.233,0 4.233,0 12.555,-30.436 -7.943,0 -2.608,6.841 -0.008,0.006 -6.229,0 -6.231,0 z" /></g><g
           transform="translate(91.7778,86.8002)"
           id="g36"><path
             id="path38"
             style="fill:#e24444;fill-opacity:1;fill-rule:evenodd;stroke:none"
             d="m 0,0 0,-24.823 -6.801,0 0,24.823 0.023,0 -9.511,0 0,5.613 25.776,0 L 9.487,0 0.024,0 0,0 Z" /></g><g
           transform="translate(119.1484,67.1625)"
           id="g40"><path
             id="path42"
             style="fill:#e24444;fill-opacity:1;fill-rule:evenodd;stroke:none"
             d="m 0,0 c 4.976,0 9.011,4.577 9.011,10.223 0,5.644 -4.035,10.221 -9.011,10.221 -4.977,0 -9.014,-4.577 -9.014,-10.221 C -9.014,4.577 -4.977,0 0,0 m -16.144,10.223 c 0,8.913 7.228,16.14 16.144,16.14 8.914,0 16.142,-7.227 16.142,-16.14 C 16.142,1.308 8.914,-5.919 0,-5.919 c -8.916,0 -16.144,7.227 -16.144,16.142" /></g><g
           transform="translate(150.9141,61.9769)"
           id="g44"><path
             id="path46"
             style="fill:#e24444;fill-opacity:1;fill-rule:evenodd;stroke:none"
             d="m 0,0 3.45,0 0,11.413 0,0.145 11.865,18.879 -7.942,0 L 0,17.643 l -7.368,12.794 -7.943,0 11.866,-18.879 0,-0.145 L -3.445,0 0,0 Z" /></g><g
           transform="translate(65.207,20.8802)"
           id="g48"><path
             id="path50"
             style="fill:#e24444;fill-opacity:1;fill-rule:evenodd;stroke:none"
             d="m 0,0 0,-0.082 -0.248,0.248 c -0.332,3.975 -1.823,7.619 -4.887,10.436 -0.082,0 -0.331,0.082 -0.331,-0.166 C -3.396,7.37 -1.904,3.975 -2.071,0 c -0.496,-9.027 -9.937,-15.487 -17.722,-17.807 -1.657,-0.414 -3.395,-0.993 -5.217,-1.075 1.573,0.578 3.146,0.911 4.72,1.572 6.459,2.072 14.079,6.958 16.067,14.163 0.166,0.829 0.331,1.905 -0.331,2.568 -1.16,1.242 -2.9,1.242 -4.638,1.242 l -13.169,0 -15.653,-0.249 -12.754,-0.082 c -2.484,-0.498 -6.211,0.661 -7.536,-2.153 -0.249,-3.48 1.906,-6.046 4.057,-8.615 4.804,-4.802 10.85,-6.874 16.978,-8.53 l -0.165,-0.165 c -9.441,1.491 -20.456,6.708 -22.775,16.978 -0.827,4.389 0.58,8.53 2.98,11.925 0,0.083 -0.082,0.166 -0.164,0.249 -0.827,-0.331 -1.324,-1.243 -1.905,-1.906 -1.656,-2.732 -2.898,-5.631 -3.064,-8.86 l -0.166,0 c -0.662,7.206 4.887,13.085 10.684,16.645 4.307,2.569 9.027,4.307 14.162,4.556 0.083,0 0.083,-0.082 0.083,-0.082 -4.141,-1.16 -8.117,-2.484 -11.761,-4.804 -4.224,-2.484 -8.115,-6.708 -9.109,-11.429 0,-0.662 0.165,-1.243 0.661,-1.657 1.492,-1.242 3.727,-1.076 5.632,-1.16 l 9.193,-0.082 25.922,0.248 c 3.479,0.167 7.123,0.167 10.518,0.663 0.912,0.249 2.071,0.828 2.32,1.906 0.082,2.235 -1.243,4.056 -2.32,5.796 -4.803,6.378 -11.76,8.945 -18.8,10.601 -0.082,0.248 0.084,0.083 0.166,0.166 6.129,-0.248 11.512,-2.319 16.399,-5.631 C -3.644,11.43 0.414,6.212 0,0 m -48.697,2.981 8.116,-0.331 17.89,0.166 c 4.224,0.248 8.778,0.165 12.753,1.408 0.415,0.248 0.994,0.746 1.491,0.248 C -8.117,4.307 -7.785,4.059 -7.454,3.81 -7.702,3.313 -8.365,3.396 -8.862,3.229 L -14.576,2.65 -26.004,2.402 -42.486,2.236 c -3.892,0 -7.619,0.083 -11.429,0.496 -0.414,0.166 -0.993,0.084 -1.159,0.581 0.414,0.332 0.993,0.746 1.574,0.828 1.408,-0.828 3.147,-0.912 4.803,-1.16 m 47.29,6.626 c -5.466,7.454 -13.499,11.015 -22.113,12.091 -1.574,0.084 -3.645,0.497 -4.638,-0.91 -0.249,-0.498 0.166,-0.994 0.58,-1.326 5.135,-1.572 10.186,-3.313 14.327,-7.122 1.491,-1.822 3.23,-3.728 2.484,-6.128 -1.572,-2.402 -4.72,-1.823 -7.37,-2.237 L -33.044,3.562 -47.621,3.81 c -1.573,0.165 -3.229,0.497 -4.223,1.821 -0.663,1.326 0,2.817 0.579,3.893 3.81,5.631 10.022,7.868 15.818,9.773 0.415,0.248 0.829,0.745 0.663,1.242 -0.33,0.911 -1.324,1.159 -2.236,1.159 -5.051,-0.248 -9.606,-1.573 -13.83,-3.725 -6.958,-3.645 -13.998,-10.603 -13.086,-19.133 1.74,-10.6 12.919,-17.061 22.444,-18.799 2.154,-0.165 4.721,-0.994 6.708,0.165 0.249,0.249 0.497,0.663 0.331,1.077 -0.165,0.331 -0.497,0.58 -0.828,0.746 -4.969,1.491 -9.771,3.313 -13.83,6.956 -1.574,1.74 -3.147,3.562 -2.733,5.964 0.248,0.661 0.827,1.24 1.407,1.572 2.982,1.077 6.46,0.746 9.69,0.995 l 11.844,0.331 10.186,-0.165 c 2.817,-0.415 6.378,0.579 8.033,-2.072 0.581,-1.324 -0.083,-2.732 -0.745,-3.892 -3.809,-5.549 -9.856,-7.701 -15.57,-9.607 -0.579,-0.166 -0.911,-0.745 -0.828,-1.325 1.076,-1.739 3.644,-0.828 5.384,-0.745 9.358,1.407 19.379,6.791 23.188,16.315 1.657,4.389 0.581,9.69 -2.152,13.251" /></g><g
           transform="translate(223.5728,19.2337)"
           id="g52"><path
             id="path54"
             style="fill:#2e2e2e;fill-opacity:1;fill-rule:evenodd;stroke:none"
             d="m 0,0 c 0,-2.951 -2.163,-4.82 -4.819,-4.82 l -9.048,0 c -2.753,0 -4.917,1.869 -4.917,4.82 l 0,2.852 c 0,2.95 2.164,4.818 4.917,4.818 l 9.048,0 C -2.163,7.67 0,5.802 0,2.852 L 0,0 Z m 0.589,13.768 -19.965,0 c -5.901,0 -10.719,-3.738 -10.719,-9.541 l 0,-5.607 c 0,-5.898 4.818,-9.537 10.719,-9.537 l 19.965,0 c 5.902,0 10.722,3.639 10.722,9.537 l 0,5.607 c 0,5.803 -4.82,9.541 -10.722,9.541 m -39.929,-0.589 -10.818,0 c -0.295,0 -0.591,-0.199 -0.591,-0.493 l 0,-6.983 C -51.732,4.62 -54.092,5.9 -54.092,5.9 c 0,0 -2.263,1.474 -7.476,4.329 -4.523,2.653 -5.901,2.95 -6.196,2.95 l -10.818,0 c -0.295,0 -0.59,-0.199 -0.59,-0.493 l 0,-21.44 c 0,-0.295 0.295,-0.493 0.59,-0.493 l 10.818,0 c 0.295,0 0.592,0.198 0.592,0.493 l 0,9.048 c 1.376,1.869 3.342,0.886 3.342,0.886 0,0 2.361,-1.18 7.377,-4.33 4.326,-2.752 5.408,-3.736 5.704,-4.72 l 0,-0.884 c 0,-0.295 0.296,-0.493 0.591,-0.493 l 10.818,0 c 0.295,0 0.492,0.198 0.492,0.493 l 0,21.44 c 0,0.294 -0.197,0.493 -0.492,0.493 m -72.19,0 -10.917,0 c -0.295,0 -0.491,-0.199 -0.491,-0.493 l 0,-4.131 c 0,-1.181 -0.985,-2.163 -2.164,-2.163 l -10.917,0 c -1.18,0 -2.163,0.982 -2.163,2.163 l 0,4.131 c 0,0.294 -0.197,0.493 -0.492,0.493 l -10.82,0 c -0.295,0 -0.589,-0.199 -0.589,-0.493 l 0,-21.44 c 0,-0.295 0.294,-0.493 0.589,-0.493 l 10.82,0 c 0.295,0 0.492,0.198 0.492,0.493 l 0,4.916 c 0,1.181 0.983,2.164 2.163,2.164 l 10.917,0 c 1.179,0 2.164,-0.983 2.164,-2.164 l 0,-4.916 c 0,-0.295 0.196,-0.493 0.491,-0.493 l 10.917,0 c 0.295,0 0.492,0.198 0.492,0.493 l 0,21.44 c 0,0.294 -0.197,0.493 -0.492,0.493 m 22.326,-21.933 c 0,-0.295 -0.197,-0.493 -0.493,-0.493 l -10.818,0 c -0.294,0 -0.59,0.198 -0.59,0.493 l 0,21.44 c 0,0.294 0.296,0.493 0.59,0.493 l 10.818,0 c 0.296,0 0.493,-0.199 0.493,-0.493 l 0,-21.44 z" /></g></g></g></g></svg>